<?xml version="1.0" encoding="utf-8" standalone="no"?>
<!DOCTYPE svg PUBLIC "-//W3C//DTD SVG 1.1//EN"
  "http://www.w3.org/Graphics/SVG/1.1/DTD/svg11.dtd">
<svg xmlns:xlink="http://www.w3.org/1999/xlink" width="643.002344pt" height="355.498901pt" viewBox="0 0 643.002344 355.498901" xmlns="http://www.w3.org/2000/svg" version="1.1">
 <metadata>
  <rdf:RDF xmlns:dc="http://purl.org/dc/elements/1.1/" xmlns:cc="http://creativecommons.org/ns#" xmlns:rdf="http://www.w3.org/1999/02/22-rdf-syntax-ns#">
   <cc:Work>
    <dc:type rdf:resource="http://purl.org/dc/dcmitype/StillImage"/>
    <dc:date>2026-03-11T12:58:12.360517</dc:date>
    <dc:format>image/svg+xml</dc:format>
    <dc:creator>
     <cc:Agent>
      <dc:title>Matplotlib v3.10.5, https://matplotlib.org/</dc:title>
     </cc:Agent>
    </dc:creator>
   </cc:Work>
  </rdf:RDF>
 </metadata>
 <defs>
  <style type="text/css">*{stroke-linejoin: round; stroke-linecap: butt}</style>
 </defs>
 <g id="figure_1">
  <g id="patch_1">
   <path d="M 0 355.498901 
L 643.002344 355.498901 
L 643.002344 0 
L 0 0 
z
" style="fill: #ffffff"/>
  </g>
  <g id="axes_1">
   <g id="patch_2">
    <path d="M 54.102344 293.446983 
L 632.202344 293.446983 
L 632.202344 26.79375 
L 54.102344 26.79375 
z
" style="fill: #ffffff"/>
   </g>
   <g id="matplotlib.axis_1">
    <g id="xtick_1">
     <g id="line2d_1">
      <path d="M 116.624131 293.446983 
L 116.624131 26.79375 
" clip-path="url(#pe44b90943f)" style="fill: none; stroke: #cccccc; stroke-linecap: round"/>
     </g>
     <g id="text_1">
      <!-- tiny -->
      <g style="fill: #262626" transform="translate(102.118643 316.636014) rotate(-30) scale(0.09 -0.09)">
       <defs>
        <path id="Inter-Regular-74" d="M 2009 3491 
L 1264 3491 
L 1264 4327 
L 727 4327 
L 727 3491 
L 200 3491 
L 200 3036 
L 727 3036 
L 727 855 
C 727 245 1218 -45 1673 -45 
C 1873 -45 2000 -9 2073 18 
L 1964 500 
C 1918 491 1846 473 1727 473 
C 1491 473 1264 545 1264 1000 
L 1264 3036 
L 2009 3036 
L 2009 3491 
z
" transform="scale(0.015625)"/>
        <path id="Inter-Regular-69" d="M 491 0 
L 1027 0 
L 1027 3491 
L 491 3491 
L 491 0 
z
M 764 4073 
C 973 4073 1146 4236 1146 4436 
C 1146 4636 973 4800 764 4800 
C 555 4800 382 4636 382 4436 
C 382 4236 555 4073 764 4073 
z
" transform="scale(0.015625)"/>
        <path id="Inter-Regular-6e" d="M 1027 2100 
C 1027 2709 1405 3055 1918 3055 
C 2416 3055 2718 2730 2718 2182 
L 2718 0 
L 3255 0 
L 3255 2218 
C 3255 3109 2780 3536 2073 3536 
C 1546 3536 1218 3300 1055 2945 
L 1009 2945 
L 1009 3491 
L 491 3491 
L 491 0 
L 1027 0 
L 1027 2100 
z
" transform="scale(0.015625)"/>
        <path id="Inter-Regular-79" d="M 836 -1309 
C 1321 -1309 1661 -1052 1864 -509 
L 3346 3491 
L 2764 3491 
L 1800 709 
L 1764 709 
L 800 3491 
L 218 3491 
L 1509 -18 
L 1409 -291 
C 1214 -823 973 -873 582 -773 
L 446 -1245 
C 500 -1273 655 -1309 836 -1309 
z
" transform="scale(0.015625)"/>
       </defs>
       <use xlink:href="#Inter-Regular-74"/>
       <use xlink:href="#Inter-Regular-69" transform="translate(36.363647 0)"/>
       <use xlink:href="#Inter-Regular-6e" transform="translate(60.085236 0)"/>
       <use xlink:href="#Inter-Regular-79" transform="translate(118.607971 0)"/>
      </g>
     </g>
    </g>
    <g id="xtick_2">
     <g id="line2d_2">
      <path d="M 207.235416 293.446983 
L 207.235416 26.79375 
" clip-path="url(#pe44b90943f)" style="fill: none; stroke: #cccccc; stroke-linecap: round"/>
     </g>
     <g id="text_2">
      <!-- small -->
      <g style="fill: #262626" transform="translate(187.371396 319.553176) rotate(-30) scale(0.09 -0.09)">
       <defs>
        <path id="Inter-Regular-73" d="M 2964 2709 
C 2796 3205 2418 3536 1727 3536 
C 991 3536 446 3118 446 2527 
C 446 2045 732 1723 1373 1573 
L 1955 1436 
C 2307 1355 2473 1186 2473 945 
C 2473 645 2155 400 1655 400 
C 1216 400 941 589 846 964 
L 336 836 
C 461 243 950 -73 1664 -73 
C 2475 -73 3027 370 3027 973 
C 3027 1459 2723 1766 2100 1918 
L 1582 2045 
C 1168 2148 982 2286 982 2555 
C 982 2855 1300 3073 1727 3073 
C 2196 3073 2389 2814 2482 2573 
L 2964 2709 
z
" transform="scale(0.015625)"/>
        <path id="Inter-Regular-6d" d="M 491 0 
L 1027 0 
L 1027 2182 
C 1027 2693 1400 3055 1818 3055 
C 2225 3055 2509 2789 2509 2391 
L 2509 0 
L 3055 0 
L 3055 2273 
C 3055 2723 3336 3055 3827 3055 
C 4209 3055 4536 2852 4536 2336 
L 4536 0 
L 5073 0 
L 5073 2336 
C 5073 3157 4632 3536 4009 3536 
C 3509 3536 3143 3307 2964 2945 
L 2927 2945 
C 2755 3318 2450 3536 1991 3536 
C 1536 3536 1200 3318 1055 2945 
L 1009 2945 
L 1009 3491 
L 491 3491 
L 491 0 
z
" transform="scale(0.015625)"/>
        <path id="Inter-Regular-61" d="M 1518 -82 
C 2127 -82 2446 245 2555 473 
L 2582 473 
L 2582 0 
L 3118 0 
L 3118 2300 
C 3118 3409 2273 3536 1827 3536 
C 1300 3536 700 3355 427 2718 
L 936 2536 
C 1055 2791 1334 3064 1846 3064 
C 2339 3064 2582 2802 2582 2355 
L 2582 2336 
C 2582 2077 2318 2100 1682 2018 
C 1034 1934 327 1791 327 991 
C 327 309 855 -82 1518 -82 
z
M 1600 400 
C 1173 400 864 591 864 964 
C 864 1373 1236 1500 1655 1555 
C 1882 1582 2491 1645 2582 1755 
L 2582 1264 
C 2582 827 2236 400 1600 400 
z
" transform="scale(0.015625)"/>
        <path id="Inter-Regular-6c" d="M 1027 4655 
L 491 4655 
L 491 0 
L 1027 0 
L 1027 4655 
z
" transform="scale(0.015625)"/>
       </defs>
       <use xlink:href="#Inter-Regular-73"/>
       <use xlink:href="#Inter-Regular-6d" transform="translate(52.272736 0)"/>
       <use xlink:href="#Inter-Regular-61" transform="translate(139.204575 0)"/>
       <use xlink:href="#Inter-Regular-6c" transform="translate(195.596634 0)"/>
       <use xlink:href="#Inter-Regular-6c" transform="translate(219.318222 0)"/>
      </g>
     </g>
    </g>
    <g id="xtick_3">
     <g id="line2d_3">
      <path d="M 297.846701 293.446983 
L 297.846701 26.79375 
" clip-path="url(#pe44b90943f)" style="fill: none; stroke: #cccccc; stroke-linecap: round"/>
     </g>
     <g id="text_3">
      <!-- medium -->
      <g style="fill: #262626" transform="translate(267.620011 325.536066) rotate(-30) scale(0.09 -0.09)">
       <defs>
        <path id="Inter-Regular-65" d="M 1955 -73 
C 2664 -73 3182 282 3346 809 
L 2827 955 
C 2691 591 2375 409 1955 409 
C 1325 409 891 816 866 1564 
L 3400 1564 
L 3400 1791 
C 3400 3091 2627 3536 1900 3536 
C 955 3536 327 2791 327 1718 
C 327 645 946 -73 1955 -73 
z
M 866 2027 
C 902 2570 1286 3055 1900 3055 
C 2482 3055 2855 2618 2855 2027 
L 866 2027 
z
" transform="scale(0.015625)"/>
        <path id="Inter-Regular-64" d="M 1809 -73 
C 2482 -73 2709 345 2827 536 
L 2891 536 
L 2891 0 
L 3409 0 
L 3409 4655 
L 2873 4655 
L 2873 2936 
L 2827 2936 
C 2709 3118 2500 3536 1818 3536 
C 936 3536 327 2836 327 1736 
C 327 627 936 -73 1809 -73 
z
M 1882 409 
C 1209 409 864 1000 864 1745 
C 864 2482 1200 3055 1882 3055 
C 2536 3055 2882 2527 2882 1745 
C 2882 955 2527 409 1882 409 
z
" transform="scale(0.015625)"/>
        <path id="Inter-Regular-75" d="M 2691 1427 
C 2691 773 2191 473 1791 473 
C 1346 473 1027 800 1027 1309 
L 1027 3491 
L 491 3491 
L 491 1273 
C 491 382 964 -45 1618 -45 
C 2146 -45 2491 236 2655 591 
L 2691 591 
L 2691 0 
L 3227 0 
L 3227 3491 
L 2691 3491 
L 2691 1427 
z
" transform="scale(0.015625)"/>
       </defs>
       <use xlink:href="#Inter-Regular-6d"/>
       <use xlink:href="#Inter-Regular-65" transform="translate(86.931839 0)"/>
       <use xlink:href="#Inter-Regular-64" transform="translate(145.170486 0)"/>
       <use xlink:href="#Inter-Regular-69" transform="translate(207.24437 0)"/>
       <use xlink:href="#Inter-Regular-75" transform="translate(230.965958 0)"/>
       <use xlink:href="#Inter-Regular-6d" transform="translate(289.062561 0)"/>
      </g>
     </g>
    </g>
    <g id="xtick_4">
     <g id="line2d_4">
      <path d="M 388.457986 293.446983 
L 388.457986 26.79375 
" clip-path="url(#pe44b90943f)" style="fill: none; stroke: #cccccc; stroke-linecap: round"/>
     </g>
     <g id="text_4">
      <!-- large -->
      <g style="fill: #262626" transform="translate(369.052917 319.258566) rotate(-30) scale(0.09 -0.09)">
       <defs>
        <path id="Inter-Regular-72" d="M 491 0 
L 1027 0 
L 1027 2209 
C 1027 2682 1400 3027 1909 3027 
C 2052 3027 2200 3000 2236 2991 
L 2236 3536 
C 2175 3541 2034 3545 1955 3545 
C 1536 3545 1173 3309 1046 2964 
L 1009 2964 
L 1009 3491 
L 491 3491 
L 491 0 
z
" transform="scale(0.015625)"/>
        <path id="Inter-Regular-67" d="M 1900 -1382 
C 2736 -1382 3409 -1000 3409 -100 
L 3409 3491 
L 2891 3491 
L 2891 2936 
L 2836 2936 
C 2718 3118 2500 3536 1818 3536 
C 936 3536 327 2836 327 1764 
C 327 673 964 55 1809 55 
C 2491 55 2709 455 2827 645 
L 2873 645 
L 2873 -64 
C 2873 -645 2464 -909 1900 -909 
C 1266 -909 1043 -575 900 -382 
L 473 -682 
C 691 -1048 1121 -1382 1900 -1382 
z
M 1882 536 
C 1209 536 864 1045 864 1773 
C 864 2482 1200 3055 1882 3055 
C 2536 3055 2882 2527 2882 1773 
C 2882 1000 2527 536 1882 536 
z
" transform="scale(0.015625)"/>
       </defs>
       <use xlink:href="#Inter-Regular-6c"/>
       <use xlink:href="#Inter-Regular-61" transform="translate(23.721588 0)"/>
       <use xlink:href="#Inter-Regular-72" transform="translate(80.113647 0)"/>
       <use xlink:href="#Inter-Regular-67" transform="translate(117.329559 0)"/>
       <use xlink:href="#Inter-Regular-65" transform="translate(178.267075 0)"/>
      </g>
     </g>
    </g>
    <g id="xtick_5">
     <g id="line2d_5">
      <path d="M 479.069272 293.446983 
L 479.069272 26.79375 
" clip-path="url(#pe44b90943f)" style="fill: none; stroke: #cccccc; stroke-linecap: round"/>
     </g>
     <g id="text_5">
      <!-- boundary -->
      <g style="fill: #262626" transform="translate(443.095556 328.854113) rotate(-30) scale(0.09 -0.09)">
       <defs>
        <path id="Inter-Regular-62" d="M 564 0 
L 1082 0 
L 1082 536 
L 1146 536 
C 1264 345 1491 -73 2164 -73 
C 3036 -73 3646 627 3646 1736 
C 3646 2836 3036 3536 2155 3536 
C 1473 3536 1264 3118 1146 2936 
L 1100 2936 
L 1100 4655 
L 564 4655 
L 564 0 
z
M 1091 1745 
C 1091 2527 1436 3055 2091 3055 
C 2773 3055 3109 2482 3109 1745 
C 3109 1000 2764 409 2091 409 
C 1446 409 1091 955 1091 1745 
z
" transform="scale(0.015625)"/>
        <path id="Inter-Regular-6f" d="M 1909 -73 
C 2855 -73 3491 645 3491 1727 
C 3491 2818 2855 3536 1909 3536 
C 964 3536 327 2818 327 1727 
C 327 645 964 -73 1909 -73 
z
M 1909 409 
C 1191 409 864 1027 864 1727 
C 864 2427 1191 3055 1909 3055 
C 2627 3055 2955 2427 2955 1727 
C 2955 1027 2627 409 1909 409 
z
" transform="scale(0.015625)"/>
       </defs>
       <use xlink:href="#Inter-Regular-62"/>
       <use xlink:href="#Inter-Regular-6f" transform="translate(62.073883 0)"/>
       <use xlink:href="#Inter-Regular-75" transform="translate(121.732986 0)"/>
       <use xlink:href="#Inter-Regular-6e" transform="translate(179.82959 0)"/>
       <use xlink:href="#Inter-Regular-64" transform="translate(238.352325 0)"/>
       <use xlink:href="#Inter-Regular-61" transform="translate(300.426208 0)"/>
       <use xlink:href="#Inter-Regular-72" transform="translate(356.818268 0)"/>
       <use xlink:href="#Inter-Regular-79" transform="translate(394.03418 0)"/>
      </g>
     </g>
    </g>
    <g id="xtick_6">
     <g id="line2d_6">
      <path d="M 569.680557 293.446983 
L 569.680557 26.79375 
" clip-path="url(#pe44b90943f)" style="fill: none; stroke: #cccccc; stroke-linecap: round"/>
     </g>
     <g id="text_6">
      <!-- uniform -->
      <g style="fill: #262626" transform="translate(540.682675 324.826613) rotate(-30) scale(0.09 -0.09)">
       <defs>
        <path id="Inter-Regular-66" d="M 2046 3491 
L 1264 3491 
L 1264 3845 
C 1264 4191 1409 4373 1764 4373 
C 1918 4373 2009 4336 2064 4318 
L 2218 4782 
C 2136 4818 1973 4873 1709 4873 
C 1209 4873 727 4573 727 3973 
L 727 3491 
L 164 3491 
L 164 3036 
L 727 3036 
L 727 0 
L 1264 0 
L 1264 3036 
L 2046 3036 
L 2046 3491 
z
" transform="scale(0.015625)"/>
       </defs>
       <use xlink:href="#Inter-Regular-75"/>
       <use xlink:href="#Inter-Regular-6e" transform="translate(58.096603 0)"/>
       <use xlink:href="#Inter-Regular-69" transform="translate(116.619339 0)"/>
       <use xlink:href="#Inter-Regular-66" transform="translate(140.340927 0)"/>
       <use xlink:href="#Inter-Regular-6f" transform="translate(176.420471 0)"/>
       <use xlink:href="#Inter-Regular-72" transform="translate(236.079575 0)"/>
       <use xlink:href="#Inter-Regular-6d" transform="translate(273.295486 0)"/>
      </g>
     </g>
    </g>
    <g id="text_7">
     <!-- Distribution -->
     <g style="fill: #262626" transform="translate(313.253828 342.449058) scale(0.11 -0.11)">
      <defs>
       <path id="Inter-Regular-44" d="M 2000 0 
C 3418 0 4218 882 4218 2336 
C 4218 3782 3418 4655 2064 4655 
L 564 4655 
L 564 0 
L 2000 0 
z
M 1127 500 
L 1127 4155 
L 2027 4155 
C 3118 4155 3673 3464 3673 2336 
C 3673 1200 3118 500 1964 500 
L 1127 500 
z
" transform="scale(0.015625)"/>
      </defs>
      <use xlink:href="#Inter-Regular-44"/>
      <use xlink:href="#Inter-Regular-69" transform="translate(71.875015 0)"/>
      <use xlink:href="#Inter-Regular-73" transform="translate(95.596603 0)"/>
      <use xlink:href="#Inter-Regular-74" transform="translate(147.869339 0)"/>
      <use xlink:href="#Inter-Regular-72" transform="translate(184.232986 0)"/>
      <use xlink:href="#Inter-Regular-69" transform="translate(221.448898 0)"/>
      <use xlink:href="#Inter-Regular-62" transform="translate(245.170486 0)"/>
      <use xlink:href="#Inter-Regular-75" transform="translate(307.24437 0)"/>
      <use xlink:href="#Inter-Regular-74" transform="translate(365.340973 0)"/>
      <use xlink:href="#Inter-Regular-69" transform="translate(401.70462 0)"/>
      <use xlink:href="#Inter-Regular-6f" transform="translate(425.426208 0)"/>
      <use xlink:href="#Inter-Regular-6e" transform="translate(485.085312 0)"/>
     </g>
    </g>
   </g>
   <g id="matplotlib.axis_2">
    <g id="ytick_1">
     <g id="line2d_7">
      <path d="M 54.102344 293.446983 
L 632.202344 293.446983 
" clip-path="url(#pe44b90943f)" style="fill: none; stroke: #cccccc; stroke-linecap: round"/>
     </g>
     <g id="text_8">
      <!-- 0.0 -->
      <g style="fill: #262626" transform="translate(30.871719 296.72003) scale(0.09 -0.09)">
       <defs>
        <path id="Inter-Regular-30" d="M 2000 -64 
C 3027 -64 3618 807 3618 2327 
C 3618 3836 3018 4718 2000 4718 
C 982 4718 382 3836 382 2327 
C 382 807 973 -64 2000 -64 
z
M 2000 436 
C 1323 436 927 1116 927 2327 
C 927 3536 1327 4227 2000 4227 
C 2673 4227 3073 3536 3073 2327 
C 3073 1116 2677 436 2000 436 
z
" transform="scale(0.015625)"/>
        <path id="Inter-Regular-2e" d="M 882 -36 
C 1107 -36 1291 148 1291 373 
C 1291 598 1107 782 882 782 
C 657 782 473 598 473 373 
C 473 148 657 -36 882 -36 
z
" transform="scale(0.015625)"/>
       </defs>
       <use xlink:href="#Inter-Regular-30"/>
       <use xlink:href="#Inter-Regular-2e" transform="translate(62.500015 0)"/>
       <use xlink:href="#Inter-Regular-30" transform="translate(90.056839 0)"/>
      </g>
     </g>
    </g>
    <g id="ytick_2">
     <g id="line2d_8">
      <path d="M 54.102344 263.676619 
L 632.202344 263.676619 
" clip-path="url(#pe44b90943f)" style="fill: none; stroke: #cccccc; stroke-linecap: round"/>
     </g>
     <g id="text_9">
      <!-- 2.5 -->
      <g style="fill: #262626" transform="translate(31.203594 266.949666) scale(0.09 -0.09)">
       <defs>
        <path id="Inter-Regular-32" d="M 482 0 
L 3418 0 
L 3418 500 
L 1255 500 
L 1255 536 
L 2300 1655 
C 3100 2511 3336 2911 3336 3427 
C 3336 4145 2755 4718 1936 4718 
C 1121 4718 500 4164 500 3345 
L 1036 3345 
C 1036 3875 1380 4227 1918 4227 
C 2423 4227 2809 3918 2809 3427 
C 2809 2998 2557 2680 2018 2091 
L 482 409 
L 482 0 
z
" transform="scale(0.015625)"/>
        <path id="Inter-Regular-35" d="M 1936 -64 
C 2823 -64 3473 591 3473 1482 
C 3473 2384 2846 3045 1991 3045 
C 1677 3045 1373 2934 1182 2782 
L 1155 2782 
L 1318 4155 
L 3264 4155 
L 3264 4655 
L 846 4655 
L 564 2364 
L 1091 2300 
C 1284 2439 1614 2539 1900 2536 
C 2493 2532 2927 2082 2927 1473 
C 2927 875 2509 436 1936 436 
C 1459 436 1080 743 1036 1164 
L 491 1164 
C 525 455 1136 -64 1936 -64 
z
" transform="scale(0.015625)"/>
       </defs>
       <use xlink:href="#Inter-Regular-32"/>
       <use xlink:href="#Inter-Regular-2e" transform="translate(60.511383 0)"/>
       <use xlink:href="#Inter-Regular-35" transform="translate(88.068207 0)"/>
      </g>
     </g>
    </g>
    <g id="ytick_3">
     <g id="line2d_9">
      <path d="M 54.102344 233.906256 
L 632.202344 233.906256 
" clip-path="url(#pe44b90943f)" style="fill: none; stroke: #cccccc; stroke-linecap: round"/>
     </g>
     <g id="text_10">
      <!-- 5.0 -->
      <g style="fill: #262626" transform="translate(31.025 237.179302) scale(0.09 -0.09)">
       <use xlink:href="#Inter-Regular-35"/>
       <use xlink:href="#Inter-Regular-2e" transform="translate(60.795471 0)"/>
       <use xlink:href="#Inter-Regular-30" transform="translate(88.352295 0)"/>
      </g>
     </g>
    </g>
    <g id="ytick_4">
     <g id="line2d_10">
      <path d="M 54.102344 204.135892 
L 632.202344 204.135892 
" clip-path="url(#pe44b90943f)" style="fill: none; stroke: #cccccc; stroke-linecap: round"/>
     </g>
     <g id="text_11">
      <!-- 7.5 -->
      <g style="fill: #262626" transform="translate(31.510156 207.408939) scale(0.09 -0.09)">
       <defs>
        <path id="Inter-Regular-37" d="M 627 0 
L 1218 0 
L 3291 4127 
L 3291 4655 
L 309 4655 
L 309 4155 
L 2709 4155 
L 2709 4118 
L 627 0 
z
" transform="scale(0.015625)"/>
       </defs>
       <use xlink:href="#Inter-Regular-37"/>
       <use xlink:href="#Inter-Regular-2e" transform="translate(57.10228 0)"/>
       <use xlink:href="#Inter-Regular-35" transform="translate(84.659103 0)"/>
      </g>
     </g>
    </g>
    <g id="ytick_5">
     <g id="line2d_11">
      <path d="M 54.102344 174.365528 
L 632.202344 174.365528 
" clip-path="url(#pe44b90943f)" style="fill: none; stroke: #cccccc; stroke-linecap: round"/>
     </g>
     <g id="text_12">
      <!-- 10.0 -->
      <g style="fill: #262626" transform="translate(26.690938 177.638575) scale(0.09 -0.09)">
       <defs>
        <path id="Inter-Regular-31" d="M 2118 4655 
L 1555 4655 
L 391 3882 
L 391 3309 
L 1527 4064 
L 1555 4064 
L 1555 0 
L 2118 0 
L 2118 4655 
z
" transform="scale(0.015625)"/>
       </defs>
       <use xlink:href="#Inter-Regular-31"/>
       <use xlink:href="#Inter-Regular-30" transform="translate(46.448868 0)"/>
       <use xlink:href="#Inter-Regular-2e" transform="translate(108.948883 0)"/>
       <use xlink:href="#Inter-Regular-30" transform="translate(136.505707 0)"/>
      </g>
     </g>
    </g>
    <g id="ytick_6">
     <g id="line2d_12">
      <path d="M 54.102344 144.595165 
L 632.202344 144.595165 
" clip-path="url(#pe44b90943f)" style="fill: none; stroke: #cccccc; stroke-linecap: round"/>
     </g>
     <g id="text_13">
      <!-- 12.5 -->
      <g style="fill: #262626" transform="translate(27.022813 147.868212) scale(0.09 -0.09)">
       <use xlink:href="#Inter-Regular-31"/>
       <use xlink:href="#Inter-Regular-32" transform="translate(46.448868 0)"/>
       <use xlink:href="#Inter-Regular-2e" transform="translate(106.960251 0)"/>
       <use xlink:href="#Inter-Regular-35" transform="translate(134.517075 0)"/>
      </g>
     </g>
    </g>
    <g id="ytick_7">
     <g id="line2d_13">
      <path d="M 54.102344 114.824801 
L 632.202344 114.824801 
" clip-path="url(#pe44b90943f)" style="fill: none; stroke: #cccccc; stroke-linecap: round"/>
     </g>
     <g id="text_14">
      <!-- 15.0 -->
      <g style="fill: #262626" transform="translate(26.844219 118.097848) scale(0.09 -0.09)">
       <use xlink:href="#Inter-Regular-31"/>
       <use xlink:href="#Inter-Regular-35" transform="translate(46.448868 0)"/>
       <use xlink:href="#Inter-Regular-2e" transform="translate(107.244339 0)"/>
       <use xlink:href="#Inter-Regular-30" transform="translate(134.801163 0)"/>
      </g>
     </g>
    </g>
    <g id="ytick_8">
     <g id="line2d_14">
      <path d="M 54.102344 85.054438 
L 632.202344 85.054438 
" clip-path="url(#pe44b90943f)" style="fill: none; stroke: #cccccc; stroke-linecap: round"/>
     </g>
     <g id="text_15">
      <!-- 17.5 -->
      <g style="fill: #262626" transform="translate(27.329375 88.327485) scale(0.09 -0.09)">
       <use xlink:href="#Inter-Regular-31"/>
       <use xlink:href="#Inter-Regular-37" transform="translate(46.448868 0)"/>
       <use xlink:href="#Inter-Regular-2e" transform="translate(103.551147 0)"/>
       <use xlink:href="#Inter-Regular-35" transform="translate(131.107971 0)"/>
      </g>
     </g>
    </g>
    <g id="ytick_9">
     <g id="line2d_15">
      <path d="M 54.102344 55.284074 
L 632.202344 55.284074 
" clip-path="url(#pe44b90943f)" style="fill: none; stroke: #cccccc; stroke-linecap: round"/>
     </g>
     <g id="text_16">
      <!-- 20.0 -->
      <g style="fill: #262626" transform="translate(25.425313 58.557121) scale(0.09 -0.09)">
       <use xlink:href="#Inter-Regular-32"/>
       <use xlink:href="#Inter-Regular-30" transform="translate(60.511383 0)"/>
       <use xlink:href="#Inter-Regular-2e" transform="translate(123.011398 0)"/>
       <use xlink:href="#Inter-Regular-30" transform="translate(150.568222 0)"/>
      </g>
     </g>
    </g>
    <g id="text_17">
     <!-- Median time (µs), whiskers: min–p95 -->
     <g style="fill: #262626" transform="translate(19.175469 255.263491) rotate(-90) scale(0.11 -0.11)">
      <defs>
       <path id="Inter-Regular-4d" d="M 564 4655 
L 564 0 
L 1091 0 
L 1091 3536 
L 1136 3536 
L 2591 0 
L 3100 0 
L 4555 3536 
L 4600 3536 
L 4600 0 
L 5127 0 
L 5127 4655 
L 4455 4655 
L 2873 791 
L 2818 791 
L 1236 4655 
L 564 4655 
z
" transform="scale(0.015625)"/>
       <path id="Inter-Regular-20" transform="scale(0.015625)"/>
       <path id="Inter-Regular-28" d="M 682 1964 
C 682 818 991 -136 1546 -945 
L 2018 -945 
C 1582 -345 1236 882 1236 1964 
C 1236 3045 1582 4273 2018 4873 
L 1546 4873 
C 991 4064 682 3109 682 1964 
z
" transform="scale(0.015625)"/>
       <path id="Inter-Regular-b5" d="M 491 -1309 
L 1027 -1309 
L 1027 518 
L 1055 518 
C 1246 150 1602 -45 1991 -45 
C 2380 -45 2739 150 2927 518 
L 2955 518 
L 2955 0 
L 3491 0 
L 3491 3491 
L 2955 3491 
L 2955 1427 
C 2955 864 2573 473 1991 473 
C 1409 473 1027 859 1027 1427 
L 1027 3491 
L 491 3491 
L 491 -1309 
z
" transform="scale(0.015625)"/>
       <path id="Inter-Regular-29" d="M 1636 1964 
C 1636 3109 1327 4064 773 4873 
L 300 4873 
C 736 4273 1082 3045 1082 1964 
C 1082 882 736 -345 300 -945 
L 773 -945 
C 1327 -136 1636 818 1636 1964 
z
" transform="scale(0.015625)"/>
       <path id="Inter-Regular-2c" d="M 1291 636 
L 709 636 
L 682 382 
C 616 -234 486 -848 427 -1136 
L 836 -1136 
C 946 -827 1177 -127 1255 391 
L 1291 636 
z
" transform="scale(0.015625)"/>
       <path id="Inter-Regular-77" d="M 1282 0 
L 1809 0 
L 2573 2682 
L 2627 2682 
L 3391 0 
L 3918 0 
L 4982 3491 
L 4418 3491 
L 3664 827 
L 3627 827 
L 2891 3491 
L 2318 3491 
L 1573 818 
L 1536 818 
L 782 3491 
L 218 3491 
L 1282 0 
z
" transform="scale(0.015625)"/>
       <path id="Inter-Regular-68" d="M 1027 2100 
C 1027 2709 1416 3055 1946 3055 
C 2450 3055 2755 2736 2755 2182 
L 2755 0 
L 3291 0 
L 3291 2218 
C 3291 3116 2814 3536 2100 3536 
C 1550 3536 1236 3307 1073 2945 
L 1027 2945 
L 1027 4655 
L 491 4655 
L 491 0 
L 1027 0 
L 1027 2100 
z
" transform="scale(0.015625)"/>
       <path id="Inter-Regular-6b" d="M 491 0 
L 1027 0 
L 1027 1307 
L 1402 1655 
L 2709 0 
L 3391 0 
L 1807 2000 
L 3282 3491 
L 2618 3491 
L 1091 1936 
L 1027 1936 
L 1027 4655 
L 491 4655 
L 491 0 
z
" transform="scale(0.015625)"/>
       <path id="Inter-Regular-3a" d="M 882 -36 
C 1107 -36 1291 148 1291 373 
C 1291 598 1107 782 882 782 
C 657 782 473 598 473 373 
C 473 148 657 -36 882 -36 
z
M 882 2555 
C 1107 2555 1291 2739 1291 2964 
C 1291 3189 1107 3373 882 3373 
C 657 3373 473 3189 473 2964 
C 473 2739 657 2555 882 2555 
z
" transform="scale(0.015625)"/>
       <path id="Inter-Regular-2013" d="M 3200 2245 
L 0 2245 
L 0 1745 
L 3200 1745 
L 3200 2245 
z
" transform="scale(0.015625)"/>
       <path id="Inter-Regular-70" d="M 491 -1309 
L 1027 -1309 
L 1027 536 
L 1073 536 
C 1191 345 1418 -73 2091 -73 
C 2964 -73 3573 627 3573 1736 
C 3573 2836 2964 3536 2082 3536 
C 1400 3536 1191 3118 1073 2936 
L 1009 2936 
L 1009 3491 
L 491 3491 
L 491 -1309 
z
M 1018 1745 
C 1018 2527 1364 3055 2018 3055 
C 2700 3055 3036 2482 3036 1745 
C 3036 1000 2691 409 2018 409 
C 1373 409 1018 955 1018 1745 
z
" transform="scale(0.015625)"/>
       <path id="Inter-Regular-39" d="M 1964 4718 
C 1018 4730 409 4018 409 3164 
C 409 2264 1073 1618 1873 1618 
C 2355 1618 2764 1855 3018 2236 
L 3055 2236 
C 3055 1091 2609 436 1891 436 
C 1400 436 1100 745 1000 1173 
L 446 1173 
C 555 436 1109 -64 1891 -64 
C 2936 -64 3582 864 3582 2518 
C 3582 4227 2727 4709 1964 4718 
z
M 1964 4218 
C 2546 4218 2973 3718 2973 3173 
C 2973 2618 2518 2118 1946 2118 
C 1373 2118 955 2582 955 3164 
C 955 3745 1391 4218 1964 4218 
z
" transform="scale(0.015625)"/>
      </defs>
      <use xlink:href="#Inter-Regular-4d"/>
      <use xlink:href="#Inter-Regular-65" transform="translate(88.920471 0)"/>
      <use xlink:href="#Inter-Regular-64" transform="translate(147.159119 0)"/>
      <use xlink:href="#Inter-Regular-69" transform="translate(209.233002 0)"/>
      <use xlink:href="#Inter-Regular-61" transform="translate(232.95459 0)"/>
      <use xlink:href="#Inter-Regular-6e" transform="translate(289.346649 0)"/>
      <use xlink:href="#Inter-Regular-20" transform="translate(347.869385 0)"/>
      <use xlink:href="#Inter-Regular-74" transform="translate(375.994385 0)"/>
      <use xlink:href="#Inter-Regular-69" transform="translate(412.358032 0)"/>
      <use xlink:href="#Inter-Regular-6d" transform="translate(436.07962 0)"/>
      <use xlink:href="#Inter-Regular-65" transform="translate(523.011459 0)"/>
      <use xlink:href="#Inter-Regular-20" transform="translate(581.250107 0)"/>
      <use xlink:href="#Inter-Regular-28" transform="translate(609.375107 0)"/>
      <use xlink:href="#Inter-Regular-b5" transform="translate(645.596695 0)"/>
      <use xlink:href="#Inter-Regular-73" transform="translate(707.812622 0)"/>
      <use xlink:href="#Inter-Regular-29" transform="translate(760.085358 0)"/>
      <use xlink:href="#Inter-Regular-2c" transform="translate(796.306946 0)"/>
      <use xlink:href="#Inter-Regular-20" transform="translate(824.289902 0)"/>
      <use xlink:href="#Inter-Regular-77" transform="translate(852.414902 0)"/>
      <use xlink:href="#Inter-Regular-68" transform="translate(933.664917 0)"/>
      <use xlink:href="#Inter-Regular-69" transform="translate(992.755844 0)"/>
      <use xlink:href="#Inter-Regular-73" transform="translate(1016.477432 0)"/>
      <use xlink:href="#Inter-Regular-6b" transform="translate(1068.750168 0)"/>
      <use xlink:href="#Inter-Regular-65" transform="translate(1123.15358 0)"/>
      <use xlink:href="#Inter-Regular-72" transform="translate(1181.392227 0)"/>
      <use xlink:href="#Inter-Regular-73" transform="translate(1218.608139 0)"/>
      <use xlink:href="#Inter-Regular-3a" transform="translate(1270.880875 0)"/>
      <use xlink:href="#Inter-Regular-20" transform="translate(1298.437698 0)"/>
      <use xlink:href="#Inter-Regular-6d" transform="translate(1326.562698 0)"/>
      <use xlink:href="#Inter-Regular-69" transform="translate(1413.494537 0)"/>
      <use xlink:href="#Inter-Regular-6e" transform="translate(1437.216125 0)"/>
      <use xlink:href="#Inter-Regular-2013" transform="translate(1495.738861 0)"/>
      <use xlink:href="#Inter-Regular-70" transform="translate(1545.738876 0)"/>
      <use xlink:href="#Inter-Regular-39" transform="translate(1606.676392 0)"/>
      <use xlink:href="#Inter-Regular-35" transform="translate(1669.034363 0)"/>
     </g>
    </g>
   </g>
   <g id="patch_3">
    <path d="M 80.379616 293.446983 
L 98.501874 293.446983 
L 98.501874 278.345798 
L 80.379616 278.345798 
z
" clip-path="url(#pe44b90943f)" style="fill: #16a34a; opacity: 0.85; stroke: #ffffff; stroke-linejoin: miter"/>
   </g>
   <g id="patch_4">
    <path d="M 170.990902 293.446983 
L 189.113159 293.446983 
L 189.113159 264.701047 
L 170.990902 264.701047 
z
" clip-path="url(#pe44b90943f)" style="fill: #16a34a; opacity: 0.85; stroke: #ffffff; stroke-linejoin: miter"/>
   </g>
   <g id="patch_5">
    <path d="M 261.602187 293.446983 
L 279.724444 293.446983 
L 279.724444 263.422737 
L 261.602187 263.422737 
z
" clip-path="url(#pe44b90943f)" style="fill: #16a34a; opacity: 0.85; stroke: #ffffff; stroke-linejoin: miter"/>
   </g>
   <g id="patch_6">
    <path d="M 352.213472 293.446983 
L 370.335729 293.446983 
L 370.335729 261.405315 
L 352.213472 261.405315 
z
" clip-path="url(#pe44b90943f)" style="fill: #16a34a; opacity: 0.85; stroke: #ffffff; stroke-linejoin: miter"/>
   </g>
   <g id="patch_7">
    <path d="M 442.824758 293.446983 
L 460.947015 293.446983 
L 460.947015 261.729382 
L 442.824758 261.729382 
z
" clip-path="url(#pe44b90943f)" style="fill: #16a34a; opacity: 0.85; stroke: #ffffff; stroke-linejoin: miter"/>
   </g>
   <g id="patch_8">
    <path d="M 533.436043 293.446983 
L 551.5583 293.446983 
L 551.5583 262.530488 
L 533.436043 262.530488 
z
" clip-path="url(#pe44b90943f)" style="fill: #16a34a; opacity: 0.85; stroke: #ffffff; stroke-linejoin: miter"/>
   </g>
   <g id="patch_9">
    <path d="M 98.501874 293.446983 
L 116.624131 293.446983 
L 116.624131 235.528202 
L 98.501874 235.528202 
z
" clip-path="url(#pe44b90943f)" style="fill: #d97706; opacity: 0.85; stroke: #ffffff; stroke-linejoin: miter"/>
   </g>
   <g id="patch_10">
    <path d="M 189.113159 293.446983 
L 207.235416 293.446983 
L 207.235416 191.818155 
L 189.113159 191.818155 
z
" clip-path="url(#pe44b90943f)" style="fill: #d97706; opacity: 0.85; stroke: #ffffff; stroke-linejoin: miter"/>
   </g>
   <g id="patch_11">
    <path d="M 279.724444 293.446983 
L 297.846701 293.446983 
L 297.846701 145.835631 
L 279.724444 145.835631 
z
" clip-path="url(#pe44b90943f)" style="fill: #d97706; opacity: 0.85; stroke: #ffffff; stroke-linejoin: miter"/>
   </g>
   <g id="patch_12">
    <path d="M 370.335729 293.446983 
L 388.457986 293.446983 
L 388.457986 53.833555 
L 370.335729 53.833555 
z
" clip-path="url(#pe44b90943f)" style="fill: #d97706; opacity: 0.85; stroke: #ffffff; stroke-linejoin: miter"/>
   </g>
   <g id="patch_13">
    <path d="M 460.947015 293.446983 
L 479.069272 293.446983 
L 479.069272 95.057947 
L 460.947015 95.057947 
z
" clip-path="url(#pe44b90943f)" style="fill: #d97706; opacity: 0.85; stroke: #ffffff; stroke-linejoin: miter"/>
   </g>
   <g id="patch_14">
    <path d="M 551.5583 293.446983 
L 569.680557 293.446983 
L 569.680557 50.114245 
L 551.5583 50.114245 
z
" clip-path="url(#pe44b90943f)" style="fill: #d97706; opacity: 0.85; stroke: #ffffff; stroke-linejoin: miter"/>
   </g>
   <g id="patch_15">
    <path d="M 116.624131 293.446983 
L 134.746388 293.446983 
L 134.746388 259.583945 
L 116.624131 259.583945 
z
" clip-path="url(#pe44b90943f)" style="fill: #2563eb; opacity: 0.85; stroke: #ffffff; stroke-linejoin: miter"/>
   </g>
   <g id="patch_16">
    <path d="M 207.235416 293.446983 
L 225.357673 293.446983 
L 225.357673 252.259332 
L 207.235416 252.259332 
z
" clip-path="url(#pe44b90943f)" style="fill: #2563eb; opacity: 0.85; stroke: #ffffff; stroke-linejoin: miter"/>
   </g>
   <g id="patch_17">
    <path d="M 297.846701 293.446983 
L 315.968958 293.446983 
L 315.968958 251.955826 
L 297.846701 251.955826 
z
" clip-path="url(#pe44b90943f)" style="fill: #2563eb; opacity: 0.85; stroke: #ffffff; stroke-linejoin: miter"/>
   </g>
   <g id="patch_18">
    <path d="M 388.457986 293.446983 
L 406.580243 293.446983 
L 406.580243 251.008976 
L 388.457986 251.008976 
z
" clip-path="url(#pe44b90943f)" style="fill: #2563eb; opacity: 0.85; stroke: #ffffff; stroke-linejoin: miter"/>
   </g>
   <g id="patch_19">
    <path d="M 479.069272 293.446983 
L 497.191529 293.446983 
L 497.191529 251.844719 
L 479.069272 251.844719 
z
" clip-path="url(#pe44b90943f)" style="fill: #2563eb; opacity: 0.85; stroke: #ffffff; stroke-linejoin: miter"/>
   </g>
   <g id="patch_20">
    <path d="M 569.680557 293.446983 
L 587.802814 293.446983 
L 587.802814 250.835781 
L 569.680557 250.835781 
z
" clip-path="url(#pe44b90943f)" style="fill: #2563eb; opacity: 0.85; stroke: #ffffff; stroke-linejoin: miter"/>
   </g>
   <g id="patch_21">
    <path d="M 134.746388 293.446983 
L 152.868645 293.446983 
L 152.868645 274.234959 
L 134.746388 274.234959 
z
" clip-path="url(#pe44b90943f)" style="fill: #dc2626; opacity: 0.85; stroke: #ffffff; stroke-linejoin: miter"/>
   </g>
   <g id="patch_22">
    <path d="M 225.357673 293.446983 
L 243.47993 293.446983 
L 243.47993 274.21186 
L 225.357673 274.21186 
z
" clip-path="url(#pe44b90943f)" style="fill: #dc2626; opacity: 0.85; stroke: #ffffff; stroke-linejoin: miter"/>
   </g>
   <g id="patch_23">
    <path d="M 315.968958 293.446983 
L 334.091215 293.446983 
L 334.091215 273.860852 
L 315.968958 273.860852 
z
" clip-path="url(#pe44b90943f)" style="fill: #dc2626; opacity: 0.85; stroke: #ffffff; stroke-linejoin: miter"/>
   </g>
   <g id="patch_24">
    <path d="M 406.580243 293.446983 
L 424.7025 293.446983 
L 424.7025 273.535012 
L 406.580243 273.535012 
z
" clip-path="url(#pe44b90943f)" style="fill: #dc2626; opacity: 0.85; stroke: #ffffff; stroke-linejoin: miter"/>
   </g>
   <g id="patch_25">
    <path d="M 497.191529 293.446983 
L 515.313786 293.446983 
L 515.313786 273.413674 
L 497.191529 273.413674 
z
" clip-path="url(#pe44b90943f)" style="fill: #dc2626; opacity: 0.85; stroke: #ffffff; stroke-linejoin: miter"/>
   </g>
   <g id="patch_26">
    <path d="M 587.802814 293.446983 
L 605.925071 293.446983 
L 605.925071 273.224415 
L 587.802814 273.224415 
z
" clip-path="url(#pe44b90943f)" style="fill: #dc2626; opacity: 0.85; stroke: #ffffff; stroke-linejoin: miter"/>
   </g>
   <g id="LineCollection_1">
    <path d="M 89.440745 278.483454 
L 89.440745 278.128048 
" clip-path="url(#pe44b90943f)" style="fill: none; stroke: #1a1a1a"/>
    <path d="M 180.05203 265.211571 
L 180.05203 264.128286 
" clip-path="url(#pe44b90943f)" style="fill: none; stroke: #1a1a1a"/>
    <path d="M 270.663316 264.215165 
L 270.663316 262.42839 
" clip-path="url(#pe44b90943f)" style="fill: none; stroke: #1a1a1a"/>
    <path d="M 361.274601 263.741717 
L 361.274601 259.651403 
" clip-path="url(#pe44b90943f)" style="fill: none; stroke: #1a1a1a"/>
    <path d="M 451.885886 266.929762 
L 451.885886 258.902829 
" clip-path="url(#pe44b90943f)" style="fill: none; stroke: #1a1a1a"/>
    <path d="M 542.497171 264.549313 
L 542.497171 260.746039 
" clip-path="url(#pe44b90943f)" style="fill: none; stroke: #1a1a1a"/>
   </g>
   <g id="line2d_16">
    <defs>
     <path id="mff0b9fad02" d="M 2 0 
L -2 -0 
" style="stroke: #1a1a1a"/>
    </defs>
    <g clip-path="url(#pe44b90943f)">
     <use xlink:href="#mff0b9fad02" x="89.440745" y="278.483454" style="fill: #4c72b0; stroke: #1a1a1a"/>
     <use xlink:href="#mff0b9fad02" x="180.05203" y="265.211571" style="fill: #4c72b0; stroke: #1a1a1a"/>
     <use xlink:href="#mff0b9fad02" x="270.663316" y="264.215165" style="fill: #4c72b0; stroke: #1a1a1a"/>
     <use xlink:href="#mff0b9fad02" x="361.274601" y="263.741717" style="fill: #4c72b0; stroke: #1a1a1a"/>
     <use xlink:href="#mff0b9fad02" x="451.885886" y="266.929762" style="fill: #4c72b0; stroke: #1a1a1a"/>
     <use xlink:href="#mff0b9fad02" x="542.497171" y="264.549313" style="fill: #4c72b0; stroke: #1a1a1a"/>
    </g>
   </g>
   <g id="line2d_17">
    <g clip-path="url(#pe44b90943f)">
     <use xlink:href="#mff0b9fad02" x="89.440745" y="278.128048" style="fill: #4c72b0; stroke: #1a1a1a"/>
     <use xlink:href="#mff0b9fad02" x="180.05203" y="264.128286" style="fill: #4c72b0; stroke: #1a1a1a"/>
     <use xlink:href="#mff0b9fad02" x="270.663316" y="262.42839" style="fill: #4c72b0; stroke: #1a1a1a"/>
     <use xlink:href="#mff0b9fad02" x="361.274601" y="259.651403" style="fill: #4c72b0; stroke: #1a1a1a"/>
     <use xlink:href="#mff0b9fad02" x="451.885886" y="258.902829" style="fill: #4c72b0; stroke: #1a1a1a"/>
     <use xlink:href="#mff0b9fad02" x="542.497171" y="260.746039" style="fill: #4c72b0; stroke: #1a1a1a"/>
    </g>
   </g>
   <g id="LineCollection_2">
    <path d="M 107.563002 236.129529 
L 107.563002 234.08813 
" clip-path="url(#pe44b90943f)" style="fill: none; stroke: #1a1a1a"/>
    <path d="M 198.174287 193.258661 
L 198.174287 187.762613 
" clip-path="url(#pe44b90943f)" style="fill: none; stroke: #1a1a1a"/>
    <path d="M 288.785573 150.398614 
L 288.785573 137.515437 
" clip-path="url(#pe44b90943f)" style="fill: none; stroke: #1a1a1a"/>
    <path d="M 379.396858 61.390313 
L 379.396858 43.275214 
" clip-path="url(#pe44b90943f)" style="fill: none; stroke: #1a1a1a"/>
    <path d="M 470.008143 103.710532 
L 470.008143 81.708416 
" clip-path="url(#pe44b90943f)" style="fill: none; stroke: #1a1a1a"/>
    <path d="M 560.619428 63.417475 
L 560.619428 39.491523 
" clip-path="url(#pe44b90943f)" style="fill: none; stroke: #1a1a1a"/>
   </g>
   <g id="line2d_18">
    <g clip-path="url(#pe44b90943f)">
     <use xlink:href="#mff0b9fad02" x="107.563002" y="236.129529" style="fill: #4c72b0; stroke: #1a1a1a"/>
     <use xlink:href="#mff0b9fad02" x="198.174287" y="193.258661" style="fill: #4c72b0; stroke: #1a1a1a"/>
     <use xlink:href="#mff0b9fad02" x="288.785573" y="150.398614" style="fill: #4c72b0; stroke: #1a1a1a"/>
     <use xlink:href="#mff0b9fad02" x="379.396858" y="61.390313" style="fill: #4c72b0; stroke: #1a1a1a"/>
     <use xlink:href="#mff0b9fad02" x="470.008143" y="103.710532" style="fill: #4c72b0; stroke: #1a1a1a"/>
     <use xlink:href="#mff0b9fad02" x="560.619428" y="63.417475" style="fill: #4c72b0; stroke: #1a1a1a"/>
    </g>
   </g>
   <g id="line2d_19">
    <g clip-path="url(#pe44b90943f)">
     <use xlink:href="#mff0b9fad02" x="107.563002" y="234.08813" style="fill: #4c72b0; stroke: #1a1a1a"/>
     <use xlink:href="#mff0b9fad02" x="198.174287" y="187.762613" style="fill: #4c72b0; stroke: #1a1a1a"/>
     <use xlink:href="#mff0b9fad02" x="288.785573" y="137.515437" style="fill: #4c72b0; stroke: #1a1a1a"/>
     <use xlink:href="#mff0b9fad02" x="379.396858" y="43.275214" style="fill: #4c72b0; stroke: #1a1a1a"/>
     <use xlink:href="#mff0b9fad02" x="470.008143" y="81.708416" style="fill: #4c72b0; stroke: #1a1a1a"/>
     <use xlink:href="#mff0b9fad02" x="560.619428" y="39.491523" style="fill: #4c72b0; stroke: #1a1a1a"/>
    </g>
   </g>
   <g id="LineCollection_3">
    <path d="M 125.685259 259.888623 
L 125.685259 258.998621 
" clip-path="url(#pe44b90943f)" style="fill: none; stroke: #1a1a1a"/>
    <path d="M 216.296544 253.788458 
L 216.296544 250.945095 
" clip-path="url(#pe44b90943f)" style="fill: none; stroke: #1a1a1a"/>
    <path d="M 306.90783 252.770255 
L 306.90783 250.605289 
" clip-path="url(#pe44b90943f)" style="fill: none; stroke: #1a1a1a"/>
    <path d="M 397.519115 252.759019 
L 397.519115 249.023674 
" clip-path="url(#pe44b90943f)" style="fill: none; stroke: #1a1a1a"/>
    <path d="M 488.1304 254.20914 
L 488.1304 250.100105 
" clip-path="url(#pe44b90943f)" style="fill: none; stroke: #1a1a1a"/>
    <path d="M 578.741685 252.612752 
L 578.741685 248.88645 
" clip-path="url(#pe44b90943f)" style="fill: none; stroke: #1a1a1a"/>
   </g>
   <g id="line2d_20">
    <g clip-path="url(#pe44b90943f)">
     <use xlink:href="#mff0b9fad02" x="125.685259" y="259.888623" style="fill: #4c72b0; stroke: #1a1a1a"/>
     <use xlink:href="#mff0b9fad02" x="216.296544" y="253.788458" style="fill: #4c72b0; stroke: #1a1a1a"/>
     <use xlink:href="#mff0b9fad02" x="306.90783" y="252.770255" style="fill: #4c72b0; stroke: #1a1a1a"/>
     <use xlink:href="#mff0b9fad02" x="397.519115" y="252.759019" style="fill: #4c72b0; stroke: #1a1a1a"/>
     <use xlink:href="#mff0b9fad02" x="488.1304" y="254.20914" style="fill: #4c72b0; stroke: #1a1a1a"/>
     <use xlink:href="#mff0b9fad02" x="578.741685" y="252.612752" style="fill: #4c72b0; stroke: #1a1a1a"/>
    </g>
   </g>
   <g id="line2d_21">
    <g clip-path="url(#pe44b90943f)">
     <use xlink:href="#mff0b9fad02" x="125.685259" y="258.998621" style="fill: #4c72b0; stroke: #1a1a1a"/>
     <use xlink:href="#mff0b9fad02" x="216.296544" y="250.945095" style="fill: #4c72b0; stroke: #1a1a1a"/>
     <use xlink:href="#mff0b9fad02" x="306.90783" y="250.605289" style="fill: #4c72b0; stroke: #1a1a1a"/>
     <use xlink:href="#mff0b9fad02" x="397.519115" y="249.023674" style="fill: #4c72b0; stroke: #1a1a1a"/>
     <use xlink:href="#mff0b9fad02" x="488.1304" y="250.100105" style="fill: #4c72b0; stroke: #1a1a1a"/>
     <use xlink:href="#mff0b9fad02" x="578.741685" y="248.88645" style="fill: #4c72b0; stroke: #1a1a1a"/>
    </g>
   </g>
   <g id="LineCollection_4">
    <path d="M 143.807516 274.436205 
L 143.807516 273.806483 
" clip-path="url(#pe44b90943f)" style="fill: none; stroke: #1a1a1a"/>
    <path d="M 234.418801 274.376725 
L 234.418801 273.818982 
" clip-path="url(#pe44b90943f)" style="fill: none; stroke: #1a1a1a"/>
    <path d="M 325.030087 274.260122 
L 325.030087 272.937668 
" clip-path="url(#pe44b90943f)" style="fill: none; stroke: #1a1a1a"/>
    <path d="M 415.641372 274.430828 
L 415.641372 272.439964 
" clip-path="url(#pe44b90943f)" style="fill: none; stroke: #1a1a1a"/>
    <path d="M 506.252657 274.309019 
L 506.252657 272.494533 
" clip-path="url(#pe44b90943f)" style="fill: none; stroke: #1a1a1a"/>
    <path d="M 596.863942 274.438863 
L 596.863942 272.210448 
" clip-path="url(#pe44b90943f)" style="fill: none; stroke: #1a1a1a"/>
   </g>
   <g id="line2d_22">
    <g clip-path="url(#pe44b90943f)">
     <use xlink:href="#mff0b9fad02" x="143.807516" y="274.436205" style="fill: #4c72b0; stroke: #1a1a1a"/>
     <use xlink:href="#mff0b9fad02" x="234.418801" y="274.376725" style="fill: #4c72b0; stroke: #1a1a1a"/>
     <use xlink:href="#mff0b9fad02" x="325.030087" y="274.260122" style="fill: #4c72b0; stroke: #1a1a1a"/>
     <use xlink:href="#mff0b9fad02" x="415.641372" y="274.430828" style="fill: #4c72b0; stroke: #1a1a1a"/>
     <use xlink:href="#mff0b9fad02" x="506.252657" y="274.309019" style="fill: #4c72b0; stroke: #1a1a1a"/>
     <use xlink:href="#mff0b9fad02" x="596.863942" y="274.438863" style="fill: #4c72b0; stroke: #1a1a1a"/>
    </g>
   </g>
   <g id="line2d_23">
    <g clip-path="url(#pe44b90943f)">
     <use xlink:href="#mff0b9fad02" x="143.807516" y="273.806483" style="fill: #4c72b0; stroke: #1a1a1a"/>
     <use xlink:href="#mff0b9fad02" x="234.418801" y="273.818982" style="fill: #4c72b0; stroke: #1a1a1a"/>
     <use xlink:href="#mff0b9fad02" x="325.030087" y="272.937668" style="fill: #4c72b0; stroke: #1a1a1a"/>
     <use xlink:href="#mff0b9fad02" x="415.641372" y="272.439964" style="fill: #4c72b0; stroke: #1a1a1a"/>
     <use xlink:href="#mff0b9fad02" x="506.252657" y="272.494533" style="fill: #4c72b0; stroke: #1a1a1a"/>
     <use xlink:href="#mff0b9fad02" x="596.863942" y="272.210448" style="fill: #4c72b0; stroke: #1a1a1a"/>
    </g>
   </g>
   <g id="patch_27">
    <path d="M 54.102344 293.446983 
L 54.102344 26.79375 
" style="fill: none; stroke: #cccccc; stroke-width: 1.25; stroke-linejoin: miter; stroke-linecap: square"/>
   </g>
   <g id="patch_28">
    <path d="M 632.202344 293.446983 
L 632.202344 26.79375 
" style="fill: none; stroke: #cccccc; stroke-width: 1.25; stroke-linejoin: miter; stroke-linecap: square"/>
   </g>
   <g id="patch_29">
    <path d="M 54.102344 293.446983 
L 632.202344 293.446983 
" style="fill: none; stroke: #cccccc; stroke-width: 1.25; stroke-linejoin: miter; stroke-linecap: square"/>
   </g>
   <g id="patch_30">
    <path d="M 54.102344 26.79375 
L 632.202344 26.79375 
" style="fill: none; stroke: #cccccc; stroke-width: 1.25; stroke-linejoin: miter; stroke-linecap: square"/>
   </g>
   <g id="text_18">
    <!-- Encode Array — Median Latency by Library -->
    <g style="fill: #262626" transform="translate(206.508125 20.79375) scale(0.13 -0.13)">
     <defs>
      <path id="Inter-Bold-45" d="M 405 0 
L 3550 0 
L 3550 811 
L 1389 811 
L 1389 1923 
L 3380 1923 
L 3380 2734 
L 1389 2734 
L 1389 3843 
L 3541 3843 
L 3541 4655 
L 405 4655 
L 405 0 
z
" transform="scale(0.015625)"/>
      <path id="Inter-Bold-6e" d="M 1355 2018 
C 1357 2468 1625 2732 2016 2732 
C 2405 2732 2639 2477 2636 2050 
L 2636 0 
L 3605 0 
L 3605 2223 
C 3605 3036 3127 3536 2400 3536 
C 1882 3536 1507 3282 1350 2875 
L 1309 2875 
L 1309 3491 
L 386 3491 
L 386 0 
L 1355 0 
L 1355 2018 
z
" transform="scale(0.015625)"/>
      <path id="Inter-Bold-63" d="M 1964 -68 
C 2893 -68 3477 477 3523 1280 
L 2609 1280 
C 2552 907 2307 698 1975 698 
C 1523 698 1230 1077 1230 1745 
C 1230 2405 1525 2782 1975 2782 
C 2330 2782 2557 2548 2609 2200 
L 3523 2200 
C 3482 3007 2871 3536 1959 3536 
C 900 3536 246 2802 246 1732 
C 246 670 889 -68 1964 -68 
z
" transform="scale(0.015625)"/>
      <path id="Inter-Bold-6f" d="M 1964 -68 
C 3023 -68 3682 657 3682 1732 
C 3682 2814 3023 3536 1964 3536 
C 905 3536 246 2814 246 1732 
C 246 657 905 -68 1964 -68 
z
M 1968 682 
C 1480 682 1230 1130 1230 1739 
C 1230 2348 1480 2798 1968 2798 
C 2448 2798 2698 2348 2698 1739 
C 2698 1130 2448 682 1968 682 
z
" transform="scale(0.015625)"/>
      <path id="Inter-Bold-64" d="M 1673 -57 
C 2236 -57 2530 268 2664 559 
L 2705 559 
L 2705 0 
L 3659 0 
L 3659 4655 
L 2693 4655 
L 2693 2905 
L 2664 2905 
C 2534 3189 2255 3536 1671 3536 
C 905 3536 257 2941 257 1741 
C 257 573 877 -57 1673 -57 
z
M 1980 714 
C 1505 714 1246 1136 1246 1745 
C 1246 2350 1500 2766 1980 2766 
C 2450 2766 2714 2368 2714 1745 
C 2714 1123 2446 714 1980 714 
z
" transform="scale(0.015625)"/>
      <path id="Inter-Bold-65" d="M 1977 -68 
C 2841 -68 3423 352 3559 1000 
L 2664 1059 
C 2566 793 2316 655 1993 655 
C 1509 655 1202 975 1202 1495 
L 1202 1498 
L 3580 1498 
L 3580 1764 
C 3580 2950 2861 3536 1939 3536 
C 911 3536 246 2807 246 1730 
C 246 623 902 -68 1977 -68 
z
M 1202 2098 
C 1223 2495 1525 2814 1955 2814 
C 2375 2814 2666 2514 2668 2098 
L 1202 2098 
z
" transform="scale(0.015625)"/>
      <path id="Inter-Bold-20" transform="scale(0.015625)"/>
      <path id="Inter-Bold-41" d="M 1207 0 
L 1552 1061 
L 3232 1061 
L 3577 0 
L 4632 0 
L 3027 4655 
L 1759 4655 
L 152 0 
L 1207 0 
z
M 1802 1830 
L 2375 3591 
L 2411 3591 
L 2984 1830 
L 1802 1830 
z
" transform="scale(0.015625)"/>
      <path id="Inter-Bold-72" d="M 386 0 
L 1355 0 
L 1355 1975 
C 1355 2405 1668 2700 2096 2700 
C 2230 2700 2414 2677 2505 2648 
L 2505 3507 
C 2418 3527 2298 3541 2200 3541 
C 1809 3541 1489 3314 1361 2882 
L 1325 2882 
L 1325 3491 
L 386 3491 
L 386 0 
z
" transform="scale(0.015625)"/>
      <path id="Inter-Bold-61" d="M 1382 -66 
C 1898 -66 2232 159 2402 484 
L 2430 484 
L 2430 0 
L 3348 0 
L 3348 2355 
C 3348 3186 2643 3536 1866 3536 
C 1030 3536 480 3136 346 2500 
L 1241 2427 
C 1307 2659 1514 2830 1861 2830 
C 2191 2830 2380 2664 2380 2377 
L 2380 2364 
C 2380 2139 2141 2109 1534 2050 
C 843 1986 223 1755 223 975 
C 223 284 716 -66 1382 -66 
z
M 1659 602 
C 1361 602 1148 741 1148 1007 
C 1148 1280 1373 1414 1714 1461 
C 1925 1491 2271 1541 2386 1618 
L 2386 1248 
C 2386 882 2084 602 1659 602 
z
" transform="scale(0.015625)"/>
      <path id="Inter-Bold-79" d="M 984 -1309 
C 1705 -1309 2086 -941 2284 -377 
L 3641 3491 
L 2616 3491 
L 1886 927 
L 1850 927 
L 1127 3491 
L 109 3491 
L 1361 -100 
L 1305 -248 
C 1177 -575 934 -591 593 -486 
L 375 -1209 
C 514 -1268 739 -1309 984 -1309 
z
" transform="scale(0.015625)"/>
      <path id="Inter-Bold-2014" d="M 6400 2295 
L 0 2295 
L 0 1527 
L 6400 1527 
L 6400 2295 
z
" transform="scale(0.015625)"/>
      <path id="Inter-Bold-4d" d="M 405 4655 
L 405 0 
L 1359 0 
L 1359 3041 
L 1398 3041 
L 2602 23 
L 3252 23 
L 4457 3030 
L 4496 3030 
L 4496 0 
L 5450 0 
L 5450 4655 
L 4236 4655 
L 2955 1527 
L 2900 1527 
L 1618 4655 
L 405 4655 
z
" transform="scale(0.015625)"/>
      <path id="Inter-Bold-69" d="M 386 0 
L 1355 0 
L 1355 3491 
L 386 3491 
L 386 0 
z
M 873 3941 
C 1161 3941 1398 4161 1398 4432 
C 1398 4700 1161 4920 873 4920 
C 586 4920 350 4700 350 4432 
C 350 4161 586 3941 873 3941 
z
" transform="scale(0.015625)"/>
      <path id="Inter-Bold-4c" d="M 405 0 
L 3384 0 
L 3384 811 
L 1389 811 
L 1389 4655 
L 405 4655 
L 405 0 
z
" transform="scale(0.015625)"/>
      <path id="Inter-Bold-74" d="M 2243 3491 
L 1586 3491 
L 1586 4327 
L 618 4327 
L 618 3491 
L 141 3491 
L 141 2764 
L 618 2764 
L 618 945 
C 614 261 1080 -77 1782 -48 
C 2032 -39 2209 11 2307 43 
L 2155 764 
C 2107 755 2005 732 1914 732 
C 1721 732 1586 805 1586 1073 
L 1586 2764 
L 2243 2764 
L 2243 3491 
z
" transform="scale(0.015625)"/>
      <path id="Inter-Bold-62" d="M 405 0 
L 1359 0 
L 1359 559 
L 1402 559 
C 1536 268 1830 -57 2393 -57 
C 3189 -57 3809 573 3809 1741 
C 3809 2941 3161 3536 2396 3536 
C 1811 3536 1532 3189 1402 2905 
L 1373 2905 
L 1373 4655 
L 405 4655 
L 405 0 
z
M 1352 1745 
C 1352 2368 1616 2766 2086 2766 
C 2566 2766 2821 2350 2821 1745 
C 2821 1136 2561 714 2086 714 
C 1621 714 1352 1123 1352 1745 
z
" transform="scale(0.015625)"/>
     </defs>
     <use xlink:href="#Inter-Bold-45"/>
     <use xlink:href="#Inter-Bold-6e" transform="translate(61.257111 0)"/>
     <use xlink:href="#Inter-Bold-63" transform="translate(123.437515 0)"/>
     <use xlink:href="#Inter-Bold-6f" transform="translate(182.173325 0)"/>
     <use xlink:href="#Inter-Bold-64" transform="translate(243.536972 0)"/>
     <use xlink:href="#Inter-Bold-65" transform="translate(307.066818 0)"/>
     <use xlink:href="#Inter-Bold-20" transform="translate(366.832458 0)"/>
     <use xlink:href="#Inter-Bold-41" transform="translate(390.021378 0)"/>
     <use xlink:href="#Inter-Bold-72" transform="translate(464.808319 0)"/>
     <use xlink:href="#Inter-Bold-72" transform="translate(505.6819 0)"/>
     <use xlink:href="#Inter-Bold-61" transform="translate(546.555481 0)"/>
     <use xlink:href="#Inter-Bold-79" transform="translate(604.581055 0)"/>
     <use xlink:href="#Inter-Bold-20" transform="translate(663.17482 0)"/>
     <use xlink:href="#Inter-Bold-2014" transform="translate(686.363739 0)"/>
     <use xlink:href="#Inter-Bold-20" transform="translate(786.36377 0)"/>
     <use xlink:href="#Inter-Bold-4d" transform="translate(809.552689 0)"/>
     <use xlink:href="#Inter-Bold-65" transform="translate(901.029984 0)"/>
     <use xlink:href="#Inter-Bold-64" transform="translate(960.795624 0)"/>
     <use xlink:href="#Inter-Bold-69" transform="translate(1024.32547 0)"/>
     <use xlink:href="#Inter-Bold-61" transform="translate(1051.527176 0)"/>
     <use xlink:href="#Inter-Bold-6e" transform="translate(1109.55275 0)"/>
     <use xlink:href="#Inter-Bold-20" transform="translate(1171.733154 0)"/>
     <use xlink:href="#Inter-Bold-4c" transform="translate(1194.922073 0)"/>
     <use xlink:href="#Inter-Bold-61" transform="translate(1251.66925 0)"/>
     <use xlink:href="#Inter-Bold-74" transform="translate(1309.694824 0)"/>
     <use xlink:href="#Inter-Bold-65" transform="translate(1348.544266 0)"/>
     <use xlink:href="#Inter-Bold-6e" transform="translate(1408.309906 0)"/>
     <use xlink:href="#Inter-Bold-63" transform="translate(1470.490311 0)"/>
     <use xlink:href="#Inter-Bold-79" transform="translate(1529.22612 0)"/>
     <use xlink:href="#Inter-Bold-20" transform="translate(1587.819885 0)"/>
     <use xlink:href="#Inter-Bold-62" transform="translate(1611.008804 0)"/>
     <use xlink:href="#Inter-Bold-79" transform="translate(1674.538651 0)"/>
     <use xlink:href="#Inter-Bold-20" transform="translate(1733.132416 0)"/>
     <use xlink:href="#Inter-Bold-4c" transform="translate(1756.321335 0)"/>
     <use xlink:href="#Inter-Bold-69" transform="translate(1813.068512 0)"/>
     <use xlink:href="#Inter-Bold-62" transform="translate(1840.270218 0)"/>
     <use xlink:href="#Inter-Bold-72" transform="translate(1903.800064 0)"/>
     <use xlink:href="#Inter-Bold-61" transform="translate(1944.673645 0)"/>
     <use xlink:href="#Inter-Bold-72" transform="translate(2002.699219 0)"/>
     <use xlink:href="#Inter-Bold-79" transform="translate(2043.5728 0)"/>
    </g>
   </g>
   <g id="legend_1">
    <g id="patch_31">
     <path d="M 60.402344 85.745156 
L 121.046875 85.745156 
Q 122.846875 85.745156 122.846875 83.945156 
L 122.846875 33.09375 
Q 122.846875 31.29375 121.046875 31.29375 
L 60.402344 31.29375 
Q 58.602344 31.29375 58.602344 33.09375 
L 58.602344 83.945156 
Q 58.602344 85.745156 60.402344 85.745156 
z
" style="fill: #ffffff; opacity: 0.9; stroke: #cccccc; stroke-linejoin: miter"/>
    </g>
    <g id="patch_32">
     <path d="M 62.202344 41.64375 
L 80.202344 41.64375 
L 80.202344 35.34375 
L 62.202344 35.34375 
z
" style="fill: #16a34a; opacity: 0.85; stroke: #ffffff; stroke-linejoin: miter"/>
    </g>
    <g id="text_19">
     <!-- bijou64 -->
     <g style="fill: #262626" transform="translate(87.402344 41.64375) scale(0.09 -0.09)">
      <defs>
       <path id="Inter-Regular-6a" d="M 491 3491 
L 491 -255 
C 491 -609 346 -809 18 -809 
L -82 -809 
L -82 -1309 
L 27 -1309 
C 700 -1309 1027 -900 1027 -255 
L 1027 3491 
L 491 3491 
z
M 755 4073 
C 964 4073 1136 4236 1136 4436 
C 1136 4636 964 4800 755 4800 
C 546 4800 373 4636 373 4436 
C 373 4236 546 4073 755 4073 
z
" transform="scale(0.015625)"/>
       <path id="Inter-Regular-36" d="M 2027 -64 
C 2968 -75 3582 634 3582 1500 
C 3582 2400 2916 3045 2118 3045 
C 1639 3045 1227 2811 973 2427 
L 936 2427 
C 939 3561 1380 4218 2100 4218 
C 2591 4218 2886 3909 2991 3491 
L 3546 3491 
C 3432 4214 2882 4718 2100 4718 
C 1052 4718 409 3791 409 2145 
C 409 425 1264 -55 2027 -64 
z
M 2027 436 
C 1443 436 1016 934 1018 1491 
C 1021 2048 1468 2545 2046 2545 
C 2616 2545 3036 2077 3036 1500 
C 3036 909 2598 436 2027 436 
z
" transform="scale(0.015625)"/>
       <path id="Inter-Regular-34" d="M 373 955 
L 2564 955 
L 2564 0 
L 3100 0 
L 3100 955 
L 3736 955 
L 3736 1455 
L 3100 1455 
L 3100 4655 
L 2418 4655 
L 373 1418 
L 373 955 
z
M 2564 1455 
L 982 1455 
L 982 1491 
L 2527 3936 
L 2564 3936 
L 2564 1455 
z
" transform="scale(0.015625)"/>
      </defs>
      <use xlink:href="#Inter-Regular-62"/>
      <use xlink:href="#Inter-Regular-69" transform="translate(62.073883 0)"/>
      <use xlink:href="#Inter-Regular-6a" transform="translate(85.795471 0)"/>
      <use xlink:href="#Inter-Regular-6f" transform="translate(109.517059 0)"/>
      <use xlink:href="#Inter-Regular-75" transform="translate(169.176163 0)"/>
      <use xlink:href="#Inter-Regular-36" transform="translate(227.272766 0)"/>
      <use xlink:href="#Inter-Regular-34" transform="translate(289.630737 0)"/>
     </g>
    </g>
    <g id="patch_33">
     <path d="M 62.202344 54.530625 
L 80.202344 54.530625 
L 80.202344 48.230625 
L 62.202344 48.230625 
z
" style="fill: #d97706; opacity: 0.85; stroke: #ffffff; stroke-linejoin: miter"/>
    </g>
    <g id="text_20">
     <!-- varu64 -->
     <g style="fill: #262626" transform="translate(87.402344 54.530625) scale(0.09 -0.09)">
      <defs>
       <path id="Inter-Regular-76" d="M 3346 3491 
L 2764 3491 
L 1800 709 
L 1764 709 
L 800 3491 
L 218 3491 
L 1509 0 
L 2055 0 
L 3346 3491 
z
" transform="scale(0.015625)"/>
      </defs>
      <use xlink:href="#Inter-Regular-76"/>
      <use xlink:href="#Inter-Regular-61" transform="translate(55.681824 0)"/>
      <use xlink:href="#Inter-Regular-72" transform="translate(112.073883 0)"/>
      <use xlink:href="#Inter-Regular-75" transform="translate(149.289795 0)"/>
      <use xlink:href="#Inter-Regular-36" transform="translate(207.386398 0)"/>
      <use xlink:href="#Inter-Regular-34" transform="translate(269.74437 0)"/>
     </g>
    </g>
    <g id="patch_34">
     <path d="M 62.202344 67.4175 
L 80.202344 67.4175 
L 80.202344 61.1175 
L 62.202344 61.1175 
z
" style="fill: #2563eb; opacity: 0.85; stroke: #ffffff; stroke-linejoin: miter"/>
    </g>
    <g id="text_21">
     <!-- vu128 -->
     <g style="fill: #262626" transform="translate(87.402344 67.4175) scale(0.09 -0.09)">
      <defs>
       <path id="Inter-Regular-38" d="M 1973 -64 
C 2902 -64 3550 480 3555 1236 
C 3550 1825 3157 2325 2655 2418 
L 2655 2445 
C 3091 2559 3377 2986 3382 3482 
C 3377 4191 2782 4718 1973 4718 
C 1155 4718 559 4191 564 3482 
C 559 2986 846 2559 1291 2445 
L 1291 2418 
C 780 2325 386 1825 391 1236 
C 386 480 1034 -64 1973 -64 
z
M 1973 436 
C 1334 436 941 764 946 1264 
C 941 1789 1375 2164 1973 2164 
C 2561 2164 2996 1789 3000 1264 
C 2996 764 2602 436 1973 436 
z
M 1973 2645 
C 1464 2645 1105 2964 1109 3445 
C 1105 3918 1450 4227 1973 4227 
C 2486 4227 2832 3918 2836 3445 
C 2832 2964 2473 2645 1973 2645 
z
" transform="scale(0.015625)"/>
      </defs>
      <use xlink:href="#Inter-Regular-76"/>
      <use xlink:href="#Inter-Regular-75" transform="translate(55.681824 0)"/>
      <use xlink:href="#Inter-Regular-31" transform="translate(113.778427 0)"/>
      <use xlink:href="#Inter-Regular-32" transform="translate(160.227295 0)"/>
      <use xlink:href="#Inter-Regular-38" transform="translate(220.738678 0)"/>
     </g>
    </g>
    <g id="patch_35">
     <path d="M 62.202344 80.304375 
L 80.202344 80.304375 
L 80.202344 74.004375 
L 62.202344 74.004375 
z
" style="fill: #dc2626; opacity: 0.85; stroke: #ffffff; stroke-linejoin: miter"/>
    </g>
    <g id="text_22">
     <!-- vu64 -->
     <g style="fill: #262626" transform="translate(87.402344 80.304375) scale(0.09 -0.09)">
      <use xlink:href="#Inter-Regular-76"/>
      <use xlink:href="#Inter-Regular-75" transform="translate(55.681824 0)"/>
      <use xlink:href="#Inter-Regular-36" transform="translate(113.778427 0)"/>
      <use xlink:href="#Inter-Regular-34" transform="translate(176.136398 0)"/>
     </g>
    </g>
   </g>
  </g>
 </g>
 <defs>
  <clipPath id="pe44b90943f">
   <rect x="54.102344" y="26.79375" width="578.1" height="266.653233"/>
  </clipPath>
 </defs>
</svg>
