<?xml version="1.0" encoding="utf-8" standalone="no"?>
<!DOCTYPE svg PUBLIC "-//W3C//DTD SVG 1.1//EN"
  "http://www.w3.org/Graphics/SVG/1.1/DTD/svg11.dtd">
<svg xmlns:xlink="http://www.w3.org/1999/xlink" width="642.983594pt" height="355.480855pt" viewBox="0 0 642.983594 355.480855" xmlns="http://www.w3.org/2000/svg" version="1.1">
 <metadata>
  <rdf:RDF xmlns:dc="http://purl.org/dc/elements/1.1/" xmlns:cc="http://creativecommons.org/ns#" xmlns:rdf="http://www.w3.org/1999/02/22-rdf-syntax-ns#">
   <cc:Work>
    <dc:type rdf:resource="http://purl.org/dc/dcmitype/StillImage"/>
    <dc:date>2026-03-11T11:59:47.588055</dc:date>
    <dc:format>image/svg+xml</dc:format>
    <dc:creator>
     <cc:Agent>
      <dc:title>Matplotlib v3.10.5, https://matplotlib.org/</dc:title>
     </cc:Agent>
    </dc:creator>
   </cc:Work>
  </rdf:RDF>
 </metadata>
 <defs>
  <style type="text/css">*{stroke-linejoin: round; stroke-linecap: butt}</style>
 </defs>
 <g id="figure_1">
  <g id="patch_1">
   <path d="M 0 355.480855 
L 642.983594 355.480855 
L 642.983594 0 
L 0 0 
z
" style="fill: #ffffff"/>
  </g>
  <g id="axes_1">
   <g id="patch_2">
    <path d="M 40.703594 296.746983 
L 632.183594 296.746983 
L 632.183594 26.79375 
L 40.703594 26.79375 
z
" style="fill: #ffffff"/>
   </g>
   <g id="matplotlib.axis_1">
    <g id="xtick_1">
     <g id="line2d_1">
      <path d="M 104.672434 296.746983 
L 104.672434 26.79375 
" clip-path="url(#p9e2a315f1f)" style="fill: none; stroke: #cccccc; stroke-linecap: round"/>
     </g>
     <g id="text_1">
      <!-- large -->
      <g style="fill: #262626" transform="translate(85.267364 322.558566) rotate(-30) scale(0.09 -0.09)">
       <defs>
        <path id="Inter-Regular-6c" d="M 1027 4655 
L 491 4655 
L 491 0 
L 1027 0 
L 1027 4655 
z
" transform="scale(0.015625)"/>
        <path id="Inter-Regular-61" d="M 1518 -82 
C 2127 -82 2446 245 2555 473 
L 2582 473 
L 2582 0 
L 3118 0 
L 3118 2300 
C 3118 3409 2273 3536 1827 3536 
C 1300 3536 700 3355 427 2718 
L 936 2536 
C 1055 2791 1334 3064 1846 3064 
C 2339 3064 2582 2802 2582 2355 
L 2582 2336 
C 2582 2077 2318 2100 1682 2018 
C 1034 1934 327 1791 327 991 
C 327 309 855 -82 1518 -82 
z
M 1600 400 
C 1173 400 864 591 864 964 
C 864 1373 1236 1500 1655 1555 
C 1882 1582 2491 1645 2582 1755 
L 2582 1264 
C 2582 827 2236 400 1600 400 
z
" transform="scale(0.015625)"/>
        <path id="Inter-Regular-72" d="M 491 0 
L 1027 0 
L 1027 2209 
C 1027 2682 1400 3027 1909 3027 
C 2052 3027 2200 3000 2236 2991 
L 2236 3536 
C 2175 3541 2034 3545 1955 3545 
C 1536 3545 1173 3309 1046 2964 
L 1009 2964 
L 1009 3491 
L 491 3491 
L 491 0 
z
" transform="scale(0.015625)"/>
        <path id="Inter-Regular-67" d="M 1900 -1382 
C 2736 -1382 3409 -1000 3409 -100 
L 3409 3491 
L 2891 3491 
L 2891 2936 
L 2836 2936 
C 2718 3118 2500 3536 1818 3536 
C 936 3536 327 2836 327 1764 
C 327 673 964 55 1809 55 
C 2491 55 2709 455 2827 645 
L 2873 645 
L 2873 -64 
C 2873 -645 2464 -909 1900 -909 
C 1266 -909 1043 -575 900 -382 
L 473 -682 
C 691 -1048 1121 -1382 1900 -1382 
z
M 1882 536 
C 1209 536 864 1045 864 1773 
C 864 2482 1200 3055 1882 3055 
C 2536 3055 2882 2527 2882 1773 
C 2882 1000 2527 536 1882 536 
z
" transform="scale(0.015625)"/>
        <path id="Inter-Regular-65" d="M 1955 -73 
C 2664 -73 3182 282 3346 809 
L 2827 955 
C 2691 591 2375 409 1955 409 
C 1325 409 891 816 866 1564 
L 3400 1564 
L 3400 1791 
C 3400 3091 2627 3536 1900 3536 
C 955 3536 327 2791 327 1718 
C 327 645 946 -73 1955 -73 
z
M 866 2027 
C 902 2570 1286 3055 1900 3055 
C 2482 3055 2855 2618 2855 2027 
L 866 2027 
z
" transform="scale(0.015625)"/>
       </defs>
       <use xlink:href="#Inter-Regular-6c"/>
       <use xlink:href="#Inter-Regular-61" transform="translate(23.721588 0)"/>
       <use xlink:href="#Inter-Regular-72" transform="translate(80.113647 0)"/>
       <use xlink:href="#Inter-Regular-67" transform="translate(117.329559 0)"/>
       <use xlink:href="#Inter-Regular-65" transform="translate(178.267075 0)"/>
      </g>
     </g>
    </g>
    <g id="xtick_2">
     <g id="line2d_2">
      <path d="M 197.380898 296.746983 
L 197.380898 26.79375 
" clip-path="url(#p9e2a315f1f)" style="fill: none; stroke: #cccccc; stroke-linecap: round"/>
     </g>
     <g id="text_2">
      <!-- medium -->
      <g style="fill: #262626" transform="translate(167.154208 328.836066) rotate(-30) scale(0.09 -0.09)">
       <defs>
        <path id="Inter-Regular-6d" d="M 491 0 
L 1027 0 
L 1027 2182 
C 1027 2693 1400 3055 1818 3055 
C 2225 3055 2509 2789 2509 2391 
L 2509 0 
L 3055 0 
L 3055 2273 
C 3055 2723 3336 3055 3827 3055 
C 4209 3055 4536 2852 4536 2336 
L 4536 0 
L 5073 0 
L 5073 2336 
C 5073 3157 4632 3536 4009 3536 
C 3509 3536 3143 3307 2964 2945 
L 2927 2945 
C 2755 3318 2450 3536 1991 3536 
C 1536 3536 1200 3318 1055 2945 
L 1009 2945 
L 1009 3491 
L 491 3491 
L 491 0 
z
" transform="scale(0.015625)"/>
        <path id="Inter-Regular-64" d="M 1809 -73 
C 2482 -73 2709 345 2827 536 
L 2891 536 
L 2891 0 
L 3409 0 
L 3409 4655 
L 2873 4655 
L 2873 2936 
L 2827 2936 
C 2709 3118 2500 3536 1818 3536 
C 936 3536 327 2836 327 1736 
C 327 627 936 -73 1809 -73 
z
M 1882 409 
C 1209 409 864 1000 864 1745 
C 864 2482 1200 3055 1882 3055 
C 2536 3055 2882 2527 2882 1745 
C 2882 955 2527 409 1882 409 
z
" transform="scale(0.015625)"/>
        <path id="Inter-Regular-69" d="M 491 0 
L 1027 0 
L 1027 3491 
L 491 3491 
L 491 0 
z
M 764 4073 
C 973 4073 1146 4236 1146 4436 
C 1146 4636 973 4800 764 4800 
C 555 4800 382 4636 382 4436 
C 382 4236 555 4073 764 4073 
z
" transform="scale(0.015625)"/>
        <path id="Inter-Regular-75" d="M 2691 1427 
C 2691 773 2191 473 1791 473 
C 1346 473 1027 800 1027 1309 
L 1027 3491 
L 491 3491 
L 491 1273 
C 491 382 964 -45 1618 -45 
C 2146 -45 2491 236 2655 591 
L 2691 591 
L 2691 0 
L 3227 0 
L 3227 3491 
L 2691 3491 
L 2691 1427 
z
" transform="scale(0.015625)"/>
       </defs>
       <use xlink:href="#Inter-Regular-6d"/>
       <use xlink:href="#Inter-Regular-65" transform="translate(86.931839 0)"/>
       <use xlink:href="#Inter-Regular-64" transform="translate(145.170486 0)"/>
       <use xlink:href="#Inter-Regular-69" transform="translate(207.24437 0)"/>
       <use xlink:href="#Inter-Regular-75" transform="translate(230.965958 0)"/>
       <use xlink:href="#Inter-Regular-6d" transform="translate(289.062561 0)"/>
      </g>
     </g>
    </g>
    <g id="xtick_3">
     <g id="line2d_3">
      <path d="M 290.089362 296.746983 
L 290.089362 26.79375 
" clip-path="url(#p9e2a315f1f)" style="fill: none; stroke: #cccccc; stroke-linecap: round"/>
     </g>
     <g id="text_3">
      <!-- small -->
      <g style="fill: #262626" transform="translate(270.225342 322.853176) rotate(-30) scale(0.09 -0.09)">
       <defs>
        <path id="Inter-Regular-73" d="M 2964 2709 
C 2796 3205 2418 3536 1727 3536 
C 991 3536 446 3118 446 2527 
C 446 2045 732 1723 1373 1573 
L 1955 1436 
C 2307 1355 2473 1186 2473 945 
C 2473 645 2155 400 1655 400 
C 1216 400 941 589 846 964 
L 336 836 
C 461 243 950 -73 1664 -73 
C 2475 -73 3027 370 3027 973 
C 3027 1459 2723 1766 2100 1918 
L 1582 2045 
C 1168 2148 982 2286 982 2555 
C 982 2855 1300 3073 1727 3073 
C 2196 3073 2389 2814 2482 2573 
L 2964 2709 
z
" transform="scale(0.015625)"/>
       </defs>
       <use xlink:href="#Inter-Regular-73"/>
       <use xlink:href="#Inter-Regular-6d" transform="translate(52.272736 0)"/>
       <use xlink:href="#Inter-Regular-61" transform="translate(139.204575 0)"/>
       <use xlink:href="#Inter-Regular-6c" transform="translate(195.596634 0)"/>
       <use xlink:href="#Inter-Regular-6c" transform="translate(219.318222 0)"/>
      </g>
     </g>
    </g>
    <g id="xtick_4">
     <g id="line2d_4">
      <path d="M 382.797826 296.746983 
L 382.797826 26.79375 
" clip-path="url(#p9e2a315f1f)" style="fill: none; stroke: #cccccc; stroke-linecap: round"/>
     </g>
     <g id="text_4">
      <!-- tier -->
      <g style="fill: #262626" transform="translate(369.754974 318.914972) rotate(-30) scale(0.09 -0.09)">
       <defs>
        <path id="Inter-Regular-74" d="M 2009 3491 
L 1264 3491 
L 1264 4327 
L 727 4327 
L 727 3491 
L 200 3491 
L 200 3036 
L 727 3036 
L 727 855 
C 727 245 1218 -45 1673 -45 
C 1873 -45 2000 -9 2073 18 
L 1964 500 
C 1918 491 1846 473 1727 473 
C 1491 473 1264 545 1264 1000 
L 1264 3036 
L 2009 3036 
L 2009 3491 
z
" transform="scale(0.015625)"/>
       </defs>
       <use xlink:href="#Inter-Regular-74"/>
       <use xlink:href="#Inter-Regular-69" transform="translate(36.363647 0)"/>
       <use xlink:href="#Inter-Regular-65" transform="translate(60.085236 0)"/>
       <use xlink:href="#Inter-Regular-72" transform="translate(118.323883 0)"/>
      </g>
     </g>
    </g>
    <g id="xtick_5">
     <g id="line2d_5">
      <path d="M 475.50629 296.746983 
L 475.50629 26.79375 
" clip-path="url(#p9e2a315f1f)" style="fill: none; stroke: #cccccc; stroke-linecap: round"/>
     </g>
     <g id="text_5">
      <!-- tiny -->
      <g style="fill: #262626" transform="translate(461.000802 319.936014) rotate(-30) scale(0.09 -0.09)">
       <defs>
        <path id="Inter-Regular-6e" d="M 1027 2100 
C 1027 2709 1405 3055 1918 3055 
C 2416 3055 2718 2730 2718 2182 
L 2718 0 
L 3255 0 
L 3255 2218 
C 3255 3109 2780 3536 2073 3536 
C 1546 3536 1218 3300 1055 2945 
L 1009 2945 
L 1009 3491 
L 491 3491 
L 491 0 
L 1027 0 
L 1027 2100 
z
" transform="scale(0.015625)"/>
        <path id="Inter-Regular-79" d="M 836 -1309 
C 1321 -1309 1661 -1052 1864 -509 
L 3346 3491 
L 2764 3491 
L 1800 709 
L 1764 709 
L 800 3491 
L 218 3491 
L 1509 -18 
L 1409 -291 
C 1214 -823 973 -873 582 -773 
L 446 -1245 
C 500 -1273 655 -1309 836 -1309 
z
" transform="scale(0.015625)"/>
       </defs>
       <use xlink:href="#Inter-Regular-74"/>
       <use xlink:href="#Inter-Regular-69" transform="translate(36.363647 0)"/>
       <use xlink:href="#Inter-Regular-6e" transform="translate(60.085236 0)"/>
       <use xlink:href="#Inter-Regular-79" transform="translate(118.607971 0)"/>
      </g>
     </g>
    </g>
    <g id="xtick_6">
     <g id="line2d_6">
      <path d="M 568.214754 296.746983 
L 568.214754 26.79375 
" clip-path="url(#p9e2a315f1f)" style="fill: none; stroke: #cccccc; stroke-linecap: round"/>
     </g>
     <g id="text_6">
      <!-- uniform -->
      <g style="fill: #262626" transform="translate(539.216872 328.126613) rotate(-30) scale(0.09 -0.09)">
       <defs>
        <path id="Inter-Regular-66" d="M 2046 3491 
L 1264 3491 
L 1264 3845 
C 1264 4191 1409 4373 1764 4373 
C 1918 4373 2009 4336 2064 4318 
L 2218 4782 
C 2136 4818 1973 4873 1709 4873 
C 1209 4873 727 4573 727 3973 
L 727 3491 
L 164 3491 
L 164 3036 
L 727 3036 
L 727 0 
L 1264 0 
L 1264 3036 
L 2046 3036 
L 2046 3491 
z
" transform="scale(0.015625)"/>
        <path id="Inter-Regular-6f" d="M 1909 -73 
C 2855 -73 3491 645 3491 1727 
C 3491 2818 2855 3536 1909 3536 
C 964 3536 327 2818 327 1727 
C 327 645 964 -73 1909 -73 
z
M 1909 409 
C 1191 409 864 1027 864 1727 
C 864 2427 1191 3055 1909 3055 
C 2627 3055 2955 2427 2955 1727 
C 2955 1027 2627 409 1909 409 
z
" transform="scale(0.015625)"/>
       </defs>
       <use xlink:href="#Inter-Regular-75"/>
       <use xlink:href="#Inter-Regular-6e" transform="translate(58.096603 0)"/>
       <use xlink:href="#Inter-Regular-69" transform="translate(116.619339 0)"/>
       <use xlink:href="#Inter-Regular-66" transform="translate(140.340927 0)"/>
       <use xlink:href="#Inter-Regular-6f" transform="translate(176.420471 0)"/>
       <use xlink:href="#Inter-Regular-72" transform="translate(236.079575 0)"/>
       <use xlink:href="#Inter-Regular-6d" transform="translate(273.295486 0)"/>
      </g>
     </g>
    </g>
    <g id="text_7">
     <!-- Distribution -->
     <g style="fill: #262626" transform="translate(306.545078 342.431011) scale(0.11 -0.11)">
      <defs>
       <path id="Inter-Regular-44" d="M 2000 0 
C 3418 0 4218 882 4218 2336 
C 4218 3782 3418 4655 2064 4655 
L 564 4655 
L 564 0 
L 2000 0 
z
M 1127 500 
L 1127 4155 
L 2027 4155 
C 3118 4155 3673 3464 3673 2336 
C 3673 1200 3118 500 1964 500 
L 1127 500 
z
" transform="scale(0.015625)"/>
       <path id="Inter-Regular-62" d="M 564 0 
L 1082 0 
L 1082 536 
L 1146 536 
C 1264 345 1491 -73 2164 -73 
C 3036 -73 3646 627 3646 1736 
C 3646 2836 3036 3536 2155 3536 
C 1473 3536 1264 3118 1146 2936 
L 1100 2936 
L 1100 4655 
L 564 4655 
L 564 0 
z
M 1091 1745 
C 1091 2527 1436 3055 2091 3055 
C 2773 3055 3109 2482 3109 1745 
C 3109 1000 2764 409 2091 409 
C 1446 409 1091 955 1091 1745 
z
" transform="scale(0.015625)"/>
      </defs>
      <use xlink:href="#Inter-Regular-44"/>
      <use xlink:href="#Inter-Regular-69" transform="translate(71.875015 0)"/>
      <use xlink:href="#Inter-Regular-73" transform="translate(95.596603 0)"/>
      <use xlink:href="#Inter-Regular-74" transform="translate(147.869339 0)"/>
      <use xlink:href="#Inter-Regular-72" transform="translate(184.232986 0)"/>
      <use xlink:href="#Inter-Regular-69" transform="translate(221.448898 0)"/>
      <use xlink:href="#Inter-Regular-62" transform="translate(245.170486 0)"/>
      <use xlink:href="#Inter-Regular-75" transform="translate(307.24437 0)"/>
      <use xlink:href="#Inter-Regular-74" transform="translate(365.340973 0)"/>
      <use xlink:href="#Inter-Regular-69" transform="translate(401.70462 0)"/>
      <use xlink:href="#Inter-Regular-6f" transform="translate(425.426208 0)"/>
      <use xlink:href="#Inter-Regular-6e" transform="translate(485.085312 0)"/>
     </g>
    </g>
   </g>
   <g id="matplotlib.axis_2">
    <g id="ytick_1">
     <g id="line2d_7">
      <path d="M 40.703594 296.746983 
L 632.183594 296.746983 
" clip-path="url(#p9e2a315f1f)" style="fill: none; stroke: #cccccc; stroke-linecap: round"/>
     </g>
     <g id="text_8">
      <!-- 0 -->
      <g style="fill: #262626" transform="translate(25.578594 300.02003) scale(0.09 -0.09)">
       <defs>
        <path id="Inter-Regular-30" d="M 2000 -64 
C 3027 -64 3618 807 3618 2327 
C 3618 3836 3018 4718 2000 4718 
C 982 4718 382 3836 382 2327 
C 382 807 973 -64 2000 -64 
z
M 2000 436 
C 1323 436 927 1116 927 2327 
C 927 3536 1327 4227 2000 4227 
C 2673 4227 3073 3536 3073 2327 
C 3073 1116 2677 436 2000 436 
z
" transform="scale(0.015625)"/>
       </defs>
       <use xlink:href="#Inter-Regular-30"/>
      </g>
     </g>
    </g>
    <g id="ytick_2">
     <g id="line2d_8">
      <path d="M 40.703594 256.188878 
L 632.183594 256.188878 
" clip-path="url(#p9e2a315f1f)" style="fill: none; stroke: #cccccc; stroke-linecap: round"/>
     </g>
     <g id="text_9">
      <!-- 1 -->
      <g style="fill: #262626" transform="translate(27.022813 259.461925) scale(0.09 -0.09)">
       <defs>
        <path id="Inter-Regular-31" d="M 2118 4655 
L 1555 4655 
L 391 3882 
L 391 3309 
L 1527 4064 
L 1555 4064 
L 1555 0 
L 2118 0 
L 2118 4655 
z
" transform="scale(0.015625)"/>
       </defs>
       <use xlink:href="#Inter-Regular-31"/>
      </g>
     </g>
    </g>
    <g id="ytick_3">
     <g id="line2d_9">
      <path d="M 40.703594 215.630773 
L 632.183594 215.630773 
" clip-path="url(#p9e2a315f1f)" style="fill: none; stroke: #cccccc; stroke-linecap: round"/>
     </g>
     <g id="text_10">
      <!-- 2 -->
      <g style="fill: #262626" transform="translate(25.757188 218.90382) scale(0.09 -0.09)">
       <defs>
        <path id="Inter-Regular-32" d="M 482 0 
L 3418 0 
L 3418 500 
L 1255 500 
L 1255 536 
L 2300 1655 
C 3100 2511 3336 2911 3336 3427 
C 3336 4145 2755 4718 1936 4718 
C 1121 4718 500 4164 500 3345 
L 1036 3345 
C 1036 3875 1380 4227 1918 4227 
C 2423 4227 2809 3918 2809 3427 
C 2809 2998 2557 2680 2018 2091 
L 482 409 
L 482 0 
z
" transform="scale(0.015625)"/>
       </defs>
       <use xlink:href="#Inter-Regular-32"/>
      </g>
     </g>
    </g>
    <g id="ytick_4">
     <g id="line2d_10">
      <path d="M 40.703594 175.072669 
L 632.183594 175.072669 
" clip-path="url(#p9e2a315f1f)" style="fill: none; stroke: #cccccc; stroke-linecap: round"/>
     </g>
     <g id="text_11">
      <!-- 3 -->
      <g style="fill: #262626" transform="translate(25.475938 178.345716) scale(0.09 -0.09)">
       <defs>
        <path id="Inter-Regular-33" d="M 2055 -64 
C 2957 -64 3627 502 3627 1264 
C 3627 1855 3277 2284 2691 2382 
L 2691 2418 
C 3161 2561 3455 2948 3455 3473 
C 3455 4132 2934 4718 2073 4718 
C 1268 4718 600 4223 573 3491 
L 1118 3491 
C 1139 3955 1580 4227 2064 4227 
C 2577 4227 2909 3916 2909 3445 
C 2909 2955 2525 2636 1973 2636 
L 1600 2636 
L 1600 2136 
L 1973 2136 
C 2680 2136 3073 1777 3073 1264 
C 3073 770 2643 436 2046 436 
C 1507 436 1080 714 1046 1164 
L 473 1164 
C 507 432 1152 -64 2055 -64 
z
" transform="scale(0.015625)"/>
       </defs>
       <use xlink:href="#Inter-Regular-33"/>
      </g>
     </g>
    </g>
    <g id="ytick_5">
     <g id="line2d_11">
      <path d="M 40.703594 134.514564 
L 632.183594 134.514564 
" clip-path="url(#p9e2a315f1f)" style="fill: none; stroke: #cccccc; stroke-linecap: round"/>
     </g>
     <g id="text_12">
      <!-- 4 -->
      <g style="fill: #262626" transform="translate(25.425313 137.787611) scale(0.09 -0.09)">
       <defs>
        <path id="Inter-Regular-34" d="M 373 955 
L 2564 955 
L 2564 0 
L 3100 0 
L 3100 955 
L 3736 955 
L 3736 1455 
L 3100 1455 
L 3100 4655 
L 2418 4655 
L 373 1418 
L 373 955 
z
M 2564 1455 
L 982 1455 
L 982 1491 
L 2527 3936 
L 2564 3936 
L 2564 1455 
z
" transform="scale(0.015625)"/>
       </defs>
       <use xlink:href="#Inter-Regular-34"/>
      </g>
     </g>
    </g>
    <g id="ytick_6">
     <g id="line2d_12">
      <path d="M 40.703594 93.956459 
L 632.183594 93.956459 
" clip-path="url(#p9e2a315f1f)" style="fill: none; stroke: #cccccc; stroke-linecap: round"/>
     </g>
     <g id="text_13">
      <!-- 5 -->
      <g style="fill: #262626" transform="translate(25.731875 97.229506) scale(0.09 -0.09)">
       <defs>
        <path id="Inter-Regular-35" d="M 1936 -64 
C 2823 -64 3473 591 3473 1482 
C 3473 2384 2846 3045 1991 3045 
C 1677 3045 1373 2934 1182 2782 
L 1155 2782 
L 1318 4155 
L 3264 4155 
L 3264 4655 
L 846 4655 
L 564 2364 
L 1091 2300 
C 1284 2439 1614 2539 1900 2536 
C 2493 2532 2927 2082 2927 1473 
C 2927 875 2509 436 1936 436 
C 1459 436 1080 743 1036 1164 
L 491 1164 
C 525 455 1136 -64 1936 -64 
z
" transform="scale(0.015625)"/>
       </defs>
       <use xlink:href="#Inter-Regular-35"/>
      </g>
     </g>
    </g>
    <g id="ytick_7">
     <g id="line2d_13">
      <path d="M 40.703594 53.398355 
L 632.183594 53.398355 
" clip-path="url(#p9e2a315f1f)" style="fill: none; stroke: #cccccc; stroke-linecap: round"/>
     </g>
     <g id="text_14">
      <!-- 6 -->
      <g style="fill: #262626" transform="translate(25.59125 56.671401) scale(0.09 -0.09)">
       <defs>
        <path id="Inter-Regular-36" d="M 2027 -64 
C 2968 -75 3582 634 3582 1500 
C 3582 2400 2916 3045 2118 3045 
C 1639 3045 1227 2811 973 2427 
L 936 2427 
C 939 3561 1380 4218 2100 4218 
C 2591 4218 2886 3909 2991 3491 
L 3546 3491 
C 3432 4214 2882 4718 2100 4718 
C 1052 4718 409 3791 409 2145 
C 409 425 1264 -55 2027 -64 
z
M 2027 436 
C 1443 436 1016 934 1018 1491 
C 1021 2048 1468 2545 2046 2545 
C 2616 2545 3036 2077 3036 1500 
C 3036 909 2598 436 2027 436 
z
" transform="scale(0.015625)"/>
       </defs>
       <use xlink:href="#Inter-Regular-36"/>
      </g>
     </g>
    </g>
    <g id="text_15">
     <!-- Median time (µs), whiskers: min–p95 -->
     <g style="fill: #262626" transform="translate(19.175469 256.913491) rotate(-90) scale(0.11 -0.11)">
      <defs>
       <path id="Inter-Regular-4d" d="M 564 4655 
L 564 0 
L 1091 0 
L 1091 3536 
L 1136 3536 
L 2591 0 
L 3100 0 
L 4555 3536 
L 4600 3536 
L 4600 0 
L 5127 0 
L 5127 4655 
L 4455 4655 
L 2873 791 
L 2818 791 
L 1236 4655 
L 564 4655 
z
" transform="scale(0.015625)"/>
       <path id="Inter-Regular-20" transform="scale(0.015625)"/>
       <path id="Inter-Regular-28" d="M 682 1964 
C 682 818 991 -136 1546 -945 
L 2018 -945 
C 1582 -345 1236 882 1236 1964 
C 1236 3045 1582 4273 2018 4873 
L 1546 4873 
C 991 4064 682 3109 682 1964 
z
" transform="scale(0.015625)"/>
       <path id="Inter-Regular-b5" d="M 491 -1309 
L 1027 -1309 
L 1027 518 
L 1055 518 
C 1246 150 1602 -45 1991 -45 
C 2380 -45 2739 150 2927 518 
L 2955 518 
L 2955 0 
L 3491 0 
L 3491 3491 
L 2955 3491 
L 2955 1427 
C 2955 864 2573 473 1991 473 
C 1409 473 1027 859 1027 1427 
L 1027 3491 
L 491 3491 
L 491 -1309 
z
" transform="scale(0.015625)"/>
       <path id="Inter-Regular-29" d="M 1636 1964 
C 1636 3109 1327 4064 773 4873 
L 300 4873 
C 736 4273 1082 3045 1082 1964 
C 1082 882 736 -345 300 -945 
L 773 -945 
C 1327 -136 1636 818 1636 1964 
z
" transform="scale(0.015625)"/>
       <path id="Inter-Regular-2c" d="M 1291 636 
L 709 636 
L 682 382 
C 616 -234 486 -848 427 -1136 
L 836 -1136 
C 946 -827 1177 -127 1255 391 
L 1291 636 
z
" transform="scale(0.015625)"/>
       <path id="Inter-Regular-77" d="M 1282 0 
L 1809 0 
L 2573 2682 
L 2627 2682 
L 3391 0 
L 3918 0 
L 4982 3491 
L 4418 3491 
L 3664 827 
L 3627 827 
L 2891 3491 
L 2318 3491 
L 1573 818 
L 1536 818 
L 782 3491 
L 218 3491 
L 1282 0 
z
" transform="scale(0.015625)"/>
       <path id="Inter-Regular-68" d="M 1027 2100 
C 1027 2709 1416 3055 1946 3055 
C 2450 3055 2755 2736 2755 2182 
L 2755 0 
L 3291 0 
L 3291 2218 
C 3291 3116 2814 3536 2100 3536 
C 1550 3536 1236 3307 1073 2945 
L 1027 2945 
L 1027 4655 
L 491 4655 
L 491 0 
L 1027 0 
L 1027 2100 
z
" transform="scale(0.015625)"/>
       <path id="Inter-Regular-6b" d="M 491 0 
L 1027 0 
L 1027 1307 
L 1402 1655 
L 2709 0 
L 3391 0 
L 1807 2000 
L 3282 3491 
L 2618 3491 
L 1091 1936 
L 1027 1936 
L 1027 4655 
L 491 4655 
L 491 0 
z
" transform="scale(0.015625)"/>
       <path id="Inter-Regular-3a" d="M 882 -36 
C 1107 -36 1291 148 1291 373 
C 1291 598 1107 782 882 782 
C 657 782 473 598 473 373 
C 473 148 657 -36 882 -36 
z
M 882 2555 
C 1107 2555 1291 2739 1291 2964 
C 1291 3189 1107 3373 882 3373 
C 657 3373 473 3189 473 2964 
C 473 2739 657 2555 882 2555 
z
" transform="scale(0.015625)"/>
       <path id="Inter-Regular-2013" d="M 3200 2245 
L 0 2245 
L 0 1745 
L 3200 1745 
L 3200 2245 
z
" transform="scale(0.015625)"/>
       <path id="Inter-Regular-70" d="M 491 -1309 
L 1027 -1309 
L 1027 536 
L 1073 536 
C 1191 345 1418 -73 2091 -73 
C 2964 -73 3573 627 3573 1736 
C 3573 2836 2964 3536 2082 3536 
C 1400 3536 1191 3118 1073 2936 
L 1009 2936 
L 1009 3491 
L 491 3491 
L 491 -1309 
z
M 1018 1745 
C 1018 2527 1364 3055 2018 3055 
C 2700 3055 3036 2482 3036 1745 
C 3036 1000 2691 409 2018 409 
C 1373 409 1018 955 1018 1745 
z
" transform="scale(0.015625)"/>
       <path id="Inter-Regular-39" d="M 1964 4718 
C 1018 4730 409 4018 409 3164 
C 409 2264 1073 1618 1873 1618 
C 2355 1618 2764 1855 3018 2236 
L 3055 2236 
C 3055 1091 2609 436 1891 436 
C 1400 436 1100 745 1000 1173 
L 446 1173 
C 555 436 1109 -64 1891 -64 
C 2936 -64 3582 864 3582 2518 
C 3582 4227 2727 4709 1964 4718 
z
M 1964 4218 
C 2546 4218 2973 3718 2973 3173 
C 2973 2618 2518 2118 1946 2118 
C 1373 2118 955 2582 955 3164 
C 955 3745 1391 4218 1964 4218 
z
" transform="scale(0.015625)"/>
      </defs>
      <use xlink:href="#Inter-Regular-4d"/>
      <use xlink:href="#Inter-Regular-65" transform="translate(88.920471 0)"/>
      <use xlink:href="#Inter-Regular-64" transform="translate(147.159119 0)"/>
      <use xlink:href="#Inter-Regular-69" transform="translate(209.233002 0)"/>
      <use xlink:href="#Inter-Regular-61" transform="translate(232.95459 0)"/>
      <use xlink:href="#Inter-Regular-6e" transform="translate(289.346649 0)"/>
      <use xlink:href="#Inter-Regular-20" transform="translate(347.869385 0)"/>
      <use xlink:href="#Inter-Regular-74" transform="translate(375.994385 0)"/>
      <use xlink:href="#Inter-Regular-69" transform="translate(412.358032 0)"/>
      <use xlink:href="#Inter-Regular-6d" transform="translate(436.07962 0)"/>
      <use xlink:href="#Inter-Regular-65" transform="translate(523.011459 0)"/>
      <use xlink:href="#Inter-Regular-20" transform="translate(581.250107 0)"/>
      <use xlink:href="#Inter-Regular-28" transform="translate(609.375107 0)"/>
      <use xlink:href="#Inter-Regular-b5" transform="translate(645.596695 0)"/>
      <use xlink:href="#Inter-Regular-73" transform="translate(707.812622 0)"/>
      <use xlink:href="#Inter-Regular-29" transform="translate(760.085358 0)"/>
      <use xlink:href="#Inter-Regular-2c" transform="translate(796.306946 0)"/>
      <use xlink:href="#Inter-Regular-20" transform="translate(824.289902 0)"/>
      <use xlink:href="#Inter-Regular-77" transform="translate(852.414902 0)"/>
      <use xlink:href="#Inter-Regular-68" transform="translate(933.664917 0)"/>
      <use xlink:href="#Inter-Regular-69" transform="translate(992.755844 0)"/>
      <use xlink:href="#Inter-Regular-73" transform="translate(1016.477432 0)"/>
      <use xlink:href="#Inter-Regular-6b" transform="translate(1068.750168 0)"/>
      <use xlink:href="#Inter-Regular-65" transform="translate(1123.15358 0)"/>
      <use xlink:href="#Inter-Regular-72" transform="translate(1181.392227 0)"/>
      <use xlink:href="#Inter-Regular-73" transform="translate(1218.608139 0)"/>
      <use xlink:href="#Inter-Regular-3a" transform="translate(1270.880875 0)"/>
      <use xlink:href="#Inter-Regular-20" transform="translate(1298.437698 0)"/>
      <use xlink:href="#Inter-Regular-6d" transform="translate(1326.562698 0)"/>
      <use xlink:href="#Inter-Regular-69" transform="translate(1413.494537 0)"/>
      <use xlink:href="#Inter-Regular-6e" transform="translate(1437.216125 0)"/>
      <use xlink:href="#Inter-Regular-2013" transform="translate(1495.738861 0)"/>
      <use xlink:href="#Inter-Regular-70" transform="translate(1545.738876 0)"/>
      <use xlink:href="#Inter-Regular-39" transform="translate(1606.676392 0)"/>
      <use xlink:href="#Inter-Regular-35" transform="translate(1669.034363 0)"/>
     </g>
    </g>
   </g>
   <g id="patch_3">
    <path d="M 67.589048 296.746983 
L 92.311305 296.746983 
L 92.311305 184.163835 
L 67.589048 184.163835 
z
" clip-path="url(#p9e2a315f1f)" style="fill: #16a34a; opacity: 0.85; stroke: #ffffff; stroke-linejoin: miter"/>
   </g>
   <g id="patch_4">
    <path d="M 160.297512 296.746983 
L 185.019769 296.746983 
L 185.019769 184.86837 
L 160.297512 184.86837 
z
" clip-path="url(#p9e2a315f1f)" style="fill: #16a34a; opacity: 0.85; stroke: #ffffff; stroke-linejoin: miter"/>
   </g>
   <g id="patch_5">
    <path d="M 253.005976 296.746983 
L 277.728233 296.746983 
L 277.728233 180.771306 
L 253.005976 180.771306 
z
" clip-path="url(#p9e2a315f1f)" style="fill: #16a34a; opacity: 0.85; stroke: #ffffff; stroke-linejoin: miter"/>
   </g>
   <g id="patch_6">
    <path d="M 345.71444 296.746983 
L 370.436697 296.746983 
L 370.436697 184.617685 
L 345.71444 184.617685 
z
" clip-path="url(#p9e2a315f1f)" style="fill: #16a34a; opacity: 0.85; stroke: #ffffff; stroke-linejoin: miter"/>
   </g>
   <g id="patch_7">
    <path d="M 438.422904 296.746983 
L 463.145161 296.746983 
L 463.145161 243.797547 
L 438.422904 243.797547 
z
" clip-path="url(#p9e2a315f1f)" style="fill: #16a34a; opacity: 0.85; stroke: #ffffff; stroke-linejoin: miter"/>
   </g>
   <g id="patch_8">
    <path d="M 531.131368 296.746983 
L 555.853625 296.746983 
L 555.853625 188.828573 
L 531.131368 188.828573 
z
" clip-path="url(#p9e2a315f1f)" style="fill: #16a34a; opacity: 0.85; stroke: #ffffff; stroke-linejoin: miter"/>
   </g>
   <g id="patch_9">
    <path d="M 92.311305 296.746983 
L 117.033562 296.746983 
L 117.033562 43.423413 
L 92.311305 43.423413 
z
" clip-path="url(#p9e2a315f1f)" style="fill: #d97706; opacity: 0.85; stroke: #ffffff; stroke-linejoin: miter"/>
   </g>
   <g id="patch_10">
    <path d="M 185.019769 296.746983 
L 209.742026 296.746983 
L 209.742026 91.373233 
L 185.019769 91.373233 
z
" clip-path="url(#p9e2a315f1f)" style="fill: #d97706; opacity: 0.85; stroke: #ffffff; stroke-linejoin: miter"/>
   </g>
   <g id="patch_11">
    <path d="M 277.728233 296.746983 
L 302.45049 296.746983 
L 302.45049 194.884096 
L 277.728233 194.884096 
z
" clip-path="url(#p9e2a315f1f)" style="fill: #d97706; opacity: 0.85; stroke: #ffffff; stroke-linejoin: miter"/>
   </g>
   <g id="patch_12">
    <path d="M 370.436697 296.746983 
L 395.158954 296.746983 
L 395.158954 67.231448 
L 370.436697 67.231448 
z
" clip-path="url(#p9e2a315f1f)" style="fill: #d97706; opacity: 0.85; stroke: #ffffff; stroke-linejoin: miter"/>
   </g>
   <g id="patch_13">
    <path d="M 463.145161 296.746983 
L 487.867418 296.746983 
L 487.867418 243.799154 
L 463.145161 243.799154 
z
" clip-path="url(#p9e2a315f1f)" style="fill: #d97706; opacity: 0.85; stroke: #ffffff; stroke-linejoin: miter"/>
   </g>
   <g id="patch_14">
    <path d="M 555.853625 296.746983 
L 580.575882 296.746983 
L 580.575882 44.36939 
L 555.853625 44.36939 
z
" clip-path="url(#p9e2a315f1f)" style="fill: #d97706; opacity: 0.85; stroke: #ffffff; stroke-linejoin: miter"/>
   </g>
   <g id="patch_15">
    <path d="M 117.033562 296.746983 
L 141.755819 296.746983 
L 141.755819 259.004684 
L 117.033562 259.004684 
z
" clip-path="url(#p9e2a315f1f)" style="fill: #dc2626; opacity: 0.85; stroke: #ffffff; stroke-linejoin: miter"/>
   </g>
   <g id="patch_16">
    <path d="M 209.742026 296.746983 
L 234.464283 296.746983 
L 234.464283 258.398848 
L 209.742026 258.398848 
z
" clip-path="url(#p9e2a315f1f)" style="fill: #dc2626; opacity: 0.85; stroke: #ffffff; stroke-linejoin: miter"/>
   </g>
   <g id="patch_17">
    <path d="M 302.45049 296.746983 
L 327.172747 296.746983 
L 327.172747 258.278196 
L 302.45049 258.278196 
z
" clip-path="url(#p9e2a315f1f)" style="fill: #dc2626; opacity: 0.85; stroke: #ffffff; stroke-linejoin: miter"/>
   </g>
   <g id="patch_18">
    <path d="M 395.158954 296.746983 
L 419.881211 296.746983 
L 419.881211 258.411977 
L 395.158954 258.411977 
z
" clip-path="url(#p9e2a315f1f)" style="fill: #dc2626; opacity: 0.85; stroke: #ffffff; stroke-linejoin: miter"/>
   </g>
   <g id="patch_19">
    <path d="M 487.867418 296.746983 
L 512.589675 296.746983 
L 512.589675 258.198953 
L 487.867418 258.198953 
z
" clip-path="url(#p9e2a315f1f)" style="fill: #dc2626; opacity: 0.85; stroke: #ffffff; stroke-linejoin: miter"/>
   </g>
   <g id="patch_20">
    <path d="M 580.575882 296.746983 
L 605.298139 296.746983 
L 605.298139 258.656652 
L 580.575882 258.656652 
z
" clip-path="url(#p9e2a315f1f)" style="fill: #dc2626; opacity: 0.85; stroke: #ffffff; stroke-linejoin: miter"/>
   </g>
   <g id="LineCollection_1">
    <path d="M 79.950177 186.969329 
L 79.950177 179.675134 
" clip-path="url(#p9e2a315f1f)" style="fill: none; stroke: #1a1a1a"/>
    <path d="M 172.658641 189.438952 
L 172.658641 182.509467 
" clip-path="url(#p9e2a315f1f)" style="fill: none; stroke: #1a1a1a"/>
    <path d="M 265.367105 183.572657 
L 265.367105 178.416241 
" clip-path="url(#p9e2a315f1f)" style="fill: none; stroke: #1a1a1a"/>
    <path d="M 358.075569 201.11788 
L 358.075569 182.5855 
" clip-path="url(#p9e2a315f1f)" style="fill: none; stroke: #1a1a1a"/>
    <path d="M 450.784033 244.558768 
L 450.784033 242.805738 
" clip-path="url(#p9e2a315f1f)" style="fill: none; stroke: #1a1a1a"/>
    <path d="M 543.492497 191.502237 
L 543.492497 185.391444 
" clip-path="url(#p9e2a315f1f)" style="fill: none; stroke: #1a1a1a"/>
   </g>
   <g id="line2d_14">
    <defs>
     <path id="m2a3d74afd3" d="M 2 0 
L -2 -0 
" style="stroke: #1a1a1a"/>
    </defs>
    <g clip-path="url(#p9e2a315f1f)">
     <use xlink:href="#m2a3d74afd3" x="79.950177" y="186.969329" style="fill: #4c72b0; stroke: #1a1a1a"/>
     <use xlink:href="#m2a3d74afd3" x="172.658641" y="189.438952" style="fill: #4c72b0; stroke: #1a1a1a"/>
     <use xlink:href="#m2a3d74afd3" x="265.367105" y="183.572657" style="fill: #4c72b0; stroke: #1a1a1a"/>
     <use xlink:href="#m2a3d74afd3" x="358.075569" y="201.11788" style="fill: #4c72b0; stroke: #1a1a1a"/>
     <use xlink:href="#m2a3d74afd3" x="450.784033" y="244.558768" style="fill: #4c72b0; stroke: #1a1a1a"/>
     <use xlink:href="#m2a3d74afd3" x="543.492497" y="191.502237" style="fill: #4c72b0; stroke: #1a1a1a"/>
    </g>
   </g>
   <g id="line2d_15">
    <g clip-path="url(#p9e2a315f1f)">
     <use xlink:href="#m2a3d74afd3" x="79.950177" y="179.675134" style="fill: #4c72b0; stroke: #1a1a1a"/>
     <use xlink:href="#m2a3d74afd3" x="172.658641" y="182.509467" style="fill: #4c72b0; stroke: #1a1a1a"/>
     <use xlink:href="#m2a3d74afd3" x="265.367105" y="178.416241" style="fill: #4c72b0; stroke: #1a1a1a"/>
     <use xlink:href="#m2a3d74afd3" x="358.075569" y="182.5855" style="fill: #4c72b0; stroke: #1a1a1a"/>
     <use xlink:href="#m2a3d74afd3" x="450.784033" y="242.805738" style="fill: #4c72b0; stroke: #1a1a1a"/>
     <use xlink:href="#m2a3d74afd3" x="543.492497" y="185.391444" style="fill: #4c72b0; stroke: #1a1a1a"/>
    </g>
   </g>
   <g id="LineCollection_2">
    <path d="M 104.672434 50.472594 
L 104.672434 39.648666 
" clip-path="url(#p9e2a315f1f)" style="fill: none; stroke: #1a1a1a"/>
    <path d="M 197.380898 96.599979 
L 197.380898 88.480585 
" clip-path="url(#p9e2a315f1f)" style="fill: none; stroke: #1a1a1a"/>
    <path d="M 290.089362 197.684374 
L 290.089362 193.789138 
" clip-path="url(#p9e2a315f1f)" style="fill: none; stroke: #1a1a1a"/>
    <path d="M 382.797826 73.633952 
L 382.797826 63.945661 
" clip-path="url(#p9e2a315f1f)" style="fill: none; stroke: #1a1a1a"/>
    <path d="M 475.50629 244.816561 
L 475.50629 243.027633 
" clip-path="url(#p9e2a315f1f)" style="fill: none; stroke: #1a1a1a"/>
    <path d="M 568.214754 49.352219 
L 568.214754 39.769895 
" clip-path="url(#p9e2a315f1f)" style="fill: none; stroke: #1a1a1a"/>
   </g>
   <g id="line2d_16">
    <g clip-path="url(#p9e2a315f1f)">
     <use xlink:href="#m2a3d74afd3" x="104.672434" y="50.472594" style="fill: #4c72b0; stroke: #1a1a1a"/>
     <use xlink:href="#m2a3d74afd3" x="197.380898" y="96.599979" style="fill: #4c72b0; stroke: #1a1a1a"/>
     <use xlink:href="#m2a3d74afd3" x="290.089362" y="197.684374" style="fill: #4c72b0; stroke: #1a1a1a"/>
     <use xlink:href="#m2a3d74afd3" x="382.797826" y="73.633952" style="fill: #4c72b0; stroke: #1a1a1a"/>
     <use xlink:href="#m2a3d74afd3" x="475.50629" y="244.816561" style="fill: #4c72b0; stroke: #1a1a1a"/>
     <use xlink:href="#m2a3d74afd3" x="568.214754" y="49.352219" style="fill: #4c72b0; stroke: #1a1a1a"/>
    </g>
   </g>
   <g id="line2d_17">
    <g clip-path="url(#p9e2a315f1f)">
     <use xlink:href="#m2a3d74afd3" x="104.672434" y="39.648666" style="fill: #4c72b0; stroke: #1a1a1a"/>
     <use xlink:href="#m2a3d74afd3" x="197.380898" y="88.480585" style="fill: #4c72b0; stroke: #1a1a1a"/>
     <use xlink:href="#m2a3d74afd3" x="290.089362" y="193.789138" style="fill: #4c72b0; stroke: #1a1a1a"/>
     <use xlink:href="#m2a3d74afd3" x="382.797826" y="63.945661" style="fill: #4c72b0; stroke: #1a1a1a"/>
     <use xlink:href="#m2a3d74afd3" x="475.50629" y="243.027633" style="fill: #4c72b0; stroke: #1a1a1a"/>
     <use xlink:href="#m2a3d74afd3" x="568.214754" y="39.769895" style="fill: #4c72b0; stroke: #1a1a1a"/>
    </g>
   </g>
   <g id="LineCollection_3">
    <path d="M 129.394691 259.724231 
L 129.394691 258.600173 
" clip-path="url(#p9e2a315f1f)" style="fill: none; stroke: #1a1a1a"/>
    <path d="M 222.103155 259.474409 
L 222.103155 257.870423 
" clip-path="url(#p9e2a315f1f)" style="fill: none; stroke: #1a1a1a"/>
    <path d="M 314.811619 258.894177 
L 314.811619 257.602941 
" clip-path="url(#p9e2a315f1f)" style="fill: none; stroke: #1a1a1a"/>
    <path d="M 407.520083 259.572959 
L 407.520083 257.862598 
" clip-path="url(#p9e2a315f1f)" style="fill: none; stroke: #1a1a1a"/>
    <path d="M 500.228547 259.05304 
L 500.228547 257.734124 
" clip-path="url(#p9e2a315f1f)" style="fill: none; stroke: #1a1a1a"/>
    <path d="M 592.937011 259.644545 
L 592.937011 258.229743 
" clip-path="url(#p9e2a315f1f)" style="fill: none; stroke: #1a1a1a"/>
   </g>
   <g id="line2d_18">
    <g clip-path="url(#p9e2a315f1f)">
     <use xlink:href="#m2a3d74afd3" x="129.394691" y="259.724231" style="fill: #4c72b0; stroke: #1a1a1a"/>
     <use xlink:href="#m2a3d74afd3" x="222.103155" y="259.474409" style="fill: #4c72b0; stroke: #1a1a1a"/>
     <use xlink:href="#m2a3d74afd3" x="314.811619" y="258.894177" style="fill: #4c72b0; stroke: #1a1a1a"/>
     <use xlink:href="#m2a3d74afd3" x="407.520083" y="259.572959" style="fill: #4c72b0; stroke: #1a1a1a"/>
     <use xlink:href="#m2a3d74afd3" x="500.228547" y="259.05304" style="fill: #4c72b0; stroke: #1a1a1a"/>
     <use xlink:href="#m2a3d74afd3" x="592.937011" y="259.644545" style="fill: #4c72b0; stroke: #1a1a1a"/>
    </g>
   </g>
   <g id="line2d_19">
    <g clip-path="url(#p9e2a315f1f)">
     <use xlink:href="#m2a3d74afd3" x="129.394691" y="258.600173" style="fill: #4c72b0; stroke: #1a1a1a"/>
     <use xlink:href="#m2a3d74afd3" x="222.103155" y="257.870423" style="fill: #4c72b0; stroke: #1a1a1a"/>
     <use xlink:href="#m2a3d74afd3" x="314.811619" y="257.602941" style="fill: #4c72b0; stroke: #1a1a1a"/>
     <use xlink:href="#m2a3d74afd3" x="407.520083" y="257.862598" style="fill: #4c72b0; stroke: #1a1a1a"/>
     <use xlink:href="#m2a3d74afd3" x="500.228547" y="257.734124" style="fill: #4c72b0; stroke: #1a1a1a"/>
     <use xlink:href="#m2a3d74afd3" x="592.937011" y="258.229743" style="fill: #4c72b0; stroke: #1a1a1a"/>
    </g>
   </g>
   <g id="patch_21">
    <path d="M 40.703594 296.746983 
L 40.703594 26.79375 
" style="fill: none; stroke: #cccccc; stroke-width: 1.25; stroke-linejoin: miter; stroke-linecap: square"/>
   </g>
   <g id="patch_22">
    <path d="M 632.183594 296.746983 
L 632.183594 26.79375 
" style="fill: none; stroke: #cccccc; stroke-width: 1.25; stroke-linejoin: miter; stroke-linecap: square"/>
   </g>
   <g id="patch_23">
    <path d="M 40.703594 296.746983 
L 632.183594 296.746983 
" style="fill: none; stroke: #cccccc; stroke-width: 1.25; stroke-linejoin: miter; stroke-linecap: square"/>
   </g>
   <g id="patch_24">
    <path d="M 40.703594 26.79375 
L 632.183594 26.79375 
" style="fill: none; stroke: #cccccc; stroke-width: 1.25; stroke-linejoin: miter; stroke-linecap: square"/>
   </g>
   <g id="text_16">
    <!-- Encoded Size — Median Latency by Library -->
    <g style="fill: #262626" transform="translate(199.799375 20.79375) scale(0.13 -0.13)">
     <defs>
      <path id="Inter-Bold-45" d="M 405 0 
L 3550 0 
L 3550 811 
L 1389 811 
L 1389 1923 
L 3380 1923 
L 3380 2734 
L 1389 2734 
L 1389 3843 
L 3541 3843 
L 3541 4655 
L 405 4655 
L 405 0 
z
" transform="scale(0.015625)"/>
      <path id="Inter-Bold-6e" d="M 1355 2018 
C 1357 2468 1625 2732 2016 2732 
C 2405 2732 2639 2477 2636 2050 
L 2636 0 
L 3605 0 
L 3605 2223 
C 3605 3036 3127 3536 2400 3536 
C 1882 3536 1507 3282 1350 2875 
L 1309 2875 
L 1309 3491 
L 386 3491 
L 386 0 
L 1355 0 
L 1355 2018 
z
" transform="scale(0.015625)"/>
      <path id="Inter-Bold-63" d="M 1964 -68 
C 2893 -68 3477 477 3523 1280 
L 2609 1280 
C 2552 907 2307 698 1975 698 
C 1523 698 1230 1077 1230 1745 
C 1230 2405 1525 2782 1975 2782 
C 2330 2782 2557 2548 2609 2200 
L 3523 2200 
C 3482 3007 2871 3536 1959 3536 
C 900 3536 246 2802 246 1732 
C 246 670 889 -68 1964 -68 
z
" transform="scale(0.015625)"/>
      <path id="Inter-Bold-6f" d="M 1964 -68 
C 3023 -68 3682 657 3682 1732 
C 3682 2814 3023 3536 1964 3536 
C 905 3536 246 2814 246 1732 
C 246 657 905 -68 1964 -68 
z
M 1968 682 
C 1480 682 1230 1130 1230 1739 
C 1230 2348 1480 2798 1968 2798 
C 2448 2798 2698 2348 2698 1739 
C 2698 1130 2448 682 1968 682 
z
" transform="scale(0.015625)"/>
      <path id="Inter-Bold-64" d="M 1673 -57 
C 2236 -57 2530 268 2664 559 
L 2705 559 
L 2705 0 
L 3659 0 
L 3659 4655 
L 2693 4655 
L 2693 2905 
L 2664 2905 
C 2534 3189 2255 3536 1671 3536 
C 905 3536 257 2941 257 1741 
C 257 573 877 -57 1673 -57 
z
M 1980 714 
C 1505 714 1246 1136 1246 1745 
C 1246 2350 1500 2766 1980 2766 
C 2450 2766 2714 2368 2714 1745 
C 2714 1123 2446 714 1980 714 
z
" transform="scale(0.015625)"/>
      <path id="Inter-Bold-65" d="M 1977 -68 
C 2841 -68 3423 352 3559 1000 
L 2664 1059 
C 2566 793 2316 655 1993 655 
C 1509 655 1202 975 1202 1495 
L 1202 1498 
L 3580 1498 
L 3580 1764 
C 3580 2950 2861 3536 1939 3536 
C 911 3536 246 2807 246 1730 
C 246 623 902 -68 1977 -68 
z
M 1202 2098 
C 1223 2495 1525 2814 1955 2814 
C 2375 2814 2666 2514 2668 2098 
L 1202 2098 
z
" transform="scale(0.015625)"/>
      <path id="Inter-Bold-20" transform="scale(0.015625)"/>
      <path id="Inter-Bold-53" d="M 2930 3316 
L 3873 3316 
C 3859 4145 3177 4718 2141 4718 
C 1121 4718 373 4155 377 3309 
C 375 2623 859 2230 1646 2041 
L 2152 1914 
C 2659 1791 2941 1645 2943 1332 
C 2941 991 2618 759 2118 759 
C 1607 759 1239 995 1207 1461 
L 255 1461 
C 280 455 1000 -66 2130 -66 
C 3266 -66 3934 477 3936 1330 
C 3934 2105 3350 2516 2541 2698 
L 2123 2798 
C 1718 2891 1380 3041 1386 3375 
C 1386 3675 1652 3895 2134 3895 
C 2605 3895 2893 3682 2930 3316 
z
" transform="scale(0.015625)"/>
      <path id="Inter-Bold-69" d="M 386 0 
L 1355 0 
L 1355 3491 
L 386 3491 
L 386 0 
z
M 873 3941 
C 1161 3941 1398 4161 1398 4432 
C 1398 4700 1161 4920 873 4920 
C 586 4920 350 4700 350 4432 
C 350 4161 586 3941 873 3941 
z
" transform="scale(0.015625)"/>
      <path id="Inter-Bold-7a" d="M 368 0 
L 3302 0 
L 3302 773 
L 1639 773 
L 1639 798 
L 3243 2861 
L 3243 3491 
L 427 3491 
L 427 2718 
L 2077 2718 
L 2077 2693 
L 368 577 
L 368 0 
z
" transform="scale(0.015625)"/>
      <path id="Inter-Bold-2014" d="M 6400 2295 
L 0 2295 
L 0 1527 
L 6400 1527 
L 6400 2295 
z
" transform="scale(0.015625)"/>
      <path id="Inter-Bold-4d" d="M 405 4655 
L 405 0 
L 1359 0 
L 1359 3041 
L 1398 3041 
L 2602 23 
L 3252 23 
L 4457 3030 
L 4496 3030 
L 4496 0 
L 5450 0 
L 5450 4655 
L 4236 4655 
L 2955 1527 
L 2900 1527 
L 1618 4655 
L 405 4655 
z
" transform="scale(0.015625)"/>
      <path id="Inter-Bold-61" d="M 1382 -66 
C 1898 -66 2232 159 2402 484 
L 2430 484 
L 2430 0 
L 3348 0 
L 3348 2355 
C 3348 3186 2643 3536 1866 3536 
C 1030 3536 480 3136 346 2500 
L 1241 2427 
C 1307 2659 1514 2830 1861 2830 
C 2191 2830 2380 2664 2380 2377 
L 2380 2364 
C 2380 2139 2141 2109 1534 2050 
C 843 1986 223 1755 223 975 
C 223 284 716 -66 1382 -66 
z
M 1659 602 
C 1361 602 1148 741 1148 1007 
C 1148 1280 1373 1414 1714 1461 
C 1925 1491 2271 1541 2386 1618 
L 2386 1248 
C 2386 882 2084 602 1659 602 
z
" transform="scale(0.015625)"/>
      <path id="Inter-Bold-4c" d="M 405 0 
L 3384 0 
L 3384 811 
L 1389 811 
L 1389 4655 
L 405 4655 
L 405 0 
z
" transform="scale(0.015625)"/>
      <path id="Inter-Bold-74" d="M 2243 3491 
L 1586 3491 
L 1586 4327 
L 618 4327 
L 618 3491 
L 141 3491 
L 141 2764 
L 618 2764 
L 618 945 
C 614 261 1080 -77 1782 -48 
C 2032 -39 2209 11 2307 43 
L 2155 764 
C 2107 755 2005 732 1914 732 
C 1721 732 1586 805 1586 1073 
L 1586 2764 
L 2243 2764 
L 2243 3491 
z
" transform="scale(0.015625)"/>
      <path id="Inter-Bold-79" d="M 984 -1309 
C 1705 -1309 2086 -941 2284 -377 
L 3641 3491 
L 2616 3491 
L 1886 927 
L 1850 927 
L 1127 3491 
L 109 3491 
L 1361 -100 
L 1305 -248 
C 1177 -575 934 -591 593 -486 
L 375 -1209 
C 514 -1268 739 -1309 984 -1309 
z
" transform="scale(0.015625)"/>
      <path id="Inter-Bold-62" d="M 405 0 
L 1359 0 
L 1359 559 
L 1402 559 
C 1536 268 1830 -57 2393 -57 
C 3189 -57 3809 573 3809 1741 
C 3809 2941 3161 3536 2396 3536 
C 1811 3536 1532 3189 1402 2905 
L 1373 2905 
L 1373 4655 
L 405 4655 
L 405 0 
z
M 1352 1745 
C 1352 2368 1616 2766 2086 2766 
C 2566 2766 2821 2350 2821 1745 
C 2821 1136 2561 714 2086 714 
C 1621 714 1352 1123 1352 1745 
z
" transform="scale(0.015625)"/>
      <path id="Inter-Bold-72" d="M 386 0 
L 1355 0 
L 1355 1975 
C 1355 2405 1668 2700 2096 2700 
C 2230 2700 2414 2677 2505 2648 
L 2505 3507 
C 2418 3527 2298 3541 2200 3541 
C 1809 3541 1489 3314 1361 2882 
L 1325 2882 
L 1325 3491 
L 386 3491 
L 386 0 
z
" transform="scale(0.015625)"/>
     </defs>
     <use xlink:href="#Inter-Bold-45"/>
     <use xlink:href="#Inter-Bold-6e" transform="translate(61.257111 0)"/>
     <use xlink:href="#Inter-Bold-63" transform="translate(123.437515 0)"/>
     <use xlink:href="#Inter-Bold-6f" transform="translate(182.173325 0)"/>
     <use xlink:href="#Inter-Bold-64" transform="translate(243.536972 0)"/>
     <use xlink:href="#Inter-Bold-65" transform="translate(307.066818 0)"/>
     <use xlink:href="#Inter-Bold-64" transform="translate(366.832458 0)"/>
     <use xlink:href="#Inter-Bold-20" transform="translate(430.362305 0)"/>
     <use xlink:href="#Inter-Bold-53" transform="translate(453.551224 0)"/>
     <use xlink:href="#Inter-Bold-69" transform="translate(519.034195 0)"/>
     <use xlink:href="#Inter-Bold-7a" transform="translate(546.235901 0)"/>
     <use xlink:href="#Inter-Bold-65" transform="translate(603.40921 0)"/>
     <use xlink:href="#Inter-Bold-20" transform="translate(663.17485 0)"/>
     <use xlink:href="#Inter-Bold-2014" transform="translate(686.36377 0)"/>
     <use xlink:href="#Inter-Bold-20" transform="translate(786.3638 0)"/>
     <use xlink:href="#Inter-Bold-4d" transform="translate(809.552719 0)"/>
     <use xlink:href="#Inter-Bold-65" transform="translate(901.030014 0)"/>
     <use xlink:href="#Inter-Bold-64" transform="translate(960.795654 0)"/>
     <use xlink:href="#Inter-Bold-69" transform="translate(1024.3255 0)"/>
     <use xlink:href="#Inter-Bold-61" transform="translate(1051.527206 0)"/>
     <use xlink:href="#Inter-Bold-6e" transform="translate(1109.55278 0)"/>
     <use xlink:href="#Inter-Bold-20" transform="translate(1171.733185 0)"/>
     <use xlink:href="#Inter-Bold-4c" transform="translate(1194.922104 0)"/>
     <use xlink:href="#Inter-Bold-61" transform="translate(1251.669281 0)"/>
     <use xlink:href="#Inter-Bold-74" transform="translate(1309.694855 0)"/>
     <use xlink:href="#Inter-Bold-65" transform="translate(1348.544296 0)"/>
     <use xlink:href="#Inter-Bold-6e" transform="translate(1408.309937 0)"/>
     <use xlink:href="#Inter-Bold-63" transform="translate(1470.490341 0)"/>
     <use xlink:href="#Inter-Bold-79" transform="translate(1529.226151 0)"/>
     <use xlink:href="#Inter-Bold-20" transform="translate(1587.819916 0)"/>
     <use xlink:href="#Inter-Bold-62" transform="translate(1611.008835 0)"/>
     <use xlink:href="#Inter-Bold-79" transform="translate(1674.538681 0)"/>
     <use xlink:href="#Inter-Bold-20" transform="translate(1733.132446 0)"/>
     <use xlink:href="#Inter-Bold-4c" transform="translate(1756.321365 0)"/>
     <use xlink:href="#Inter-Bold-69" transform="translate(1813.068542 0)"/>
     <use xlink:href="#Inter-Bold-62" transform="translate(1840.270248 0)"/>
     <use xlink:href="#Inter-Bold-72" transform="translate(1903.800095 0)"/>
     <use xlink:href="#Inter-Bold-61" transform="translate(1944.673676 0)"/>
     <use xlink:href="#Inter-Bold-72" transform="translate(2002.699249 0)"/>
     <use xlink:href="#Inter-Bold-79" transform="translate(2043.57283 0)"/>
    </g>
   </g>
   <g id="legend_1">
    <g id="patch_25">
     <path d="M 306.121328 72.858281 
L 366.765859 72.858281 
Q 368.565859 72.858281 368.565859 71.058281 
L 368.565859 33.09375 
Q 368.565859 31.29375 366.765859 31.29375 
L 306.121328 31.29375 
Q 304.321328 31.29375 304.321328 33.09375 
L 304.321328 71.058281 
Q 304.321328 72.858281 306.121328 72.858281 
z
" style="fill: #ffffff; opacity: 0.9; stroke: #cccccc; stroke-linejoin: miter"/>
    </g>
    <g id="patch_26">
     <path d="M 307.921328 41.64375 
L 325.921328 41.64375 
L 325.921328 35.34375 
L 307.921328 35.34375 
z
" style="fill: #16a34a; opacity: 0.85; stroke: #ffffff; stroke-linejoin: miter"/>
    </g>
    <g id="text_17">
     <!-- bijou64 -->
     <g style="fill: #262626" transform="translate(333.121328 41.64375) scale(0.09 -0.09)">
      <defs>
       <path id="Inter-Regular-6a" d="M 491 3491 
L 491 -255 
C 491 -609 346 -809 18 -809 
L -82 -809 
L -82 -1309 
L 27 -1309 
C 700 -1309 1027 -900 1027 -255 
L 1027 3491 
L 491 3491 
z
M 755 4073 
C 964 4073 1136 4236 1136 4436 
C 1136 4636 964 4800 755 4800 
C 546 4800 373 4636 373 4436 
C 373 4236 546 4073 755 4073 
z
" transform="scale(0.015625)"/>
      </defs>
      <use xlink:href="#Inter-Regular-62"/>
      <use xlink:href="#Inter-Regular-69" transform="translate(62.073883 0)"/>
      <use xlink:href="#Inter-Regular-6a" transform="translate(85.795471 0)"/>
      <use xlink:href="#Inter-Regular-6f" transform="translate(109.517059 0)"/>
      <use xlink:href="#Inter-Regular-75" transform="translate(169.176163 0)"/>
      <use xlink:href="#Inter-Regular-36" transform="translate(227.272766 0)"/>
      <use xlink:href="#Inter-Regular-34" transform="translate(289.630737 0)"/>
     </g>
    </g>
    <g id="patch_27">
     <path d="M 307.921328 54.530625 
L 325.921328 54.530625 
L 325.921328 48.230625 
L 307.921328 48.230625 
z
" style="fill: #d97706; opacity: 0.85; stroke: #ffffff; stroke-linejoin: miter"/>
    </g>
    <g id="text_18">
     <!-- varu64 -->
     <g style="fill: #262626" transform="translate(333.121328 54.530625) scale(0.09 -0.09)">
      <defs>
       <path id="Inter-Regular-76" d="M 3346 3491 
L 2764 3491 
L 1800 709 
L 1764 709 
L 800 3491 
L 218 3491 
L 1509 0 
L 2055 0 
L 3346 3491 
z
" transform="scale(0.015625)"/>
      </defs>
      <use xlink:href="#Inter-Regular-76"/>
      <use xlink:href="#Inter-Regular-61" transform="translate(55.681824 0)"/>
      <use xlink:href="#Inter-Regular-72" transform="translate(112.073883 0)"/>
      <use xlink:href="#Inter-Regular-75" transform="translate(149.289795 0)"/>
      <use xlink:href="#Inter-Regular-36" transform="translate(207.386398 0)"/>
      <use xlink:href="#Inter-Regular-34" transform="translate(269.74437 0)"/>
     </g>
    </g>
    <g id="patch_28">
     <path d="M 307.921328 67.4175 
L 325.921328 67.4175 
L 325.921328 61.1175 
L 307.921328 61.1175 
z
" style="fill: #dc2626; opacity: 0.85; stroke: #ffffff; stroke-linejoin: miter"/>
    </g>
    <g id="text_19">
     <!-- vu64 -->
     <g style="fill: #262626" transform="translate(333.121328 67.4175) scale(0.09 -0.09)">
      <use xlink:href="#Inter-Regular-76"/>
      <use xlink:href="#Inter-Regular-75" transform="translate(55.681824 0)"/>
      <use xlink:href="#Inter-Regular-36" transform="translate(113.778427 0)"/>
      <use xlink:href="#Inter-Regular-34" transform="translate(176.136398 0)"/>
     </g>
    </g>
   </g>
  </g>
 </g>
 <defs>
  <clipPath id="p9e2a315f1f">
   <rect x="40.703594" y="26.79375" width="591.48" height="269.953233"/>
  </clipPath>
 </defs>
</svg>
