<svg xmlns="http://www.w3.org/2000/svg" viewBox="0 0 628 350" width="628" height="350" style="background:#fff; font-family:'Inter', 'Helvetica Neue', Arial, sans-serif">
  <text x="288.0" y="24" text-anchor="middle" font-size="14" font-weight="600" fill="#1e293b">Encode (Vec) — median µs / 4096 values</text>
  <line x1="58" y1="300.0" x2="518" y2="300.0" stroke="#e2e8f0" stroke-width="1"/>
  <text x="50" y="304.0" text-anchor="end" font-size="11" fill="#64748b">0</text>
  <line x1="58" y1="267.5" x2="518" y2="267.5" stroke="#e2e8f0" stroke-width="1"/>
  <text x="50" y="271.5" text-anchor="end" font-size="11" fill="#64748b">5</text>
  <line x1="58" y1="235.0" x2="518" y2="235.0" stroke="#e2e8f0" stroke-width="1"/>
  <text x="50" y="239.0" text-anchor="end" font-size="11" fill="#64748b">10</text>
  <line x1="58" y1="202.5" x2="518" y2="202.5" stroke="#e2e8f0" stroke-width="1"/>
  <text x="50" y="206.5" text-anchor="end" font-size="11" fill="#64748b">15</text>
  <line x1="58" y1="170.0" x2="518" y2="170.0" stroke="#e2e8f0" stroke-width="1"/>
  <text x="50" y="174.0" text-anchor="end" font-size="11" fill="#64748b">20</text>
  <line x1="58" y1="137.5" x2="518" y2="137.5" stroke="#e2e8f0" stroke-width="1"/>
  <text x="50" y="141.5" text-anchor="end" font-size="11" fill="#64748b">25</text>
  <line x1="58" y1="105.0" x2="518" y2="105.0" stroke="#e2e8f0" stroke-width="1"/>
  <text x="50" y="109.0" text-anchor="end" font-size="11" fill="#64748b">30</text>
  <line x1="58" y1="72.5" x2="518" y2="72.5" stroke="#e2e8f0" stroke-width="1"/>
  <text x="50" y="76.5" text-anchor="end" font-size="11" fill="#64748b">35</text>
  <line x1="58" y1="40.0" x2="518" y2="40.0" stroke="#e2e8f0" stroke-width="1"/>
  <text x="50" y="44.0" text-anchor="end" font-size="11" fill="#64748b">40</text>
  <text x="58.0" y="320" text-anchor="middle" font-size="11" fill="#64748b">tiny</text>
  <text x="150.0" y="320" text-anchor="middle" font-size="11" fill="#64748b">small</text>
  <text x="242.0" y="320" text-anchor="middle" font-size="11" fill="#64748b">medium</text>
  <text x="334.0" y="320" text-anchor="middle" font-size="11" fill="#64748b">large</text>
  <text x="426.0" y="320" text-anchor="middle" font-size="11" fill="#64748b">tier</text>
  <text x="518.0" y="320" text-anchor="middle" font-size="11" fill="#64748b">uniform</text>
  <text x="14" y="170.0" text-anchor="middle" font-size="12" fill="#64748b" transform="rotate(-90 14 170.0)">µs</text>
  <line x1="58" y1="300" x2="518" y2="300" stroke="#94a3b8" stroke-width="1.5"/>
  <line x1="58" y1="40" x2="58" y2="300" stroke="#94a3b8" stroke-width="1.5"/>
  <polyline points="58.0,285.3 150.0,225.8 242.0,174.6 334.0,214.8 426.0,194.3 518.0,214.5" fill="none" stroke="#16a34a" stroke-width="2.5" stroke-linejoin="round"/>
  <circle cx="58.0" cy="285.3" r="3.5" fill="#16a34a" stroke="#fff" stroke-width="1.5"/>
  <circle cx="150.0" cy="225.8" r="3.5" fill="#16a34a" stroke="#fff" stroke-width="1.5"/>
  <circle cx="242.0" cy="174.6" r="3.5" fill="#16a34a" stroke="#fff" stroke-width="1.5"/>
  <circle cx="334.0" cy="214.8" r="3.5" fill="#16a34a" stroke="#fff" stroke-width="1.5"/>
  <circle cx="426.0" cy="194.3" r="3.5" fill="#16a34a" stroke="#fff" stroke-width="1.5"/>
  <circle cx="518.0" cy="214.5" r="3.5" fill="#16a34a" stroke="#fff" stroke-width="1.5"/>
  <polyline points="58.0,228.8 150.0,170.0 242.0,125.2 334.0,116.8 426.0,108.4 518.0,117.3" fill="none" stroke="#d97706" stroke-width="2.5" stroke-linejoin="round"/>
  <circle cx="58.0" cy="228.8" r="3.5" fill="#d97706" stroke="#fff" stroke-width="1.5"/>
  <circle cx="150.0" cy="170.0" r="3.5" fill="#d97706" stroke="#fff" stroke-width="1.5"/>
  <circle cx="242.0" cy="125.2" r="3.5" fill="#d97706" stroke="#fff" stroke-width="1.5"/>
  <circle cx="334.0" cy="116.8" r="3.5" fill="#d97706" stroke="#fff" stroke-width="1.5"/>
  <circle cx="426.0" cy="108.4" r="3.5" fill="#d97706" stroke="#fff" stroke-width="1.5"/>
  <circle cx="518.0" cy="117.3" r="3.5" fill="#d97706" stroke="#fff" stroke-width="1.5"/>
  <polyline points="58.0,165.5 150.0,150.8 242.0,152.1 334.0,226.6 426.0,179.6 518.0,227.1" fill="none" stroke="#dc2626" stroke-width="2.5" stroke-linejoin="round"/>
  <circle cx="58.0" cy="165.5" r="3.5" fill="#dc2626" stroke="#fff" stroke-width="1.5"/>
  <circle cx="150.0" cy="150.8" r="3.5" fill="#dc2626" stroke="#fff" stroke-width="1.5"/>
  <circle cx="242.0" cy="152.1" r="3.5" fill="#dc2626" stroke="#fff" stroke-width="1.5"/>
  <circle cx="334.0" cy="226.6" r="3.5" fill="#dc2626" stroke="#fff" stroke-width="1.5"/>
  <circle cx="426.0" cy="179.6" r="3.5" fill="#dc2626" stroke="#fff" stroke-width="1.5"/>
  <circle cx="518.0" cy="227.1" r="3.5" fill="#dc2626" stroke="#fff" stroke-width="1.5"/>
  <polyline points="58.0,194.5 150.0,168.9 242.0,157.3 334.0,223.9 426.0,175.5 518.0,223.0" fill="none" stroke="#2563eb" stroke-width="2.5" stroke-linejoin="round"/>
  <circle cx="58.0" cy="194.5" r="3.5" fill="#2563eb" stroke="#fff" stroke-width="1.5"/>
  <circle cx="150.0" cy="168.9" r="3.5" fill="#2563eb" stroke="#fff" stroke-width="1.5"/>
  <circle cx="242.0" cy="157.3" r="3.5" fill="#2563eb" stroke="#fff" stroke-width="1.5"/>
  <circle cx="334.0" cy="223.9" r="3.5" fill="#2563eb" stroke="#fff" stroke-width="1.5"/>
  <circle cx="426.0" cy="175.5" r="3.5" fill="#2563eb" stroke="#fff" stroke-width="1.5"/>
  <circle cx="518.0" cy="223.0" r="3.5" fill="#2563eb" stroke="#fff" stroke-width="1.5"/>
  <polyline points="58.0,272.6 150.0,253.5 242.0,211.9 334.0,83.9 426.0,221.8 518.0,77.9" fill="none" stroke="#7c3aed" stroke-width="2.5" stroke-linejoin="round"/>
  <circle cx="58.0" cy="272.6" r="3.5" fill="#7c3aed" stroke="#fff" stroke-width="1.5"/>
  <circle cx="150.0" cy="253.5" r="3.5" fill="#7c3aed" stroke="#fff" stroke-width="1.5"/>
  <circle cx="242.0" cy="211.9" r="3.5" fill="#7c3aed" stroke="#fff" stroke-width="1.5"/>
  <circle cx="334.0" cy="83.9" r="3.5" fill="#7c3aed" stroke="#fff" stroke-width="1.5"/>
  <circle cx="426.0" cy="221.8" r="3.5" fill="#7c3aed" stroke="#fff" stroke-width="1.5"/>
  <circle cx="518.0" cy="77.9" r="3.5" fill="#7c3aed" stroke="#fff" stroke-width="1.5"/>
  <line x1="534" y1="50" x2="554" y2="50" stroke="#16a34a" stroke-width="2.5"/>
  <circle cx="544" cy="50" r="3" fill="#16a34a" stroke="#fff" stroke-width="1"/>
  <text x="560" y="54" font-size="11" fill="#1e293b">bijou64</text>
  <line x1="534" y1="72" x2="554" y2="72" stroke="#d97706" stroke-width="2.5"/>
  <circle cx="544" cy="72" r="3" fill="#d97706" stroke="#fff" stroke-width="1"/>
  <text x="560" y="76" font-size="11" fill="#1e293b">varu64</text>
  <line x1="534" y1="94" x2="554" y2="94" stroke="#dc2626" stroke-width="2.5"/>
  <circle cx="544" cy="94" r="3" fill="#dc2626" stroke="#fff" stroke-width="1"/>
  <text x="560" y="98" font-size="11" fill="#1e293b">vu64</text>
  <line x1="534" y1="116" x2="554" y2="116" stroke="#2563eb" stroke-width="2.5"/>
  <circle cx="544" cy="116" r="3" fill="#2563eb" stroke="#fff" stroke-width="1"/>
  <text x="560" y="120" font-size="11" fill="#1e293b">vu128</text>
  <line x1="534" y1="138" x2="554" y2="138" stroke="#7c3aed" stroke-width="2.5"/>
  <circle cx="544" cy="138" r="3" fill="#7c3aed" stroke="#fff" stroke-width="1"/>
  <text x="560" y="142" font-size="11" fill="#1e293b">leb128</text>
</svg>