<svg xmlns="http://www.w3.org/2000/svg" viewBox="0 0 628 350" width="628" height="350" style="background:#fff; font-family:'Inter', 'Helvetica Neue', Arial, sans-serif">
  <text x="288.0" y="24" text-anchor="middle" font-size="14" font-weight="600" fill="#1e293b">Stream Decode — median µs per value</text>
  <line x1="58" y1="300.0" x2="518" y2="300.0" stroke="#e2e8f0" stroke-width="1"/>
  <text x="50" y="304.0" text-anchor="end" font-size="11" fill="#64748b">0</text>
  <line x1="58" y1="267.5" x2="518" y2="267.5" stroke="#e2e8f0" stroke-width="1"/>
  <text x="50" y="271.5" text-anchor="end" font-size="11" fill="#64748b">5</text>
  <line x1="58" y1="235.0" x2="518" y2="235.0" stroke="#e2e8f0" stroke-width="1"/>
  <text x="50" y="239.0" text-anchor="end" font-size="11" fill="#64748b">10</text>
  <line x1="58" y1="202.5" x2="518" y2="202.5" stroke="#e2e8f0" stroke-width="1"/>
  <text x="50" y="206.5" text-anchor="end" font-size="11" fill="#64748b">15</text>
  <line x1="58" y1="170.0" x2="518" y2="170.0" stroke="#e2e8f0" stroke-width="1"/>
  <text x="50" y="174.0" text-anchor="end" font-size="11" fill="#64748b">20</text>
  <line x1="58" y1="137.5" x2="518" y2="137.5" stroke="#e2e8f0" stroke-width="1"/>
  <text x="50" y="141.5" text-anchor="end" font-size="11" fill="#64748b">25</text>
  <line x1="58" y1="105.0" x2="518" y2="105.0" stroke="#e2e8f0" stroke-width="1"/>
  <text x="50" y="109.0" text-anchor="end" font-size="11" fill="#64748b">30</text>
  <line x1="58" y1="72.5" x2="518" y2="72.5" stroke="#e2e8f0" stroke-width="1"/>
  <text x="50" y="76.5" text-anchor="end" font-size="11" fill="#64748b">35</text>
  <line x1="58" y1="40.0" x2="518" y2="40.0" stroke="#e2e8f0" stroke-width="1"/>
  <text x="50" y="44.0" text-anchor="end" font-size="11" fill="#64748b">40</text>
  <text x="58.0" y="320" text-anchor="middle" font-size="11" fill="#64748b">tiny</text>
  <text x="150.0" y="320" text-anchor="middle" font-size="11" fill="#64748b">small</text>
  <text x="242.0" y="320" text-anchor="middle" font-size="11" fill="#64748b">medium</text>
  <text x="334.0" y="320" text-anchor="middle" font-size="11" fill="#64748b">large</text>
  <text x="426.0" y="320" text-anchor="middle" font-size="11" fill="#64748b">tier</text>
  <text x="518.0" y="320" text-anchor="middle" font-size="11" fill="#64748b">uniform</text>
  <text x="14" y="170.0" text-anchor="middle" font-size="12" fill="#64748b" transform="rotate(-90 14 170.0)">µs</text>
  <line x1="58" y1="300" x2="518" y2="300" stroke="#94a3b8" stroke-width="1.5"/>
  <line x1="58" y1="40" x2="58" y2="300" stroke="#94a3b8" stroke-width="1.5"/>
  <polyline points="58.0,274.1 150.0,239.3 242.0,239.3 334.0,233.0 426.0,171.6 518.0,236.2" fill="none" stroke="#16a34a" stroke-width="2.5" stroke-linejoin="round"/>
  <circle cx="58.0" cy="274.1" r="3.5" fill="#16a34a" stroke="#fff" stroke-width="1.5"/>
  <circle cx="150.0" cy="239.3" r="3.5" fill="#16a34a" stroke="#fff" stroke-width="1.5"/>
  <circle cx="242.0" cy="239.3" r="3.5" fill="#16a34a" stroke="#fff" stroke-width="1.5"/>
  <circle cx="334.0" cy="233.0" r="3.5" fill="#16a34a" stroke="#fff" stroke-width="1.5"/>
  <circle cx="426.0" cy="171.6" r="3.5" fill="#16a34a" stroke="#fff" stroke-width="1.5"/>
  <circle cx="518.0" cy="236.2" r="3.5" fill="#16a34a" stroke="#fff" stroke-width="1.5"/>
  <polyline points="58.0,236.5 150.0,164.7 242.0,182.2 334.0,148.6 426.0,148.7 518.0,153.9" fill="none" stroke="#d97706" stroke-width="2.5" stroke-linejoin="round"/>
  <circle cx="58.0" cy="236.5" r="3.5" fill="#d97706" stroke="#fff" stroke-width="1.5"/>
  <circle cx="150.0" cy="164.7" r="3.5" fill="#d97706" stroke="#fff" stroke-width="1.5"/>
  <circle cx="242.0" cy="182.2" r="3.5" fill="#d97706" stroke="#fff" stroke-width="1.5"/>
  <circle cx="334.0" cy="148.6" r="3.5" fill="#d97706" stroke="#fff" stroke-width="1.5"/>
  <circle cx="426.0" cy="148.7" r="3.5" fill="#d97706" stroke="#fff" stroke-width="1.5"/>
  <circle cx="518.0" cy="153.9" r="3.5" fill="#d97706" stroke="#fff" stroke-width="1.5"/>
  <polyline points="58.0,186.2 150.0,177.5 242.0,195.8 334.0,243.6 426.0,208.1 518.0,244.3" fill="none" stroke="#dc2626" stroke-width="2.5" stroke-linejoin="round"/>
  <circle cx="58.0" cy="186.2" r="3.5" fill="#dc2626" stroke="#fff" stroke-width="1.5"/>
  <circle cx="150.0" cy="177.5" r="3.5" fill="#dc2626" stroke="#fff" stroke-width="1.5"/>
  <circle cx="242.0" cy="195.8" r="3.5" fill="#dc2626" stroke="#fff" stroke-width="1.5"/>
  <circle cx="334.0" cy="243.6" r="3.5" fill="#dc2626" stroke="#fff" stroke-width="1.5"/>
  <circle cx="426.0" cy="208.1" r="3.5" fill="#dc2626" stroke="#fff" stroke-width="1.5"/>
  <circle cx="518.0" cy="244.3" r="3.5" fill="#dc2626" stroke="#fff" stroke-width="1.5"/>
  <polyline points="58.0,253.2 150.0,215.4 242.0,189.4 334.0,67.6 426.0,208.0 518.0,73.2" fill="none" stroke="#7c3aed" stroke-width="2.5" stroke-linejoin="round"/>
  <circle cx="58.0" cy="253.2" r="3.5" fill="#7c3aed" stroke="#fff" stroke-width="1.5"/>
  <circle cx="150.0" cy="215.4" r="3.5" fill="#7c3aed" stroke="#fff" stroke-width="1.5"/>
  <circle cx="242.0" cy="189.4" r="3.5" fill="#7c3aed" stroke="#fff" stroke-width="1.5"/>
  <circle cx="334.0" cy="67.6" r="3.5" fill="#7c3aed" stroke="#fff" stroke-width="1.5"/>
  <circle cx="426.0" cy="208.0" r="3.5" fill="#7c3aed" stroke="#fff" stroke-width="1.5"/>
  <circle cx="518.0" cy="73.2" r="3.5" fill="#7c3aed" stroke="#fff" stroke-width="1.5"/>
  <line x1="534" y1="50" x2="554" y2="50" stroke="#16a34a" stroke-width="2.5"/>
  <circle cx="544" cy="50" r="3" fill="#16a34a" stroke="#fff" stroke-width="1"/>
  <text x="560" y="54" font-size="11" fill="#1e293b">bijou64</text>
  <line x1="534" y1="72" x2="554" y2="72" stroke="#d97706" stroke-width="2.5"/>
  <circle cx="544" cy="72" r="3" fill="#d97706" stroke="#fff" stroke-width="1"/>
  <text x="560" y="76" font-size="11" fill="#1e293b">varu64</text>
  <line x1="534" y1="94" x2="554" y2="94" stroke="#dc2626" stroke-width="2.5"/>
  <circle cx="544" cy="94" r="3" fill="#dc2626" stroke="#fff" stroke-width="1"/>
  <text x="560" y="98" font-size="11" fill="#1e293b">vu64</text>
  <line x1="534" y1="116" x2="554" y2="116" stroke="#7c3aed" stroke-width="2.5"/>
  <circle cx="544" cy="116" r="3" fill="#7c3aed" stroke="#fff" stroke-width="1"/>
  <text x="560" y="120" font-size="11" fill="#1e293b">leb128</text>
</svg>