<?xml version="1.0" encoding="utf-8" standalone="no"?>
<!DOCTYPE svg PUBLIC "-//W3C//DTD SVG 1.1//EN"
  "http://www.w3.org/Graphics/SVG/1.1/DTD/svg11.dtd">
<svg xmlns:xlink="http://www.w3.org/1999/xlink" width="643.094375pt" height="355.428787pt" viewBox="0 0 643.094375 355.428787" xmlns="http://www.w3.org/2000/svg" version="1.1">
 <metadata>
  <rdf:RDF xmlns:dc="http://purl.org/dc/elements/1.1/" xmlns:cc="http://creativecommons.org/ns#" xmlns:rdf="http://www.w3.org/1999/02/22-rdf-syntax-ns#">
   <cc:Work>
    <dc:type rdf:resource="http://purl.org/dc/dcmitype/StillImage"/>
    <dc:date>2026-03-15T18:27:34.684672</dc:date>
    <dc:format>image/svg+xml</dc:format>
    <dc:creator>
     <cc:Agent>
      <dc:title>Matplotlib v3.10.5, https://matplotlib.org/</dc:title>
     </cc:Agent>
    </dc:creator>
   </cc:Work>
  </rdf:RDF>
 </metadata>
 <defs>
  <style type="text/css">*{stroke-linejoin: round; stroke-linecap: butt}</style>
 </defs>
 <g id="figure_1">
  <g id="patch_1">
   <path d="M 0 355.428787 
L 643.094375 355.428787 
L 643.094375 0 
L 0 0 
z
" style="fill: #ffffff"/>
  </g>
  <g id="axes_1">
   <g id="patch_2">
    <path d="M 46.274375 293.311514 
L 632.294375 293.311514 
L 632.294375 26.568281 
L 46.274375 26.568281 
z
" style="fill: #ffffff"/>
   </g>
   <g id="matplotlib.axis_1">
    <g id="xtick_1">
     <g id="line2d_1">
      <path d="M 109.652714 293.311514 
L 109.652714 26.568281 
" clip-path="url(#p90b3a2cbae)" style="fill: none; stroke: #cccccc; stroke-linecap: round"/>
     </g>
     <g id="text_1">
      <!-- tiny -->
      <g style="fill: #262626" transform="translate(95.293731 316.41799) rotate(-30) scale(0.09 -0.09)">
       <defs>
        <path id="Inter-Regular-74" d="M 1869 3494 
L 1869 3013 
L 1150 3013 
L 1150 906 
Q 1150 672 1245 564 
Q 1341 456 1563 456 
Q 1616 456 1698 468 
Q 1781 481 1850 494 
L 1966 19 
Q 1878 -13 1767 -28 
Q 1656 -44 1547 -44 
Q 1094 -44 841 195 
Q 588 434 588 863 
L 588 3013 
L 63 3013 
L 63 3494 
L 588 3494 
L 588 4325 
L 1150 4325 
L 1150 3494 
L 1869 3494 
z
" transform="scale(0.015625)"/>
        <path id="Inter-Regular-69" d="M 494 0 
L 494 3494 
L 1056 3494 
L 1056 0 
L 494 0 
z
M 778 4066 
Q 619 4066 503 4175 
Q 388 4284 388 4438 
Q 388 4594 503 4701 
Q 619 4809 778 4809 
Q 941 4809 1056 4701 
Q 1172 4594 1172 4438 
Q 1172 4284 1056 4175 
Q 941 4066 778 4066 
z
" transform="scale(0.015625)"/>
        <path id="Inter-Regular-6e" d="M 1056 2094 
L 1056 0 
L 494 0 
L 494 3494 
L 1034 3494 
L 1038 2847 
Q 1206 3219 1479 3378 
Q 1753 3538 2106 3538 
Q 2638 3538 2963 3209 
Q 3288 2881 3288 2219 
L 3288 0 
L 2725 0 
L 2725 2172 
Q 2725 2575 2514 2803 
Q 2303 3031 1938 3031 
Q 1559 3031 1307 2786 
Q 1056 2541 1056 2094 
z
" transform="scale(0.015625)"/>
        <path id="Inter-Regular-79" d="M 438 -1266 
L 581 -778 
L 641 -794 
Q 900 -863 1087 -773 
Q 1275 -684 1403 -309 
L 1503 -19 
L 169 3494 
L 784 3494 
L 1528 1422 
Q 1609 1194 1673 969 
Q 1738 744 1797 525 
Q 1856 744 1920 969 
Q 1984 1194 2066 1422 
L 2816 3494 
L 3428 3494 
L 1894 -522 
Q 1734 -938 1478 -1134 
Q 1222 -1331 850 -1331 
Q 700 -1331 590 -1309 
Q 481 -1288 438 -1266 
z
" transform="scale(0.015625)"/>
       </defs>
       <use xlink:href="#Inter-Regular-74"/>
       <use xlink:href="#Inter-Regular-69" transform="translate(32.714844 0)"/>
       <use xlink:href="#Inter-Regular-6e" transform="translate(56.933594 0)"/>
       <use xlink:href="#Inter-Regular-79" transform="translate(116.015625 0)"/>
      </g>
     </g>
    </g>
    <g id="xtick_2">
     <g id="line2d_2">
      <path d="M 201.505378 293.311514 
L 201.505378 26.568281 
" clip-path="url(#p90b3a2cbae)" style="fill: none; stroke: #cccccc; stroke-linecap: round"/>
     </g>
     <g id="text_2">
      <!-- small -->
      <g style="fill: #262626" transform="translate(181.493672 319.505409) rotate(-30) scale(0.09 -0.09)">
       <defs>
        <path id="Inter-Regular-73" d="M 1681 -75 
Q 1144 -75 787 159 
Q 431 394 338 847 
L 872 975 
Q 947 688 1155 553 
Q 1363 419 1675 419 
Q 2041 419 2258 575 
Q 2475 731 2475 947 
Q 2475 1306 1963 1428 
L 1381 1566 
Q 444 1788 444 2519 
Q 444 2819 612 3048 
Q 781 3278 1073 3408 
Q 1366 3538 1738 3538 
Q 2278 3538 2576 3302 
Q 2875 3066 2994 2697 
L 2484 2566 
Q 2413 2753 2245 2906 
Q 2078 3059 1741 3059 
Q 1428 3059 1220 2915 
Q 1013 2772 1013 2553 
Q 1013 2359 1153 2242 
Q 1294 2125 1600 2053 
L 2128 1928 
Q 2603 1816 2831 1580 
Q 3059 1344 3059 984 
Q 3059 678 2886 439 
Q 2713 200 2402 62 
Q 2091 -75 1681 -75 
z
" transform="scale(0.015625)"/>
        <path id="Inter-Regular-6d" d="M 494 0 
L 494 3494 
L 1041 3494 
L 1044 2853 
Q 1172 3206 1442 3381 
Q 1713 3556 2022 3556 
Q 2366 3556 2592 3361 
Q 2819 3166 2913 2844 
Q 3038 3175 3336 3365 
Q 3634 3556 4013 3556 
Q 4316 3556 4566 3425 
Q 4816 3294 4964 3028 
Q 5113 2763 5113 2356 
L 5113 0 
L 4550 0 
L 4550 2341 
Q 4550 2719 4337 2881 
Q 4125 3044 3844 3044 
Q 3491 3044 3287 2828 
Q 3084 2613 3084 2281 
L 3084 0 
L 2522 0 
L 2522 2397 
Q 2522 2688 2328 2866 
Q 2134 3044 1838 3044 
Q 1531 3044 1293 2831 
Q 1056 2619 1056 2200 
L 1056 0 
L 494 0 
z
" transform="scale(0.015625)"/>
        <path id="Inter-Regular-61" d="M 1472 -81 
Q 1141 -81 870 44 
Q 600 169 440 409 
Q 281 650 281 994 
Q 281 1294 400 1481 
Q 519 1669 717 1776 
Q 916 1884 1156 1937 
Q 1397 1991 1641 2022 
Q 1953 2063 2150 2084 
Q 2347 2106 2442 2159 
Q 2538 2213 2538 2341 
L 2538 2359 
Q 2538 2684 2353 2864 
Q 2169 3044 1806 3044 
Q 1428 3044 1215 2880 
Q 1003 2716 922 2531 
L 381 2709 
Q 516 3028 744 3208 
Q 972 3388 1247 3463 
Q 1522 3538 1791 3538 
Q 1966 3538 2189 3495 
Q 2413 3453 2620 3328 
Q 2828 3203 2964 2958 
Q 3100 2713 3100 2303 
L 3100 0 
L 2547 0 
L 2547 475 
L 2509 475 
Q 2450 353 2319 223 
Q 2188 94 1978 6 
Q 1769 -81 1472 -81 
z
M 1569 416 
Q 1881 416 2097 537 
Q 2313 659 2425 854 
Q 2538 1050 2538 1263 
L 2538 1747 
Q 2503 1706 2387 1673 
Q 2272 1641 2123 1616 
Q 1975 1591 1836 1573 
Q 1697 1556 1616 1547 
Q 1413 1522 1236 1461 
Q 1059 1400 953 1283 
Q 847 1166 847 966 
Q 847 694 1051 555 
Q 1256 416 1569 416 
z
" transform="scale(0.015625)"/>
        <path id="Inter-Regular-6c" d="M 1056 4656 
L 1056 0 
L 494 0 
L 494 4656 
L 1056 4656 
z
" transform="scale(0.015625)"/>
       </defs>
       <use xlink:href="#Inter-Regular-73"/>
       <use xlink:href="#Inter-Regular-6d" transform="translate(52.783203 0)"/>
       <use xlink:href="#Inter-Regular-61" transform="translate(140.380859 0)"/>
       <use xlink:href="#Inter-Regular-6c" transform="translate(196.533203 0)"/>
       <use xlink:href="#Inter-Regular-6c" transform="translate(220.751953 0)"/>
      </g>
     </g>
    </g>
    <g id="xtick_3">
     <g id="line2d_3">
      <path d="M 293.358043 293.311514 
L 293.358043 26.568281 
" clip-path="url(#p90b3a2cbae)" style="fill: none; stroke: #cccccc; stroke-linecap: round"/>
     </g>
     <g id="text_3">
      <!-- medium -->
      <g style="fill: #262626" transform="translate(262.972706 325.494628) rotate(-30) scale(0.09 -0.09)">
       <defs>
        <path id="Inter-Regular-65" d="M 1963 -75 
Q 1456 -75 1089 150 
Q 722 375 523 778 
Q 325 1181 325 1719 
Q 325 2256 519 2665 
Q 713 3075 1067 3306 
Q 1422 3538 1897 3538 
Q 2175 3538 2445 3445 
Q 2716 3353 2936 3148 
Q 3156 2944 3287 2609 
Q 3419 2275 3419 1791 
L 3419 1556 
L 894 1556 
Q 916 1009 1208 717 
Q 1500 425 1966 425 
Q 2275 425 2498 561 
Q 2722 697 2819 963 
L 3363 813 
Q 3241 416 2870 170 
Q 2500 -75 1963 -75 
z
M 897 2031 
L 2847 2031 
Q 2806 2478 2567 2758 
Q 2328 3038 1897 3038 
Q 1597 3038 1380 2897 
Q 1163 2756 1038 2528 
Q 913 2300 897 2031 
z
" transform="scale(0.015625)"/>
        <path id="Inter-Regular-64" d="M 1803 -75 
Q 1369 -75 1034 147 
Q 700 369 512 775 
Q 325 1181 325 1738 
Q 325 2291 514 2695 
Q 703 3100 1037 3319 
Q 1372 3538 1806 3538 
Q 2147 3538 2347 3425 
Q 2547 3313 2655 3170 
Q 2763 3028 2819 2934 
L 2863 2934 
L 2863 4656 
L 3425 4656 
L 3425 0 
L 2881 0 
L 2881 541 
L 2819 541 
Q 2763 444 2652 298 
Q 2541 153 2339 39 
Q 2138 -75 1803 -75 
z
M 1888 428 
Q 2363 428 2616 793 
Q 2869 1159 2869 1744 
Q 2869 2322 2620 2678 
Q 2372 3034 1888 3034 
Q 1556 3034 1336 2862 
Q 1116 2691 1006 2398 
Q 897 2106 897 1744 
Q 897 1378 1008 1079 
Q 1119 781 1341 604 
Q 1563 428 1888 428 
z
" transform="scale(0.015625)"/>
        <path id="Inter-Regular-75" d="M 1678 -44 
Q 1150 -44 822 284 
Q 494 613 494 1275 
L 494 3494 
L 1056 3494 
L 1056 1322 
Q 1056 919 1268 691 
Q 1481 463 1847 463 
Q 2222 463 2473 708 
Q 2725 953 2725 1400 
L 2725 3494 
L 3291 3494 
L 3291 0 
L 2747 0 
L 2747 653 
Q 2575 272 2298 114 
Q 2022 -44 1678 -44 
z
" transform="scale(0.015625)"/>
       </defs>
       <use xlink:href="#Inter-Regular-6d"/>
       <use xlink:href="#Inter-Regular-65" transform="translate(87.597656 0)"/>
       <use xlink:href="#Inter-Regular-64" transform="translate(145.898438 0)"/>
       <use xlink:href="#Inter-Regular-69" transform="translate(207.128906 0)"/>
       <use xlink:href="#Inter-Regular-75" transform="translate(231.347656 0)"/>
       <use xlink:href="#Inter-Regular-6d" transform="translate(290.478516 0)"/>
      </g>
     </g>
    </g>
    <g id="xtick_4">
     <g id="line2d_4">
      <path d="M 385.210707 293.311514 
L 385.210707 26.568281 
" clip-path="url(#p90b3a2cbae)" style="fill: none; stroke: #cccccc; stroke-linecap: round"/>
     </g>
     <g id="text_4">
      <!-- large -->
      <g style="fill: #262626" transform="translate(365.717438 319.175643) rotate(-30) scale(0.09 -0.09)">
       <defs>
        <path id="Inter-Regular-72" d="M 494 0 
L 494 3494 
L 1038 3494 
L 1038 2956 
L 1075 2956 
Q 1172 3222 1420 3383 
Q 1669 3544 1981 3544 
Q 2044 3544 2130 3541 
Q 2216 3538 2266 3534 
L 2266 2969 
Q 2241 2975 2141 2987 
Q 2041 3000 1928 3000 
Q 1550 3000 1303 2770 
Q 1056 2541 1056 2188 
L 1056 0 
L 494 0 
z
" transform="scale(0.015625)"/>
        <path id="Inter-Regular-67" d="M 1909 -1381 
Q 1328 -1381 981 -1168 
Q 634 -956 472 -669 
L 928 -375 
Q 1003 -475 1114 -597 
Q 1225 -719 1414 -805 
Q 1603 -891 1909 -891 
Q 2328 -891 2598 -691 
Q 2869 -491 2869 -59 
L 2869 641 
L 2816 641 
Q 2756 541 2648 403 
Q 2541 266 2339 161 
Q 2138 56 1800 56 
Q 1381 56 1047 254 
Q 713 453 519 834 
Q 325 1216 325 1763 
Q 325 2303 515 2701 
Q 706 3100 1042 3319 
Q 1378 3538 1813 3538 
Q 2150 3538 2351 3427 
Q 2553 3316 2662 3172 
Q 2772 3028 2831 2934 
L 2884 2934 
L 2884 3494 
L 3431 3494 
L 3431 -91 
Q 3431 -541 3228 -827 
Q 3025 -1113 2679 -1247 
Q 2334 -1381 1909 -1381 
z
M 1894 556 
Q 2369 556 2622 879 
Q 2875 1203 2875 1775 
Q 2875 2331 2626 2682 
Q 2378 3034 1894 3034 
Q 1563 3034 1341 2864 
Q 1119 2694 1008 2409 
Q 897 2125 897 1775 
Q 897 1238 1150 897 
Q 1403 556 1894 556 
z
" transform="scale(0.015625)"/>
       </defs>
       <use xlink:href="#Inter-Regular-6c"/>
       <use xlink:href="#Inter-Regular-61" transform="translate(24.21875 0)"/>
       <use xlink:href="#Inter-Regular-72" transform="translate(80.371094 0)"/>
       <use xlink:href="#Inter-Regular-67" transform="translate(118.017578 0)"/>
       <use xlink:href="#Inter-Regular-65" transform="translate(179.345703 0)"/>
      </g>
     </g>
    </g>
    <g id="xtick_5">
     <g id="line2d_5">
      <path d="M 477.063372 293.311514 
L 477.063372 26.568281 
" clip-path="url(#p90b3a2cbae)" style="fill: none; stroke: #cccccc; stroke-linecap: round"/>
     </g>
     <g id="text_5">
      <!-- boundary -->
      <g style="fill: #262626" transform="translate(441.003552 328.760643) rotate(-30) scale(0.09 -0.09)">
       <defs>
        <path id="Inter-Regular-62" d="M 2116 -75 
Q 1784 -75 1581 39 
Q 1378 153 1268 298 
Q 1159 444 1100 541 
L 1038 541 
L 1038 0 
L 494 0 
L 494 4656 
L 1056 4656 
L 1056 2934 
L 1100 2934 
Q 1159 3028 1265 3170 
Q 1372 3313 1572 3425 
Q 1772 3538 2113 3538 
Q 2550 3538 2883 3319 
Q 3216 3100 3405 2695 
Q 3594 2291 3594 1738 
Q 3594 1181 3406 775 
Q 3219 369 2886 147 
Q 2553 -75 2116 -75 
z
M 2031 428 
Q 2359 428 2579 604 
Q 2800 781 2911 1079 
Q 3022 1378 3022 1744 
Q 3022 2106 2912 2398 
Q 2803 2691 2583 2862 
Q 2363 3034 2031 3034 
Q 1550 3034 1300 2678 
Q 1050 2322 1050 1744 
Q 1050 1159 1303 793 
Q 1556 428 2031 428 
z
" transform="scale(0.015625)"/>
        <path id="Inter-Regular-6f" d="M 1916 -75 
Q 1441 -75 1083 150 
Q 725 375 525 781 
Q 325 1188 325 1725 
Q 325 2272 525 2680 
Q 725 3088 1083 3313 
Q 1441 3538 1916 3538 
Q 2394 3538 2753 3313 
Q 3113 3088 3313 2680 
Q 3513 2272 3513 1725 
Q 3513 1188 3313 781 
Q 3113 375 2753 150 
Q 2394 -75 1916 -75 
z
M 1916 428 
Q 2269 428 2497 609 
Q 2725 791 2834 1086 
Q 2944 1381 2944 1725 
Q 2944 2072 2834 2370 
Q 2725 2669 2497 2851 
Q 2269 3034 1916 3034 
Q 1566 3034 1341 2851 
Q 1116 2669 1006 2372 
Q 897 2075 897 1725 
Q 897 1381 1006 1086 
Q 1116 791 1341 609 
Q 1566 428 1916 428 
z
" transform="scale(0.015625)"/>
       </defs>
       <use xlink:href="#Inter-Regular-62"/>
       <use xlink:href="#Inter-Regular-6f" transform="translate(61.230469 0)"/>
       <use xlink:href="#Inter-Regular-75" transform="translate(121.191406 0)"/>
       <use xlink:href="#Inter-Regular-6e" transform="translate(180.322266 0)"/>
       <use xlink:href="#Inter-Regular-64" transform="translate(239.404297 0)"/>
       <use xlink:href="#Inter-Regular-61" transform="translate(300.634766 0)"/>
       <use xlink:href="#Inter-Regular-72" transform="translate(356.787109 0)"/>
       <use xlink:href="#Inter-Regular-79" transform="translate(394.433594 0)"/>
      </g>
     </g>
    </g>
    <g id="xtick_6">
     <g id="line2d_6">
      <path d="M 568.916036 293.311514 
L 568.916036 26.568281 
" clip-path="url(#p90b3a2cbae)" style="fill: none; stroke: #cccccc; stroke-linecap: round"/>
     </g>
     <g id="text_6">
      <!-- uniform -->
      <g style="fill: #262626" transform="translate(539.576831 324.890643) rotate(-30) scale(0.09 -0.09)">
       <defs>
        <path id="Inter-Regular-66" d="M 2119 3494 
L 2119 3013 
L 1313 3013 
L 1313 0 
L 750 0 
L 750 3013 
L 63 3013 
L 63 3494 
L 750 3494 
L 750 3959 
Q 750 4263 892 4466 
Q 1034 4669 1262 4772 
Q 1491 4875 1744 4875 
Q 1944 4875 2075 4842 
Q 2206 4809 2269 4781 
L 2113 4300 
Q 2069 4316 1998 4334 
Q 1928 4353 1809 4353 
Q 1550 4353 1431 4220 
Q 1313 4088 1313 3834 
L 1313 3494 
L 2119 3494 
z
" transform="scale(0.015625)"/>
       </defs>
       <use xlink:href="#Inter-Regular-75"/>
       <use xlink:href="#Inter-Regular-6e" transform="translate(59.130859 0)"/>
       <use xlink:href="#Inter-Regular-69" transform="translate(118.212891 0)"/>
       <use xlink:href="#Inter-Regular-66" transform="translate(142.431641 0)"/>
       <use xlink:href="#Inter-Regular-6f" transform="translate(179.443359 0)"/>
       <use xlink:href="#Inter-Regular-72" transform="translate(239.404297 0)"/>
       <use xlink:href="#Inter-Regular-6d" transform="translate(277.050781 0)"/>
      </g>
     </g>
    </g>
    <g id="text_7">
     <!-- Distribution -->
     <g style="fill: #262626" transform="translate(309.579219 342.384099) scale(0.11 -0.11)">
      <defs>
       <path id="Inter-Regular-44" d="M 2016 0 
L 563 0 
L 563 4656 
L 2075 4656 
Q 2756 4656 3239 4378 
Q 3722 4100 3980 3579 
Q 4238 3059 4238 2338 
Q 4238 1609 3978 1086 
Q 3719 563 3222 281 
Q 2725 0 2016 0 
z
M 1156 525 
L 1978 525 
Q 2828 525 3245 1008 
Q 3663 1491 3663 2338 
Q 3663 3178 3253 3654 
Q 2844 4131 2034 4131 
L 1156 4131 
L 1156 525 
z
" transform="scale(0.015625)"/>
      </defs>
      <use xlink:href="#Inter-Regular-44"/>
      <use xlink:href="#Inter-Regular-69" transform="translate(72.167969 0)"/>
      <use xlink:href="#Inter-Regular-73" transform="translate(96.386719 0)"/>
      <use xlink:href="#Inter-Regular-74" transform="translate(149.169922 0)"/>
      <use xlink:href="#Inter-Regular-72" transform="translate(181.884766 0)"/>
      <use xlink:href="#Inter-Regular-69" transform="translate(219.53125 0)"/>
      <use xlink:href="#Inter-Regular-62" transform="translate(243.75 0)"/>
      <use xlink:href="#Inter-Regular-75" transform="translate(304.980469 0)"/>
      <use xlink:href="#Inter-Regular-74" transform="translate(364.111328 0)"/>
      <use xlink:href="#Inter-Regular-69" transform="translate(396.826172 0)"/>
      <use xlink:href="#Inter-Regular-6f" transform="translate(421.044922 0)"/>
      <use xlink:href="#Inter-Regular-6e" transform="translate(481.005859 0)"/>
     </g>
    </g>
   </g>
   <g id="matplotlib.axis_2">
    <g id="ytick_1">
     <g id="line2d_7">
      <path d="M 46.274375 293.311514 
L 632.294375 293.311514 
" clip-path="url(#p90b3a2cbae)" style="fill: none; stroke: #cccccc; stroke-linecap: round"/>
     </g>
     <g id="text_8">
      <!-- 0 -->
      <g style="fill: #262626" transform="translate(31.095938 296.585264) scale(0.09 -0.09)">
       <defs>
        <path id="Inter-Regular-30" d="M 2019 -63 
Q 1241 -63 811 562 
Q 381 1188 381 2325 
Q 381 3456 814 4087 
Q 1247 4719 2019 4719 
Q 2794 4719 3225 4087 
Q 3656 3456 3656 2325 
Q 3656 1188 3228 562 
Q 2800 -63 2019 -63 
z
M 2019 456 
Q 2531 456 2807 948 
Q 3084 1441 3084 2325 
Q 3084 3216 2807 3709 
Q 2531 4203 2019 4203 
Q 1509 4203 1231 3708 
Q 953 3213 953 2325 
Q 953 1441 1231 948 
Q 1509 456 2019 456 
z
" transform="scale(0.015625)"/>
       </defs>
       <use xlink:href="#Inter-Regular-30"/>
      </g>
     </g>
    </g>
    <g id="ytick_2">
     <g id="line2d_8">
      <path d="M 46.274375 257.133773 
L 632.294375 257.133773 
" clip-path="url(#p90b3a2cbae)" style="fill: none; stroke: #cccccc; stroke-linecap: round"/>
     </g>
     <g id="text_9">
      <!-- 5 -->
      <g style="fill: #262626" transform="translate(31.434844 260.407523) scale(0.09 -0.09)">
       <defs>
        <path id="Inter-Regular-35" d="M 1863 -63 
Q 1453 -63 1128 98 
Q 803 259 609 539 
Q 416 819 400 1175 
L 975 1175 
Q 1003 863 1258 661 
Q 1513 459 1863 459 
Q 2144 459 2364 590 
Q 2584 722 2709 953 
Q 2834 1184 2834 1478 
Q 2834 1778 2703 2015 
Q 2572 2253 2345 2389 
Q 2119 2525 1825 2525 
Q 1609 2525 1387 2456 
Q 1166 2388 1028 2281 
L 472 2350 
L 747 4656 
L 3197 4656 
L 3197 4134 
L 1247 4134 
L 1088 2775 
L 1113 2775 
Q 1256 2894 1475 2970 
Q 1694 3047 1934 3047 
Q 2363 3047 2697 2845 
Q 3031 2644 3223 2291 
Q 3416 1938 3416 1488 
Q 3416 1041 3214 691 
Q 3013 341 2663 139 
Q 2313 -63 1863 -63 
z
" transform="scale(0.015625)"/>
       </defs>
       <use xlink:href="#Inter-Regular-35"/>
      </g>
     </g>
    </g>
    <g id="ytick_3">
     <g id="line2d_9">
      <path d="M 46.274375 220.956032 
L 632.294375 220.956032 
" clip-path="url(#p90b3a2cbae)" style="fill: none; stroke: #cccccc; stroke-linecap: round"/>
     </g>
     <g id="text_10">
      <!-- 10 -->
      <g style="fill: #262626" transform="translate(27.435469 224.229782) scale(0.09 -0.09)">
       <defs>
        <path id="Inter-Regular-31" d="M 2041 4656 
L 2041 0 
L 1456 0 
L 1456 4106 
L 1425 4106 
L 300 3272 
L 300 3909 
L 1313 4656 
L 2041 4656 
z
" transform="scale(0.015625)"/>
       </defs>
       <use xlink:href="#Inter-Regular-31"/>
       <use xlink:href="#Inter-Regular-30" transform="translate(40.673828 0)"/>
      </g>
     </g>
    </g>
    <g id="ytick_4">
     <g id="line2d_10">
      <path d="M 46.274375 184.778291 
L 632.294375 184.778291 
" clip-path="url(#p90b3a2cbae)" style="fill: none; stroke: #cccccc; stroke-linecap: round"/>
     </g>
     <g id="text_11">
      <!-- 15 -->
      <g style="fill: #262626" transform="translate(27.774375 188.052041) scale(0.09 -0.09)">
       <use xlink:href="#Inter-Regular-31"/>
       <use xlink:href="#Inter-Regular-35" transform="translate(40.673828 0)"/>
      </g>
     </g>
    </g>
    <g id="ytick_5">
     <g id="line2d_11">
      <path d="M 46.274375 148.60055 
L 632.294375 148.60055 
" clip-path="url(#p90b3a2cbae)" style="fill: none; stroke: #cccccc; stroke-linecap: round"/>
     </g>
     <g id="text_12">
      <!-- 20 -->
      <g style="fill: #262626" transform="translate(25.607344 151.8743) scale(0.09 -0.09)">
       <defs>
        <path id="Inter-Regular-32" d="M 481 0 
L 481 428 
L 2028 2106 
Q 2288 2388 2459 2600 
Q 2631 2813 2718 3005 
Q 2806 3197 2806 3413 
Q 2806 3778 2554 3990 
Q 2303 4203 1931 4203 
Q 1534 4203 1298 3965 
Q 1063 3728 1063 3334 
L 494 3334 
Q 494 3747 684 4059 
Q 875 4372 1203 4545 
Q 1531 4719 1947 4719 
Q 2363 4719 2683 4545 
Q 3003 4372 3186 4078 
Q 3369 3784 3369 3419 
Q 3369 3166 3278 2927 
Q 3188 2688 2959 2384 
Q 2731 2081 2319 1644 
L 1300 559 
L 1300 522 
L 3447 522 
L 3447 0 
L 481 0 
z
" transform="scale(0.015625)"/>
       </defs>
       <use xlink:href="#Inter-Regular-32"/>
       <use xlink:href="#Inter-Regular-30" transform="translate(60.986328 0)"/>
      </g>
     </g>
    </g>
    <g id="ytick_6">
     <g id="line2d_12">
      <path d="M 46.274375 112.422809 
L 632.294375 112.422809 
" clip-path="url(#p90b3a2cbae)" style="fill: none; stroke: #cccccc; stroke-linecap: round"/>
     </g>
     <g id="text_13">
      <!-- 25 -->
      <g style="fill: #262626" transform="translate(25.94625 115.696559) scale(0.09 -0.09)">
       <use xlink:href="#Inter-Regular-32"/>
       <use xlink:href="#Inter-Regular-35" transform="translate(60.986328 0)"/>
      </g>
     </g>
    </g>
    <g id="ytick_7">
     <g id="line2d_13">
      <path d="M 46.274375 76.245068 
L 632.294375 76.245068 
" clip-path="url(#p90b3a2cbae)" style="fill: none; stroke: #cccccc; stroke-linecap: round"/>
     </g>
     <g id="text_14">
      <!-- 30 -->
      <g style="fill: #262626" transform="translate(25.537031 79.518818) scale(0.09 -0.09)">
       <defs>
        <path id="Inter-Regular-33" d="M 1984 -63 
Q 1528 -63 1175 93 
Q 822 250 614 528 
Q 406 806 391 1175 
L 991 1175 
Q 1016 844 1297 651 
Q 1578 459 1975 459 
Q 2413 459 2698 684 
Q 2984 909 2984 1272 
Q 2984 1650 2703 1889 
Q 2422 2128 1903 2128 
L 1525 2128 
L 1525 2644 
L 1903 2644 
Q 2313 2644 2567 2861 
Q 2822 3078 2822 3438 
Q 2822 3784 2597 3993 
Q 2372 4203 1991 4203 
Q 1753 4203 1545 4117 
Q 1338 4031 1205 3872 
Q 1072 3713 1063 3484 
L 491 3484 
Q 503 3850 709 4128 
Q 916 4406 1255 4562 
Q 1594 4719 2003 4719 
Q 2438 4719 2752 4544 
Q 3066 4369 3234 4084 
Q 3403 3800 3403 3469 
Q 3403 3075 3195 2800 
Q 2988 2525 2631 2419 
L 2631 2381 
Q 3078 2309 3325 2007 
Q 3572 1706 3572 1266 
Q 3572 884 3365 584 
Q 3159 284 2800 110 
Q 2441 -63 1984 -63 
z
" transform="scale(0.015625)"/>
       </defs>
       <use xlink:href="#Inter-Regular-33"/>
       <use xlink:href="#Inter-Regular-30" transform="translate(61.767578 0)"/>
      </g>
     </g>
    </g>
    <g id="ytick_8">
     <g id="line2d_14">
      <path d="M 46.274375 40.067327 
L 632.294375 40.067327 
" clip-path="url(#p90b3a2cbae)" style="fill: none; stroke: #cccccc; stroke-linecap: round"/>
     </g>
     <g id="text_15">
      <!-- 35 -->
      <g style="fill: #262626" transform="translate(25.875938 43.341077) scale(0.09 -0.09)">
       <use xlink:href="#Inter-Regular-33"/>
       <use xlink:href="#Inter-Regular-35" transform="translate(61.767578 0)"/>
      </g>
     </g>
    </g>
    <g id="text_16">
     <!-- Median time (µs), whiskers: min–p95 -->
     <g style="fill: #262626" transform="translate(19.292344 255.179273) rotate(-90) scale(0.11 -0.11)">
      <defs>
       <path id="Inter-Regular-4d" d="M 563 0 
L 563 4656 
L 1406 4656 
L 2553 1719 
Q 2619 1550 2716 1247 
Q 2813 944 2897 659 
Q 2978 934 3075 1239 
Q 3172 1544 3241 1719 
L 4372 4656 
L 5219 4656 
L 5219 0 
L 4634 0 
L 4634 2659 
Q 4634 2916 4640 3287 
Q 4647 3659 4656 4022 
Q 4528 3622 4398 3244 
Q 4269 2866 4188 2659 
L 3147 0 
L 2631 0 
L 1575 2659 
Q 1497 2856 1370 3229 
Q 1244 3603 1106 4013 
Q 1113 3681 1120 3304 
Q 1128 2928 1128 2659 
L 1128 0 
L 563 0 
z
" transform="scale(0.015625)"/>
       <path id="Inter-Regular-20" transform="scale(0.015625)"/>
       <path id="Inter-Regular-28" d="M 681 1897 
Q 681 2406 786 2964 
Q 891 3522 1072 4039 
Q 1253 4556 1488 4941 
L 2034 4941 
Q 1794 4450 1617 3919 
Q 1441 3388 1347 2870 
Q 1253 2353 1253 1897 
Q 1253 1275 1442 617 
Q 1631 -41 2034 -872 
L 1488 -872 
Q 1091 -194 886 509 
Q 681 1213 681 1897 
z
" transform="scale(0.015625)"/>
       <path id="Inter-Regular-b5" d="M 494 -1306 
L 494 3494 
L 1056 3494 
L 1056 1375 
Q 1056 884 1303 665 
Q 1550 447 1903 447 
Q 2259 447 2493 667 
Q 2728 888 2728 1375 
L 2728 3494 
L 3291 3494 
L 3291 791 
Q 3291 619 3366 551 
Q 3441 484 3628 484 
L 3719 484 
L 3719 0 
L 3606 0 
Q 2903 0 2769 525 
Q 2678 300 2526 175 
Q 2375 50 2208 0 
Q 2041 -50 1900 -50 
Q 1700 -50 1451 59 
Q 1203 169 1056 472 
L 1056 -1306 
L 494 -1306 
z
" transform="scale(0.015625)"/>
       <path id="Inter-Regular-29" d="M 300 -872 
Q 716 -16 898 639 
Q 1081 1294 1081 1897 
Q 1081 2353 987 2870 
Q 894 3388 719 3919 
Q 544 4450 300 4941 
L 847 4941 
Q 1081 4556 1264 4039 
Q 1447 3522 1550 2962 
Q 1653 2403 1653 1897 
Q 1653 1200 1445 497 
Q 1238 -206 847 -872 
L 300 -872 
z
" transform="scale(0.015625)"/>
       <path id="Inter-Regular-2c" d="M 400 -1122 
L 675 650 
L 1319 650 
L 831 -1122 
L 400 -1122 
z
" transform="scale(0.015625)"/>
       <path id="Inter-Regular-77" d="M 1278 0 
L 219 3494 
L 816 3494 
L 1241 1969 
Q 1316 1697 1403 1358 
Q 1491 1019 1575 603 
Q 1659 1003 1742 1340 
Q 1825 1678 1906 1969 
L 2325 3494 
L 2925 3494 
L 3338 1969 
Q 3413 1688 3495 1352 
Q 3578 1016 3659 613 
Q 3747 1013 3833 1348 
Q 3919 1684 3997 1969 
L 4422 3494 
L 5019 3494 
L 3959 0 
L 3400 0 
L 2947 1581 
Q 2859 1881 2779 2200 
Q 2700 2519 2619 2853 
Q 2541 2519 2458 2197 
Q 2375 1875 2291 1581 
L 1838 0 
L 1278 0 
z
" transform="scale(0.015625)"/>
       <path id="Inter-Regular-68" d="M 1056 2094 
L 1056 0 
L 494 0 
L 494 4656 
L 1056 4656 
L 1056 2888 
Q 1228 3238 1495 3388 
Q 1763 3538 2106 3538 
Q 2638 3538 2964 3209 
Q 3291 2881 3291 2219 
L 3291 0 
L 2725 0 
L 2725 2172 
Q 2725 2575 2514 2803 
Q 2303 3031 1938 3031 
Q 1559 3031 1307 2786 
Q 1056 2541 1056 2094 
z
" transform="scale(0.015625)"/>
       <path id="Inter-Regular-6b" d="M 494 0 
L 494 4656 
L 1056 4656 
L 1056 1953 
L 1125 1953 
L 2619 3494 
L 3316 3494 
L 1853 1994 
L 3425 0 
L 2703 0 
L 1425 1634 
L 1056 1288 
L 1056 0 
L 494 0 
z
" transform="scale(0.015625)"/>
       <path id="Inter-Regular-3a" d="M 922 -41 
Q 747 -41 623 82 
Q 500 206 500 381 
Q 500 556 623 679 
Q 747 803 922 803 
Q 1097 803 1220 679 
Q 1344 556 1344 381 
Q 1344 206 1220 82 
Q 1097 -41 922 -41 
z
M 922 2487 
Q 747 2487 623 2610 
Q 500 2734 500 2909 
Q 500 3084 623 3207 
Q 747 3331 922 3331 
Q 1097 3331 1220 3207 
Q 1344 3084 1344 2909 
Q 1344 2734 1220 2610 
Q 1097 2487 922 2487 
z
" transform="scale(0.015625)"/>
       <path id="Inter-Regular-2013" d="M 3200 2247 
L 3200 1728 
L 0 1728 
L 0 2247 
L 3200 2247 
z
" transform="scale(0.015625)"/>
       <path id="Inter-Regular-70" d="M 494 -1306 
L 494 3494 
L 1038 3494 
L 1038 2934 
L 1100 2934 
Q 1159 3028 1265 3170 
Q 1372 3313 1572 3425 
Q 1772 3538 2113 3538 
Q 2550 3538 2883 3319 
Q 3216 3100 3405 2695 
Q 3594 2291 3594 1738 
Q 3594 1181 3406 775 
Q 3219 369 2886 147 
Q 2553 -75 2116 -75 
Q 1784 -75 1581 39 
Q 1378 153 1268 298 
Q 1159 444 1100 541 
L 1056 541 
L 1056 -1306 
L 494 -1306 
z
M 2031 428 
Q 2359 428 2579 604 
Q 2800 781 2911 1079 
Q 3022 1378 3022 1744 
Q 3022 2106 2912 2398 
Q 2803 2691 2583 2862 
Q 2363 3034 2031 3034 
Q 1550 3034 1300 2678 
Q 1050 2322 1050 1744 
Q 1050 1159 1303 793 
Q 1556 428 2031 428 
z
" transform="scale(0.015625)"/>
       <path id="Inter-Regular-39" d="M 1884 -63 
Q 1488 -63 1178 93 
Q 869 250 672 531 
Q 475 813 419 1184 
L 1006 1184 
Q 1078 875 1297 669 
Q 1516 463 1884 463 
Q 2416 463 2723 927 
Q 3031 1391 3031 2238 
L 2994 2238 
Q 2806 1953 2509 1784 
Q 2213 1616 1847 1616 
Q 1447 1616 1112 1814 
Q 778 2013 579 2361 
Q 381 2709 381 3156 
Q 381 3591 578 3948 
Q 775 4306 1129 4517 
Q 1484 4728 1963 4719 
Q 2250 4716 2537 4608 
Q 2825 4500 3062 4253 
Q 3300 4006 3444 3581 
Q 3588 3156 3588 2513 
Q 3588 1278 3131 607 
Q 2675 -63 1884 -63 
z
M 1934 2134 
Q 2219 2134 2447 2279 
Q 2675 2425 2811 2662 
Q 2947 2900 2947 3172 
Q 2947 3441 2817 3673 
Q 2688 3906 2464 4051 
Q 2241 4197 1953 4197 
Q 1672 4197 1448 4058 
Q 1225 3919 1094 3683 
Q 963 3447 963 3159 
Q 963 2875 1089 2642 
Q 1216 2409 1434 2271 
Q 1653 2134 1934 2134 
z
" transform="scale(0.015625)"/>
      </defs>
      <use xlink:href="#Inter-Regular-4d"/>
      <use xlink:href="#Inter-Regular-65" transform="translate(90.332031 0)"/>
      <use xlink:href="#Inter-Regular-64" transform="translate(148.632812 0)"/>
      <use xlink:href="#Inter-Regular-69" transform="translate(209.863281 0)"/>
      <use xlink:href="#Inter-Regular-61" transform="translate(234.082031 0)"/>
      <use xlink:href="#Inter-Regular-6e" transform="translate(290.234375 0)"/>
      <use xlink:href="#Inter-Regular-20" transform="translate(349.316406 0)"/>
      <use xlink:href="#Inter-Regular-74" transform="translate(377.441406 0)"/>
      <use xlink:href="#Inter-Regular-69" transform="translate(410.15625 0)"/>
      <use xlink:href="#Inter-Regular-6d" transform="translate(434.375 0)"/>
      <use xlink:href="#Inter-Regular-65" transform="translate(521.972656 0)"/>
      <use xlink:href="#Inter-Regular-20" transform="translate(580.273438 0)"/>
      <use xlink:href="#Inter-Regular-28" transform="translate(608.398438 0)"/>
      <use xlink:href="#Inter-Regular-b5" transform="translate(644.873047 0)"/>
      <use xlink:href="#Inter-Regular-73" transform="translate(703.466797 0)"/>
      <use xlink:href="#Inter-Regular-29" transform="translate(756.25 0)"/>
      <use xlink:href="#Inter-Regular-2c" transform="translate(792.724609 0)"/>
      <use xlink:href="#Inter-Regular-20" transform="translate(821.533203 0)"/>
      <use xlink:href="#Inter-Regular-77" transform="translate(849.658203 0)"/>
      <use xlink:href="#Inter-Regular-68" transform="translate(931.494141 0)"/>
      <use xlink:href="#Inter-Regular-69" transform="translate(990.625 0)"/>
      <use xlink:href="#Inter-Regular-73" transform="translate(1014.84375 0)"/>
      <use xlink:href="#Inter-Regular-6b" transform="translate(1067.626953 0)"/>
      <use xlink:href="#Inter-Regular-65" transform="translate(1122.509766 0)"/>
      <use xlink:href="#Inter-Regular-72" transform="translate(1180.810547 0)"/>
      <use xlink:href="#Inter-Regular-73" transform="translate(1218.457031 0)"/>
      <use xlink:href="#Inter-Regular-3a" transform="translate(1271.240234 0)"/>
      <use xlink:href="#Inter-Regular-20" transform="translate(1300.048828 0)"/>
      <use xlink:href="#Inter-Regular-6d" transform="translate(1328.173828 0)"/>
      <use xlink:href="#Inter-Regular-69" transform="translate(1415.771484 0)"/>
      <use xlink:href="#Inter-Regular-6e" transform="translate(1439.990234 0)"/>
      <use xlink:href="#Inter-Regular-2013" transform="translate(1499.072266 0)"/>
      <use xlink:href="#Inter-Regular-70" transform="translate(1549.072266 0)"/>
      <use xlink:href="#Inter-Regular-39" transform="translate(1610.302734 0)"/>
      <use xlink:href="#Inter-Regular-35" transform="translate(1672.314453 0)"/>
     </g>
    </g>
   </g>
   <g id="patch_3">
    <path d="M 72.911648 293.311514 
L 91.282181 293.311514 
L 91.282181 228.940372 
L 72.911648 228.940372 
z
" clip-path="url(#p90b3a2cbae)" style="fill: #16a34a; opacity: 0.85; stroke: #ffffff; stroke-linejoin: miter"/>
   </g>
   <g id="patch_4">
    <path d="M 164.764312 293.311514 
L 183.134845 293.311514 
L 183.134845 187.752732 
L 164.764312 187.752732 
z
" clip-path="url(#p90b3a2cbae)" style="fill: #16a34a; opacity: 0.85; stroke: #ffffff; stroke-linejoin: miter"/>
   </g>
   <g id="patch_5">
    <path d="M 256.616977 293.311514 
L 274.98751 293.311514 
L 274.98751 187.592799 
L 256.616977 187.592799 
z
" clip-path="url(#p90b3a2cbae)" style="fill: #16a34a; opacity: 0.85; stroke: #ffffff; stroke-linejoin: miter"/>
   </g>
   <g id="patch_6">
    <path d="M 348.469641 293.311514 
L 366.840174 293.311514 
L 366.840174 220.953083 
L 348.469641 220.953083 
z
" clip-path="url(#p90b3a2cbae)" style="fill: #16a34a; opacity: 0.85; stroke: #ffffff; stroke-linejoin: miter"/>
   </g>
   <g id="patch_7">
    <path d="M 440.322306 293.311514 
L 458.692839 293.311514 
L 458.692839 202.261239 
L 440.322306 202.261239 
z
" clip-path="url(#p90b3a2cbae)" style="fill: #16a34a; opacity: 0.85; stroke: #ffffff; stroke-linejoin: miter"/>
   </g>
   <g id="patch_8">
    <path d="M 532.174971 293.311514 
L 550.545504 293.311514 
L 550.545504 220.943001 
L 532.174971 220.943001 
z
" clip-path="url(#p90b3a2cbae)" style="fill: #16a34a; opacity: 0.85; stroke: #ffffff; stroke-linejoin: miter"/>
   </g>
   <g id="patch_9">
    <path d="M 91.282181 293.311514 
L 109.652714 293.311514 
L 109.652714 242.839078 
L 91.282181 242.839078 
z
" clip-path="url(#p90b3a2cbae)" style="fill: #7c3aed; opacity: 0.85; stroke: #ffffff; stroke-linejoin: miter"/>
   </g>
   <g id="patch_10">
    <path d="M 183.134845 293.311514 
L 201.505378 293.311514 
L 201.505378 210.316158 
L 183.134845 210.316158 
z
" clip-path="url(#p90b3a2cbae)" style="fill: #7c3aed; opacity: 0.85; stroke: #ffffff; stroke-linejoin: miter"/>
   </g>
   <g id="patch_11">
    <path d="M 274.98751 293.311514 
L 293.358043 293.311514 
L 293.358043 203.682815 
L 274.98751 203.682815 
z
" clip-path="url(#p90b3a2cbae)" style="fill: #7c3aed; opacity: 0.85; stroke: #ffffff; stroke-linejoin: miter"/>
   </g>
   <g id="patch_12">
    <path d="M 366.840174 293.311514 
L 385.210707 293.311514 
L 385.210707 73.686074 
L 366.840174 73.686074 
z
" clip-path="url(#p90b3a2cbae)" style="fill: #7c3aed; opacity: 0.85; stroke: #ffffff; stroke-linejoin: miter"/>
   </g>
   <g id="patch_13">
    <path d="M 458.692839 293.311514 
L 477.063372 293.311514 
L 477.063372 209.033221 
L 458.692839 209.033221 
z
" clip-path="url(#p90b3a2cbae)" style="fill: #7c3aed; opacity: 0.85; stroke: #ffffff; stroke-linejoin: miter"/>
   </g>
   <g id="patch_14">
    <path d="M 550.545504 293.311514 
L 568.916036 293.311514 
L 568.916036 74.556759 
L 550.545504 74.556759 
z
" clip-path="url(#p90b3a2cbae)" style="fill: #7c3aed; opacity: 0.85; stroke: #ffffff; stroke-linejoin: miter"/>
   </g>
   <g id="patch_15">
    <path d="M 109.652714 293.311514 
L 128.023246 293.311514 
L 128.023246 240.591846 
L 109.652714 240.591846 
z
" clip-path="url(#p90b3a2cbae)" style="fill: #d97706; opacity: 0.85; stroke: #ffffff; stroke-linejoin: miter"/>
   </g>
   <g id="patch_16">
    <path d="M 201.505378 293.311514 
L 219.875911 293.311514 
L 219.875911 208.317062 
L 201.505378 208.317062 
z
" clip-path="url(#p90b3a2cbae)" style="fill: #d97706; opacity: 0.85; stroke: #ffffff; stroke-linejoin: miter"/>
   </g>
   <g id="patch_17">
    <path d="M 293.358043 293.311514 
L 311.728576 293.311514 
L 311.728576 168.966805 
L 293.358043 168.966805 
z
" clip-path="url(#p90b3a2cbae)" style="fill: #d97706; opacity: 0.85; stroke: #ffffff; stroke-linejoin: miter"/>
   </g>
   <g id="patch_18">
    <path d="M 385.210707 293.311514 
L 403.58124 293.311514 
L 403.58124 116.657157 
L 385.210707 116.657157 
z
" clip-path="url(#p90b3a2cbae)" style="fill: #d97706; opacity: 0.85; stroke: #ffffff; stroke-linejoin: miter"/>
   </g>
   <g id="patch_19">
    <path d="M 477.063372 293.311514 
L 495.433905 293.311514 
L 495.433905 159.270507 
L 477.063372 159.270507 
z
" clip-path="url(#p90b3a2cbae)" style="fill: #d97706; opacity: 0.85; stroke: #ffffff; stroke-linejoin: miter"/>
   </g>
   <g id="patch_20">
    <path d="M 568.916036 293.311514 
L 587.286569 293.311514 
L 587.286569 116.529378 
L 568.916036 116.529378 
z
" clip-path="url(#p90b3a2cbae)" style="fill: #d97706; opacity: 0.85; stroke: #ffffff; stroke-linejoin: miter"/>
   </g>
   <g id="patch_21">
    <path d="M 128.023246 293.311514 
L 146.393779 293.311514 
L 146.393779 180.253382 
L 128.023246 180.253382 
z
" clip-path="url(#p90b3a2cbae)" style="fill: #dc2626; opacity: 0.85; stroke: #ffffff; stroke-linejoin: miter"/>
   </g>
   <g id="patch_22">
    <path d="M 219.875911 293.311514 
L 238.246444 293.311514 
L 238.246444 158.991758 
L 219.875911 158.991758 
z
" clip-path="url(#p90b3a2cbae)" style="fill: #dc2626; opacity: 0.85; stroke: #ffffff; stroke-linejoin: miter"/>
   </g>
   <g id="patch_23">
    <path d="M 311.728576 293.311514 
L 330.099109 293.311514 
L 330.099109 145.864069 
L 311.728576 145.864069 
z
" clip-path="url(#p90b3a2cbae)" style="fill: #dc2626; opacity: 0.85; stroke: #ffffff; stroke-linejoin: miter"/>
   </g>
   <g id="patch_24">
    <path d="M 403.58124 293.311514 
L 421.951773 293.311514 
L 421.951773 183.970632 
L 403.58124 183.970632 
z
" clip-path="url(#p90b3a2cbae)" style="fill: #dc2626; opacity: 0.85; stroke: #ffffff; stroke-linejoin: miter"/>
   </g>
   <g id="patch_25">
    <path d="M 495.433905 293.311514 
L 513.804438 293.311514 
L 513.804438 164.287851 
L 495.433905 164.287851 
z
" clip-path="url(#p90b3a2cbae)" style="fill: #dc2626; opacity: 0.85; stroke: #ffffff; stroke-linejoin: miter"/>
   </g>
   <g id="patch_26">
    <path d="M 587.286569 293.311514 
L 605.657102 293.311514 
L 605.657102 184.676589 
L 587.286569 184.676589 
z
" clip-path="url(#p90b3a2cbae)" style="fill: #dc2626; opacity: 0.85; stroke: #ffffff; stroke-linejoin: miter"/>
   </g>
   <g id="LineCollection_1">
    <path d="M 82.096914 248.248043 
L 82.096914 227.498176 
" clip-path="url(#p90b3a2cbae)" style="fill: none; stroke: #1a1a1a"/>
    <path d="M 173.949579 189.465224 
L 173.949579 168.448317 
" clip-path="url(#p90b3a2cbae)" style="fill: none; stroke: #1a1a1a"/>
    <path d="M 265.802243 189.360979 
L 265.802243 165.323351 
" clip-path="url(#p90b3a2cbae)" style="fill: none; stroke: #1a1a1a"/>
    <path d="M 357.654908 222.192732 
L 357.654908 210.822367 
" clip-path="url(#p90b3a2cbae)" style="fill: none; stroke: #1a1a1a"/>
    <path d="M 449.507572 204.240749 
L 449.507572 183.066728 
" clip-path="url(#p90b3a2cbae)" style="fill: none; stroke: #1a1a1a"/>
    <path d="M 541.360237 222.456685 
L 541.360237 216.756631 
" clip-path="url(#p90b3a2cbae)" style="fill: none; stroke: #1a1a1a"/>
   </g>
   <g id="line2d_15">
    <defs>
     <path id="mf4ecb2e605" d="M 2 0 
L -2 -0 
" style="stroke: #1a1a1a"/>
    </defs>
    <g clip-path="url(#p90b3a2cbae)">
     <use xlink:href="#mf4ecb2e605" x="82.096914" y="248.248043" style="fill: #4c72b0; stroke: #1a1a1a"/>
     <use xlink:href="#mf4ecb2e605" x="173.949579" y="189.465224" style="fill: #4c72b0; stroke: #1a1a1a"/>
     <use xlink:href="#mf4ecb2e605" x="265.802243" y="189.360979" style="fill: #4c72b0; stroke: #1a1a1a"/>
     <use xlink:href="#mf4ecb2e605" x="357.654908" y="222.192732" style="fill: #4c72b0; stroke: #1a1a1a"/>
     <use xlink:href="#mf4ecb2e605" x="449.507572" y="204.240749" style="fill: #4c72b0; stroke: #1a1a1a"/>
     <use xlink:href="#mf4ecb2e605" x="541.360237" y="222.456685" style="fill: #4c72b0; stroke: #1a1a1a"/>
    </g>
   </g>
   <g id="line2d_16">
    <g clip-path="url(#p90b3a2cbae)">
     <use xlink:href="#mf4ecb2e605" x="82.096914" y="227.498176" style="fill: #4c72b0; stroke: #1a1a1a"/>
     <use xlink:href="#mf4ecb2e605" x="173.949579" y="168.448317" style="fill: #4c72b0; stroke: #1a1a1a"/>
     <use xlink:href="#mf4ecb2e605" x="265.802243" y="165.323351" style="fill: #4c72b0; stroke: #1a1a1a"/>
     <use xlink:href="#mf4ecb2e605" x="357.654908" y="210.822367" style="fill: #4c72b0; stroke: #1a1a1a"/>
     <use xlink:href="#mf4ecb2e605" x="449.507572" y="183.066728" style="fill: #4c72b0; stroke: #1a1a1a"/>
     <use xlink:href="#mf4ecb2e605" x="541.360237" y="216.756631" style="fill: #4c72b0; stroke: #1a1a1a"/>
    </g>
   </g>
   <g id="LineCollection_2">
    <path d="M 100.467447 245.474 
L 100.467447 234.386287 
" clip-path="url(#p90b3a2cbae)" style="fill: none; stroke: #1a1a1a"/>
    <path d="M 192.320112 214.191781 
L 192.320112 200.178889 
" clip-path="url(#p90b3a2cbae)" style="fill: none; stroke: #1a1a1a"/>
    <path d="M 284.172776 208.621231 
L 284.172776 183.114861 
" clip-path="url(#p90b3a2cbae)" style="fill: none; stroke: #1a1a1a"/>
    <path d="M 376.025441 81.036164 
L 376.025441 39.27034 
" clip-path="url(#p90b3a2cbae)" style="fill: none; stroke: #1a1a1a"/>
    <path d="M 467.878105 215.644975 
L 467.878105 204.695909 
" clip-path="url(#p90b3a2cbae)" style="fill: none; stroke: #1a1a1a"/>
    <path d="M 559.73077 84.905055 
L 559.73077 60.01393 
" clip-path="url(#p90b3a2cbae)" style="fill: none; stroke: #1a1a1a"/>
   </g>
   <g id="line2d_17">
    <g clip-path="url(#p90b3a2cbae)">
     <use xlink:href="#mf4ecb2e605" x="100.467447" y="245.474" style="fill: #4c72b0; stroke: #1a1a1a"/>
     <use xlink:href="#mf4ecb2e605" x="192.320112" y="214.191781" style="fill: #4c72b0; stroke: #1a1a1a"/>
     <use xlink:href="#mf4ecb2e605" x="284.172776" y="208.621231" style="fill: #4c72b0; stroke: #1a1a1a"/>
     <use xlink:href="#mf4ecb2e605" x="376.025441" y="81.036164" style="fill: #4c72b0; stroke: #1a1a1a"/>
     <use xlink:href="#mf4ecb2e605" x="467.878105" y="215.644975" style="fill: #4c72b0; stroke: #1a1a1a"/>
     <use xlink:href="#mf4ecb2e605" x="559.73077" y="84.905055" style="fill: #4c72b0; stroke: #1a1a1a"/>
    </g>
   </g>
   <g id="line2d_18">
    <g clip-path="url(#p90b3a2cbae)">
     <use xlink:href="#mf4ecb2e605" x="100.467447" y="234.386287" style="fill: #4c72b0; stroke: #1a1a1a"/>
     <use xlink:href="#mf4ecb2e605" x="192.320112" y="200.178889" style="fill: #4c72b0; stroke: #1a1a1a"/>
     <use xlink:href="#mf4ecb2e605" x="284.172776" y="183.114861" style="fill: #4c72b0; stroke: #1a1a1a"/>
     <use xlink:href="#mf4ecb2e605" x="376.025441" y="39.27034" style="fill: #4c72b0; stroke: #1a1a1a"/>
     <use xlink:href="#mf4ecb2e605" x="467.878105" y="204.695909" style="fill: #4c72b0; stroke: #1a1a1a"/>
     <use xlink:href="#mf4ecb2e605" x="559.73077" y="60.01393" style="fill: #4c72b0; stroke: #1a1a1a"/>
    </g>
   </g>
   <g id="LineCollection_3">
    <path d="M 118.83798 241.90087 
L 118.83798 220.70646 
" clip-path="url(#p90b3a2cbae)" style="fill: none; stroke: #1a1a1a"/>
    <path d="M 210.690645 210.230882 
L 210.690645 189.676443 
" clip-path="url(#p90b3a2cbae)" style="fill: none; stroke: #1a1a1a"/>
    <path d="M 302.543309 171.542544 
L 302.543309 152.06728 
" clip-path="url(#p90b3a2cbae)" style="fill: none; stroke: #1a1a1a"/>
    <path d="M 394.395974 120.306662 
L 394.395974 95.048477 
" clip-path="url(#p90b3a2cbae)" style="fill: none; stroke: #1a1a1a"/>
    <path d="M 486.248638 163.867298 
L 486.248638 139.940738 
" clip-path="url(#p90b3a2cbae)" style="fill: none; stroke: #1a1a1a"/>
    <path d="M 578.101303 120.108408 
L 578.101303 89.322986 
" clip-path="url(#p90b3a2cbae)" style="fill: none; stroke: #1a1a1a"/>
   </g>
   <g id="line2d_19">
    <g clip-path="url(#p90b3a2cbae)">
     <use xlink:href="#mf4ecb2e605" x="118.83798" y="241.90087" style="fill: #4c72b0; stroke: #1a1a1a"/>
     <use xlink:href="#mf4ecb2e605" x="210.690645" y="210.230882" style="fill: #4c72b0; stroke: #1a1a1a"/>
     <use xlink:href="#mf4ecb2e605" x="302.543309" y="171.542544" style="fill: #4c72b0; stroke: #1a1a1a"/>
     <use xlink:href="#mf4ecb2e605" x="394.395974" y="120.306662" style="fill: #4c72b0; stroke: #1a1a1a"/>
     <use xlink:href="#mf4ecb2e605" x="486.248638" y="163.867298" style="fill: #4c72b0; stroke: #1a1a1a"/>
     <use xlink:href="#mf4ecb2e605" x="578.101303" y="120.108408" style="fill: #4c72b0; stroke: #1a1a1a"/>
    </g>
   </g>
   <g id="line2d_20">
    <g clip-path="url(#p90b3a2cbae)">
     <use xlink:href="#mf4ecb2e605" x="118.83798" y="220.70646" style="fill: #4c72b0; stroke: #1a1a1a"/>
     <use xlink:href="#mf4ecb2e605" x="210.690645" y="189.676443" style="fill: #4c72b0; stroke: #1a1a1a"/>
     <use xlink:href="#mf4ecb2e605" x="302.543309" y="152.06728" style="fill: #4c72b0; stroke: #1a1a1a"/>
     <use xlink:href="#mf4ecb2e605" x="394.395974" y="95.048477" style="fill: #4c72b0; stroke: #1a1a1a"/>
     <use xlink:href="#mf4ecb2e605" x="486.248638" y="139.940738" style="fill: #4c72b0; stroke: #1a1a1a"/>
     <use xlink:href="#mf4ecb2e605" x="578.101303" y="89.322986" style="fill: #4c72b0; stroke: #1a1a1a"/>
    </g>
   </g>
   <g id="LineCollection_4">
    <path d="M 137.208513 181.740039 
L 137.208513 176.936731 
" clip-path="url(#p90b3a2cbae)" style="fill: none; stroke: #1a1a1a"/>
    <path d="M 229.061178 161.045176 
L 229.061178 141.179095 
" clip-path="url(#p90b3a2cbae)" style="fill: none; stroke: #1a1a1a"/>
    <path d="M 320.913842 151.170677 
L 320.913842 135.79436 
" clip-path="url(#p90b3a2cbae)" style="fill: none; stroke: #1a1a1a"/>
    <path d="M 412.766507 186.073029 
L 412.766507 168.136571 
" clip-path="url(#p90b3a2cbae)" style="fill: none; stroke: #1a1a1a"/>
    <path d="M 504.619171 166.29069 
L 504.619171 160.871304 
" clip-path="url(#p90b3a2cbae)" style="fill: none; stroke: #1a1a1a"/>
    <path d="M 596.471836 186.217739 
L 596.471836 181.793395 
" clip-path="url(#p90b3a2cbae)" style="fill: none; stroke: #1a1a1a"/>
   </g>
   <g id="line2d_21">
    <g clip-path="url(#p90b3a2cbae)">
     <use xlink:href="#mf4ecb2e605" x="137.208513" y="181.740039" style="fill: #4c72b0; stroke: #1a1a1a"/>
     <use xlink:href="#mf4ecb2e605" x="229.061178" y="161.045176" style="fill: #4c72b0; stroke: #1a1a1a"/>
     <use xlink:href="#mf4ecb2e605" x="320.913842" y="151.170677" style="fill: #4c72b0; stroke: #1a1a1a"/>
     <use xlink:href="#mf4ecb2e605" x="412.766507" y="186.073029" style="fill: #4c72b0; stroke: #1a1a1a"/>
     <use xlink:href="#mf4ecb2e605" x="504.619171" y="166.29069" style="fill: #4c72b0; stroke: #1a1a1a"/>
     <use xlink:href="#mf4ecb2e605" x="596.471836" y="186.217739" style="fill: #4c72b0; stroke: #1a1a1a"/>
    </g>
   </g>
   <g id="line2d_22">
    <g clip-path="url(#p90b3a2cbae)">
     <use xlink:href="#mf4ecb2e605" x="137.208513" y="176.936731" style="fill: #4c72b0; stroke: #1a1a1a"/>
     <use xlink:href="#mf4ecb2e605" x="229.061178" y="141.179095" style="fill: #4c72b0; stroke: #1a1a1a"/>
     <use xlink:href="#mf4ecb2e605" x="320.913842" y="135.79436" style="fill: #4c72b0; stroke: #1a1a1a"/>
     <use xlink:href="#mf4ecb2e605" x="412.766507" y="168.136571" style="fill: #4c72b0; stroke: #1a1a1a"/>
     <use xlink:href="#mf4ecb2e605" x="504.619171" y="160.871304" style="fill: #4c72b0; stroke: #1a1a1a"/>
     <use xlink:href="#mf4ecb2e605" x="596.471836" y="181.793395" style="fill: #4c72b0; stroke: #1a1a1a"/>
    </g>
   </g>
   <g id="patch_27">
    <path d="M 46.274375 293.311514 
L 46.274375 26.568281 
" style="fill: none; stroke: #cccccc; stroke-width: 1.25; stroke-linejoin: miter; stroke-linecap: square"/>
   </g>
   <g id="patch_28">
    <path d="M 632.294375 293.311514 
L 632.294375 26.568281 
" style="fill: none; stroke: #cccccc; stroke-width: 1.25; stroke-linejoin: miter; stroke-linecap: square"/>
   </g>
   <g id="patch_29">
    <path d="M 46.274375 293.311514 
L 632.294375 293.311514 
" style="fill: none; stroke: #cccccc; stroke-width: 1.25; stroke-linejoin: miter; stroke-linecap: square"/>
   </g>
   <g id="patch_30">
    <path d="M 46.274375 26.568281 
L 632.294375 26.568281 
" style="fill: none; stroke: #cccccc; stroke-width: 1.25; stroke-linejoin: miter; stroke-linecap: square"/>
   </g>
   <g id="text_17">
    <!-- Stream Decode — Median Latency by Library -->
    <g style="fill: #262626" transform="translate(199.864453 20.568281) scale(0.13 -0.13)">
     <defs>
      <path id="Inter-Regular-53" d="M 2053 -81 
Q 1297 -81 850 276 
Q 403 634 363 1219 
L 972 1219 
Q 997 956 1150 786 
Q 1303 616 1542 533 
Q 1781 450 2053 450 
Q 2369 450 2620 553 
Q 2872 656 3019 843 
Q 3166 1031 3166 1278 
Q 3166 1503 3039 1643 
Q 2913 1784 2703 1875 
Q 2494 1966 2244 2034 
L 1681 2194 
Q 1119 2353 806 2650 
Q 494 2947 494 3409 
Q 494 3803 706 4098 
Q 919 4394 1281 4556 
Q 1644 4719 2094 4719 
Q 2553 4719 2906 4556 
Q 3259 4394 3464 4114 
Q 3669 3834 3681 3481 
L 3100 3481 
Q 3059 3822 2775 4008 
Q 2491 4194 2075 4194 
Q 1622 4194 1347 3980 
Q 1072 3766 1072 3438 
Q 1072 3194 1223 3045 
Q 1375 2897 1583 2814 
Q 1791 2731 1959 2684 
L 2425 2556 
Q 2613 2506 2839 2418 
Q 3066 2331 3272 2186 
Q 3478 2041 3611 1817 
Q 3744 1594 3744 1269 
Q 3744 888 3545 581 
Q 3347 275 2969 97 
Q 2591 -81 2053 -81 
z
" transform="scale(0.015625)"/>
      <path id="Inter-Regular-63" d="M 1916 -75 
Q 1441 -75 1083 150 
Q 725 375 525 781 
Q 325 1188 325 1725 
Q 325 2272 525 2680 
Q 725 3088 1083 3313 
Q 1441 3538 1916 3538 
Q 2422 3538 2805 3283 
Q 3188 3028 3331 2572 
L 2791 2419 
Q 2713 2688 2486 2861 
Q 2259 3034 1916 3034 
Q 1566 3034 1341 2851 
Q 1116 2669 1006 2372 
Q 897 2075 897 1725 
Q 897 1381 1006 1086 
Q 1116 791 1341 609 
Q 1566 428 1916 428 
Q 2269 428 2498 608 
Q 2728 788 2806 1072 
L 3344 919 
Q 3203 453 2815 189 
Q 2428 -75 1916 -75 
z
" transform="scale(0.015625)"/>
      <path id="Inter-Regular-2014" d="M 6400 2247 
L 6400 1728 
L 0 1728 
L 0 2247 
L 6400 2247 
z
" transform="scale(0.015625)"/>
      <path id="Inter-Regular-4c" d="M 563 0 
L 563 4656 
L 1156 4656 
L 1156 525 
L 3313 525 
L 3313 0 
L 563 0 
z
" transform="scale(0.015625)"/>
     </defs>
     <use xlink:href="#Inter-Regular-53"/>
     <use xlink:href="#Inter-Regular-74" transform="translate(64.160156 0)"/>
     <use xlink:href="#Inter-Regular-72" transform="translate(96.875 0)"/>
     <use xlink:href="#Inter-Regular-65" transform="translate(134.521484 0)"/>
     <use xlink:href="#Inter-Regular-61" transform="translate(192.822266 0)"/>
     <use xlink:href="#Inter-Regular-6d" transform="translate(248.974609 0)"/>
     <use xlink:href="#Inter-Regular-20" transform="translate(336.572266 0)"/>
     <use xlink:href="#Inter-Regular-44" transform="translate(364.697266 0)"/>
     <use xlink:href="#Inter-Regular-65" transform="translate(436.865234 0)"/>
     <use xlink:href="#Inter-Regular-63" transform="translate(495.166016 0)"/>
     <use xlink:href="#Inter-Regular-6f" transform="translate(552.294922 0)"/>
     <use xlink:href="#Inter-Regular-64" transform="translate(612.255859 0)"/>
     <use xlink:href="#Inter-Regular-65" transform="translate(673.486328 0)"/>
     <use xlink:href="#Inter-Regular-20" transform="translate(731.787109 0)"/>
     <use xlink:href="#Inter-Regular-2014" transform="translate(759.912109 0)"/>
     <use xlink:href="#Inter-Regular-20" transform="translate(859.912109 0)"/>
     <use xlink:href="#Inter-Regular-4d" transform="translate(888.037109 0)"/>
     <use xlink:href="#Inter-Regular-65" transform="translate(978.369141 0)"/>
     <use xlink:href="#Inter-Regular-64" transform="translate(1036.669922 0)"/>
     <use xlink:href="#Inter-Regular-69" transform="translate(1097.900391 0)"/>
     <use xlink:href="#Inter-Regular-61" transform="translate(1122.119141 0)"/>
     <use xlink:href="#Inter-Regular-6e" transform="translate(1178.271484 0)"/>
     <use xlink:href="#Inter-Regular-20" transform="translate(1237.353516 0)"/>
     <use xlink:href="#Inter-Regular-4c" transform="translate(1265.478516 0)"/>
     <use xlink:href="#Inter-Regular-61" transform="translate(1322.021484 0)"/>
     <use xlink:href="#Inter-Regular-74" transform="translate(1378.173828 0)"/>
     <use xlink:href="#Inter-Regular-65" transform="translate(1410.888672 0)"/>
     <use xlink:href="#Inter-Regular-6e" transform="translate(1469.189453 0)"/>
     <use xlink:href="#Inter-Regular-63" transform="translate(1528.271484 0)"/>
     <use xlink:href="#Inter-Regular-79" transform="translate(1585.400391 0)"/>
     <use xlink:href="#Inter-Regular-20" transform="translate(1641.601562 0)"/>
     <use xlink:href="#Inter-Regular-62" transform="translate(1669.726562 0)"/>
     <use xlink:href="#Inter-Regular-79" transform="translate(1730.957031 0)"/>
     <use xlink:href="#Inter-Regular-20" transform="translate(1787.158203 0)"/>
     <use xlink:href="#Inter-Regular-4c" transform="translate(1815.283203 0)"/>
     <use xlink:href="#Inter-Regular-69" transform="translate(1871.826172 0)"/>
     <use xlink:href="#Inter-Regular-62" transform="translate(1896.044922 0)"/>
     <use xlink:href="#Inter-Regular-72" transform="translate(1957.275391 0)"/>
     <use xlink:href="#Inter-Regular-61" transform="translate(1994.921875 0)"/>
     <use xlink:href="#Inter-Regular-72" transform="translate(2051.074219 0)"/>
     <use xlink:href="#Inter-Regular-79" transform="translate(2088.720703 0)"/>
    </g>
   </g>
   <g id="legend_1">
    <g id="patch_31">
     <path d="M 52.574375 85.519687 
L 113.358125 85.519687 
Q 115.158125 85.519687 115.158125 83.719687 
L 115.158125 32.868281 
Q 115.158125 31.068281 113.358125 31.068281 
L 52.574375 31.068281 
Q 50.774375 31.068281 50.774375 32.868281 
L 50.774375 83.719687 
Q 50.774375 85.519687 52.574375 85.519687 
z
" style="fill: #ffffff; opacity: 0.9; stroke: #cccccc; stroke-linejoin: miter"/>
    </g>
    <g id="patch_32">
     <path d="M 54.374375 41.430937 
L 72.374375 41.430937 
L 72.374375 35.130937 
L 54.374375 35.130937 
z
" style="fill: #16a34a; opacity: 0.85; stroke: #ffffff; stroke-linejoin: miter"/>
    </g>
    <g id="text_18">
     <!-- bijou64 -->
     <g style="fill: #262626" transform="translate(79.574375 41.430937) scale(0.09 -0.09)">
      <defs>
       <path id="Inter-Regular-6a" d="M 491 3494 
L 1056 3494 
L 1056 -250 
Q 1059 -750 800 -1028 
Q 541 -1306 31 -1306 
L -81 -1306 
L -81 -788 
L 22 -788 
Q 491 -788 491 -250 
L 491 3494 
z
M 775 4066 
Q 616 4066 500 4175 
Q 384 4284 384 4438 
Q 384 4594 500 4701 
Q 616 4809 775 4809 
Q 938 4809 1053 4701 
Q 1169 4594 1169 4438 
Q 1169 4284 1053 4175 
Q 938 4066 775 4066 
z
" transform="scale(0.015625)"/>
       <path id="Inter-Regular-36" d="M 2019 -63 
Q 1728 -63 1437 43 
Q 1147 150 908 400 
Q 669 650 525 1078 
Q 381 1506 381 2150 
Q 381 3378 840 4048 
Q 1300 4719 2091 4719 
Q 2481 4719 2790 4562 
Q 3100 4406 3297 4128 
Q 3494 3850 3550 3484 
L 2969 3484 
Q 2891 3788 2672 3991 
Q 2453 4194 2091 4194 
Q 1553 4194 1248 3730 
Q 944 3266 944 2425 
L 981 2425 
Q 1169 2716 1467 2880 
Q 1766 3044 2128 3044 
Q 2528 3044 2859 2847 
Q 3191 2650 3389 2301 
Q 3588 1953 3588 1503 
Q 3588 1069 3394 714 
Q 3200 359 2847 148 
Q 2494 -63 2019 -63 
z
M 2019 459 
Q 2300 459 2525 600 
Q 2750 741 2881 977 
Q 3013 1213 3013 1503 
Q 3013 1788 2886 2020 
Q 2759 2253 2537 2390 
Q 2316 2528 2034 2528 
Q 1753 2528 1525 2384 
Q 1297 2241 1162 2005 
Q 1028 1769 1028 1497 
Q 1028 1222 1156 986 
Q 1284 750 1509 604 
Q 1734 459 2019 459 
z
" transform="scale(0.015625)"/>
       <path id="Inter-Regular-34" d="M 375 947 
L 375 1431 
L 2413 4656 
L 3134 4656 
L 3134 1469 
L 3766 1469 
L 3766 947 
L 3134 947 
L 3134 0 
L 2566 0 
L 2566 947 
L 375 947 
z
M 2569 1469 
L 2569 3913 
L 2531 3913 
L 1009 1506 
L 1009 1469 
L 2569 1469 
z
" transform="scale(0.015625)"/>
      </defs>
      <use xlink:href="#Inter-Regular-62"/>
      <use xlink:href="#Inter-Regular-69" transform="translate(61.230469 0)"/>
      <use xlink:href="#Inter-Regular-6a" transform="translate(85.449219 0)"/>
      <use xlink:href="#Inter-Regular-6f" transform="translate(109.667969 0)"/>
      <use xlink:href="#Inter-Regular-75" transform="translate(169.628906 0)"/>
      <use xlink:href="#Inter-Regular-36" transform="translate(228.759766 0)"/>
      <use xlink:href="#Inter-Regular-34" transform="translate(290.771484 0)"/>
     </g>
    </g>
    <g id="patch_33">
     <path d="M 54.374375 54.315 
L 72.374375 54.315 
L 72.374375 48.015 
L 54.374375 48.015 
z
" style="fill: #7c3aed; opacity: 0.85; stroke: #ffffff; stroke-linejoin: miter"/>
    </g>
    <g id="text_19">
     <!-- leb128 -->
     <g style="fill: #262626" transform="translate(79.574375 54.315) scale(0.09 -0.09)">
      <defs>
       <path id="Inter-Regular-38" d="M 1978 -63 
Q 1506 -63 1145 104 
Q 784 272 582 565 
Q 381 859 381 1238 
Q 381 1531 500 1782 
Q 619 2034 825 2203 
Q 1031 2372 1291 2419 
L 1291 2444 
Q 950 2531 750 2822 
Q 550 3113 550 3481 
Q 550 3838 734 4117 
Q 919 4397 1241 4558 
Q 1563 4719 1978 4719 
Q 2388 4719 2709 4558 
Q 3031 4397 3217 4117 
Q 3403 3838 3403 3481 
Q 3403 3113 3201 2822 
Q 3000 2531 2669 2444 
L 2669 2419 
Q 2922 2372 3128 2203 
Q 3334 2034 3456 1782 
Q 3578 1531 3578 1238 
Q 3578 859 3373 565 
Q 3169 272 2808 104 
Q 2447 -63 1978 -63 
z
M 1978 453 
Q 2441 453 2712 676 
Q 2984 900 2984 1269 
Q 2984 1528 2853 1726 
Q 2722 1925 2494 2039 
Q 2266 2153 1978 2153 
Q 1538 2153 1252 1904 
Q 966 1656 966 1269 
Q 966 900 1236 676 
Q 1506 453 1978 453 
z
M 1978 2650 
Q 2347 2650 2587 2867 
Q 2828 3084 2828 3438 
Q 2828 3788 2593 3997 
Q 2359 4206 1978 4206 
Q 1591 4206 1358 3997 
Q 1125 3788 1125 3438 
Q 1125 3084 1362 2867 
Q 1600 2650 1978 2650 
z
" transform="scale(0.015625)"/>
      </defs>
      <use xlink:href="#Inter-Regular-6c"/>
      <use xlink:href="#Inter-Regular-65" transform="translate(24.21875 0)"/>
      <use xlink:href="#Inter-Regular-62" transform="translate(82.519531 0)"/>
      <use xlink:href="#Inter-Regular-31" transform="translate(143.75 0)"/>
      <use xlink:href="#Inter-Regular-32" transform="translate(184.423828 0)"/>
      <use xlink:href="#Inter-Regular-38" transform="translate(245.410156 0)"/>
     </g>
    </g>
    <g id="patch_34">
     <path d="M 54.374375 67.199062 
L 72.374375 67.199062 
L 72.374375 60.899062 
L 54.374375 60.899062 
z
" style="fill: #d97706; opacity: 0.85; stroke: #ffffff; stroke-linejoin: miter"/>
    </g>
    <g id="text_20">
     <!-- varu64 -->
     <g style="fill: #262626" transform="translate(79.574375 67.199062) scale(0.09 -0.09)">
      <defs>
       <path id="Inter-Regular-76" d="M 1503 0 
L 169 3494 
L 784 3494 
L 1528 1422 
Q 1609 1194 1675 967 
Q 1741 741 1800 522 
Q 1859 741 1923 967 
Q 1988 1194 2069 1422 
L 2813 3494 
L 3428 3494 
L 2094 0 
L 1503 0 
z
" transform="scale(0.015625)"/>
      </defs>
      <use xlink:href="#Inter-Regular-76"/>
      <use xlink:href="#Inter-Regular-61" transform="translate(56.201172 0)"/>
      <use xlink:href="#Inter-Regular-72" transform="translate(112.353516 0)"/>
      <use xlink:href="#Inter-Regular-75" transform="translate(150 0)"/>
      <use xlink:href="#Inter-Regular-36" transform="translate(209.130859 0)"/>
      <use xlink:href="#Inter-Regular-34" transform="translate(271.142578 0)"/>
     </g>
    </g>
    <g id="patch_35">
     <path d="M 54.374375 80.083125 
L 72.374375 80.083125 
L 72.374375 73.783125 
L 54.374375 73.783125 
z
" style="fill: #dc2626; opacity: 0.85; stroke: #ffffff; stroke-linejoin: miter"/>
    </g>
    <g id="text_21">
     <!-- vu64 -->
     <g style="fill: #262626" transform="translate(79.574375 80.083125) scale(0.09 -0.09)">
      <use xlink:href="#Inter-Regular-76"/>
      <use xlink:href="#Inter-Regular-75" transform="translate(56.201172 0)"/>
      <use xlink:href="#Inter-Regular-36" transform="translate(115.332031 0)"/>
      <use xlink:href="#Inter-Regular-34" transform="translate(177.34375 0)"/>
     </g>
    </g>
   </g>
  </g>
 </g>
 <defs>
  <clipPath id="p90b3a2cbae">
   <rect x="46.274375" y="26.568281" width="586.02" height="266.743233"/>
  </clipPath>
 </defs>
</svg>
